%TF.GenerationSoftware,KiCad,Pcbnew,7.0.2*%
%TF.CreationDate,2023-05-22T19:29:04+02:00*%
%TF.ProjectId,Board1_Pad_PogoPin,426f6172-6431-45f5-9061-645f506f676f,rev?*%
%TF.SameCoordinates,Original*%
%TF.FileFunction,Legend,Top*%
%TF.FilePolarity,Positive*%
%FSLAX46Y46*%
G04 Gerber Fmt 4.6, Leading zero omitted, Abs format (unit mm)*
G04 Created by KiCad (PCBNEW 7.0.2) date 2023-05-22 19:29:04*
%MOMM*%
%LPD*%
G01*
G04 APERTURE LIST*
%ADD10C,0.150000*%
%ADD11C,0.120000*%
G04 APERTURE END LIST*
D10*
%TO.C,U45*%
X310353384Y-228548719D02*
X310353384Y-229358242D01*
X310353384Y-229358242D02*
X310401003Y-229453480D01*
X310401003Y-229453480D02*
X310448622Y-229501100D01*
X310448622Y-229501100D02*
X310543860Y-229548719D01*
X310543860Y-229548719D02*
X310734336Y-229548719D01*
X310734336Y-229548719D02*
X310829574Y-229501100D01*
X310829574Y-229501100D02*
X310877193Y-229453480D01*
X310877193Y-229453480D02*
X310924812Y-229358242D01*
X310924812Y-229358242D02*
X310924812Y-228548719D01*
X311829574Y-228882052D02*
X311829574Y-229548719D01*
X311591479Y-228501100D02*
X311353384Y-229215385D01*
X311353384Y-229215385D02*
X311972431Y-229215385D01*
X312829574Y-228548719D02*
X312353384Y-228548719D01*
X312353384Y-228548719D02*
X312305765Y-229024909D01*
X312305765Y-229024909D02*
X312353384Y-228977290D01*
X312353384Y-228977290D02*
X312448622Y-228929671D01*
X312448622Y-228929671D02*
X312686717Y-228929671D01*
X312686717Y-228929671D02*
X312781955Y-228977290D01*
X312781955Y-228977290D02*
X312829574Y-229024909D01*
X312829574Y-229024909D02*
X312877193Y-229120147D01*
X312877193Y-229120147D02*
X312877193Y-229358242D01*
X312877193Y-229358242D02*
X312829574Y-229453480D01*
X312829574Y-229453480D02*
X312781955Y-229501100D01*
X312781955Y-229501100D02*
X312686717Y-229548719D01*
X312686717Y-229548719D02*
X312448622Y-229548719D01*
X312448622Y-229548719D02*
X312353384Y-229501100D01*
X312353384Y-229501100D02*
X312305765Y-229453480D01*
%TO.C,U33*%
X284953384Y-126948719D02*
X284953384Y-127758242D01*
X284953384Y-127758242D02*
X285001003Y-127853480D01*
X285001003Y-127853480D02*
X285048622Y-127901100D01*
X285048622Y-127901100D02*
X285143860Y-127948719D01*
X285143860Y-127948719D02*
X285334336Y-127948719D01*
X285334336Y-127948719D02*
X285429574Y-127901100D01*
X285429574Y-127901100D02*
X285477193Y-127853480D01*
X285477193Y-127853480D02*
X285524812Y-127758242D01*
X285524812Y-127758242D02*
X285524812Y-126948719D01*
X285905765Y-126948719D02*
X286524812Y-126948719D01*
X286524812Y-126948719D02*
X286191479Y-127329671D01*
X286191479Y-127329671D02*
X286334336Y-127329671D01*
X286334336Y-127329671D02*
X286429574Y-127377290D01*
X286429574Y-127377290D02*
X286477193Y-127424909D01*
X286477193Y-127424909D02*
X286524812Y-127520147D01*
X286524812Y-127520147D02*
X286524812Y-127758242D01*
X286524812Y-127758242D02*
X286477193Y-127853480D01*
X286477193Y-127853480D02*
X286429574Y-127901100D01*
X286429574Y-127901100D02*
X286334336Y-127948719D01*
X286334336Y-127948719D02*
X286048622Y-127948719D01*
X286048622Y-127948719D02*
X285953384Y-127901100D01*
X285953384Y-127901100D02*
X285905765Y-127853480D01*
X286858146Y-126948719D02*
X287477193Y-126948719D01*
X287477193Y-126948719D02*
X287143860Y-127329671D01*
X287143860Y-127329671D02*
X287286717Y-127329671D01*
X287286717Y-127329671D02*
X287381955Y-127377290D01*
X287381955Y-127377290D02*
X287429574Y-127424909D01*
X287429574Y-127424909D02*
X287477193Y-127520147D01*
X287477193Y-127520147D02*
X287477193Y-127758242D01*
X287477193Y-127758242D02*
X287429574Y-127853480D01*
X287429574Y-127853480D02*
X287381955Y-127901100D01*
X287381955Y-127901100D02*
X287286717Y-127948719D01*
X287286717Y-127948719D02*
X287001003Y-127948719D01*
X287001003Y-127948719D02*
X286905765Y-127901100D01*
X286905765Y-127901100D02*
X286858146Y-127853480D01*
%TO.C,U43*%
X310353384Y-177748719D02*
X310353384Y-178558242D01*
X310353384Y-178558242D02*
X310401003Y-178653480D01*
X310401003Y-178653480D02*
X310448622Y-178701100D01*
X310448622Y-178701100D02*
X310543860Y-178748719D01*
X310543860Y-178748719D02*
X310734336Y-178748719D01*
X310734336Y-178748719D02*
X310829574Y-178701100D01*
X310829574Y-178701100D02*
X310877193Y-178653480D01*
X310877193Y-178653480D02*
X310924812Y-178558242D01*
X310924812Y-178558242D02*
X310924812Y-177748719D01*
X311829574Y-178082052D02*
X311829574Y-178748719D01*
X311591479Y-177701100D02*
X311353384Y-178415385D01*
X311353384Y-178415385D02*
X311972431Y-178415385D01*
X312258146Y-177748719D02*
X312877193Y-177748719D01*
X312877193Y-177748719D02*
X312543860Y-178129671D01*
X312543860Y-178129671D02*
X312686717Y-178129671D01*
X312686717Y-178129671D02*
X312781955Y-178177290D01*
X312781955Y-178177290D02*
X312829574Y-178224909D01*
X312829574Y-178224909D02*
X312877193Y-178320147D01*
X312877193Y-178320147D02*
X312877193Y-178558242D01*
X312877193Y-178558242D02*
X312829574Y-178653480D01*
X312829574Y-178653480D02*
X312781955Y-178701100D01*
X312781955Y-178701100D02*
X312686717Y-178748719D01*
X312686717Y-178748719D02*
X312401003Y-178748719D01*
X312401003Y-178748719D02*
X312305765Y-178701100D01*
X312305765Y-178701100D02*
X312258146Y-178653480D01*
%TO.C,U18*%
X234153384Y-152348719D02*
X234153384Y-153158242D01*
X234153384Y-153158242D02*
X234201003Y-153253480D01*
X234201003Y-153253480D02*
X234248622Y-153301100D01*
X234248622Y-153301100D02*
X234343860Y-153348719D01*
X234343860Y-153348719D02*
X234534336Y-153348719D01*
X234534336Y-153348719D02*
X234629574Y-153301100D01*
X234629574Y-153301100D02*
X234677193Y-153253480D01*
X234677193Y-153253480D02*
X234724812Y-153158242D01*
X234724812Y-153158242D02*
X234724812Y-152348719D01*
X235724812Y-153348719D02*
X235153384Y-153348719D01*
X235439098Y-153348719D02*
X235439098Y-152348719D01*
X235439098Y-152348719D02*
X235343860Y-152491576D01*
X235343860Y-152491576D02*
X235248622Y-152586814D01*
X235248622Y-152586814D02*
X235153384Y-152634433D01*
X236296241Y-152777290D02*
X236201003Y-152729671D01*
X236201003Y-152729671D02*
X236153384Y-152682052D01*
X236153384Y-152682052D02*
X236105765Y-152586814D01*
X236105765Y-152586814D02*
X236105765Y-152539195D01*
X236105765Y-152539195D02*
X236153384Y-152443957D01*
X236153384Y-152443957D02*
X236201003Y-152396338D01*
X236201003Y-152396338D02*
X236296241Y-152348719D01*
X236296241Y-152348719D02*
X236486717Y-152348719D01*
X236486717Y-152348719D02*
X236581955Y-152396338D01*
X236581955Y-152396338D02*
X236629574Y-152443957D01*
X236629574Y-152443957D02*
X236677193Y-152539195D01*
X236677193Y-152539195D02*
X236677193Y-152586814D01*
X236677193Y-152586814D02*
X236629574Y-152682052D01*
X236629574Y-152682052D02*
X236581955Y-152729671D01*
X236581955Y-152729671D02*
X236486717Y-152777290D01*
X236486717Y-152777290D02*
X236296241Y-152777290D01*
X236296241Y-152777290D02*
X236201003Y-152824909D01*
X236201003Y-152824909D02*
X236153384Y-152872528D01*
X236153384Y-152872528D02*
X236105765Y-152967766D01*
X236105765Y-152967766D02*
X236105765Y-153158242D01*
X236105765Y-153158242D02*
X236153384Y-153253480D01*
X236153384Y-153253480D02*
X236201003Y-153301100D01*
X236201003Y-153301100D02*
X236296241Y-153348719D01*
X236296241Y-153348719D02*
X236486717Y-153348719D01*
X236486717Y-153348719D02*
X236581955Y-153301100D01*
X236581955Y-153301100D02*
X236629574Y-153253480D01*
X236629574Y-153253480D02*
X236677193Y-153158242D01*
X236677193Y-153158242D02*
X236677193Y-152967766D01*
X236677193Y-152967766D02*
X236629574Y-152872528D01*
X236629574Y-152872528D02*
X236581955Y-152824909D01*
X236581955Y-152824909D02*
X236486717Y-152777290D01*
%TO.C,U32*%
X259553384Y-304748719D02*
X259553384Y-305558242D01*
X259553384Y-305558242D02*
X259601003Y-305653480D01*
X259601003Y-305653480D02*
X259648622Y-305701100D01*
X259648622Y-305701100D02*
X259743860Y-305748719D01*
X259743860Y-305748719D02*
X259934336Y-305748719D01*
X259934336Y-305748719D02*
X260029574Y-305701100D01*
X260029574Y-305701100D02*
X260077193Y-305653480D01*
X260077193Y-305653480D02*
X260124812Y-305558242D01*
X260124812Y-305558242D02*
X260124812Y-304748719D01*
X260505765Y-304748719D02*
X261124812Y-304748719D01*
X261124812Y-304748719D02*
X260791479Y-305129671D01*
X260791479Y-305129671D02*
X260934336Y-305129671D01*
X260934336Y-305129671D02*
X261029574Y-305177290D01*
X261029574Y-305177290D02*
X261077193Y-305224909D01*
X261077193Y-305224909D02*
X261124812Y-305320147D01*
X261124812Y-305320147D02*
X261124812Y-305558242D01*
X261124812Y-305558242D02*
X261077193Y-305653480D01*
X261077193Y-305653480D02*
X261029574Y-305701100D01*
X261029574Y-305701100D02*
X260934336Y-305748719D01*
X260934336Y-305748719D02*
X260648622Y-305748719D01*
X260648622Y-305748719D02*
X260553384Y-305701100D01*
X260553384Y-305701100D02*
X260505765Y-305653480D01*
X261505765Y-304843957D02*
X261553384Y-304796338D01*
X261553384Y-304796338D02*
X261648622Y-304748719D01*
X261648622Y-304748719D02*
X261886717Y-304748719D01*
X261886717Y-304748719D02*
X261981955Y-304796338D01*
X261981955Y-304796338D02*
X262029574Y-304843957D01*
X262029574Y-304843957D02*
X262077193Y-304939195D01*
X262077193Y-304939195D02*
X262077193Y-305034433D01*
X262077193Y-305034433D02*
X262029574Y-305177290D01*
X262029574Y-305177290D02*
X261458146Y-305748719D01*
X261458146Y-305748719D02*
X262077193Y-305748719D01*
%TO.C,U52*%
X335753384Y-203148719D02*
X335753384Y-203958242D01*
X335753384Y-203958242D02*
X335801003Y-204053480D01*
X335801003Y-204053480D02*
X335848622Y-204101100D01*
X335848622Y-204101100D02*
X335943860Y-204148719D01*
X335943860Y-204148719D02*
X336134336Y-204148719D01*
X336134336Y-204148719D02*
X336229574Y-204101100D01*
X336229574Y-204101100D02*
X336277193Y-204053480D01*
X336277193Y-204053480D02*
X336324812Y-203958242D01*
X336324812Y-203958242D02*
X336324812Y-203148719D01*
X337277193Y-203148719D02*
X336801003Y-203148719D01*
X336801003Y-203148719D02*
X336753384Y-203624909D01*
X336753384Y-203624909D02*
X336801003Y-203577290D01*
X336801003Y-203577290D02*
X336896241Y-203529671D01*
X336896241Y-203529671D02*
X337134336Y-203529671D01*
X337134336Y-203529671D02*
X337229574Y-203577290D01*
X337229574Y-203577290D02*
X337277193Y-203624909D01*
X337277193Y-203624909D02*
X337324812Y-203720147D01*
X337324812Y-203720147D02*
X337324812Y-203958242D01*
X337324812Y-203958242D02*
X337277193Y-204053480D01*
X337277193Y-204053480D02*
X337229574Y-204101100D01*
X337229574Y-204101100D02*
X337134336Y-204148719D01*
X337134336Y-204148719D02*
X336896241Y-204148719D01*
X336896241Y-204148719D02*
X336801003Y-204101100D01*
X336801003Y-204101100D02*
X336753384Y-204053480D01*
X337705765Y-203243957D02*
X337753384Y-203196338D01*
X337753384Y-203196338D02*
X337848622Y-203148719D01*
X337848622Y-203148719D02*
X338086717Y-203148719D01*
X338086717Y-203148719D02*
X338181955Y-203196338D01*
X338181955Y-203196338D02*
X338229574Y-203243957D01*
X338229574Y-203243957D02*
X338277193Y-203339195D01*
X338277193Y-203339195D02*
X338277193Y-203434433D01*
X338277193Y-203434433D02*
X338229574Y-203577290D01*
X338229574Y-203577290D02*
X337658146Y-204148719D01*
X337658146Y-204148719D02*
X338277193Y-204148719D01*
%TO.C,U37*%
X284953384Y-228548719D02*
X284953384Y-229358242D01*
X284953384Y-229358242D02*
X285001003Y-229453480D01*
X285001003Y-229453480D02*
X285048622Y-229501100D01*
X285048622Y-229501100D02*
X285143860Y-229548719D01*
X285143860Y-229548719D02*
X285334336Y-229548719D01*
X285334336Y-229548719D02*
X285429574Y-229501100D01*
X285429574Y-229501100D02*
X285477193Y-229453480D01*
X285477193Y-229453480D02*
X285524812Y-229358242D01*
X285524812Y-229358242D02*
X285524812Y-228548719D01*
X285905765Y-228548719D02*
X286524812Y-228548719D01*
X286524812Y-228548719D02*
X286191479Y-228929671D01*
X286191479Y-228929671D02*
X286334336Y-228929671D01*
X286334336Y-228929671D02*
X286429574Y-228977290D01*
X286429574Y-228977290D02*
X286477193Y-229024909D01*
X286477193Y-229024909D02*
X286524812Y-229120147D01*
X286524812Y-229120147D02*
X286524812Y-229358242D01*
X286524812Y-229358242D02*
X286477193Y-229453480D01*
X286477193Y-229453480D02*
X286429574Y-229501100D01*
X286429574Y-229501100D02*
X286334336Y-229548719D01*
X286334336Y-229548719D02*
X286048622Y-229548719D01*
X286048622Y-229548719D02*
X285953384Y-229501100D01*
X285953384Y-229501100D02*
X285905765Y-229453480D01*
X286858146Y-228548719D02*
X287524812Y-228548719D01*
X287524812Y-228548719D02*
X287096241Y-229548719D01*
%TO.C,U57*%
X361153384Y-126948719D02*
X361153384Y-127758242D01*
X361153384Y-127758242D02*
X361201003Y-127853480D01*
X361201003Y-127853480D02*
X361248622Y-127901100D01*
X361248622Y-127901100D02*
X361343860Y-127948719D01*
X361343860Y-127948719D02*
X361534336Y-127948719D01*
X361534336Y-127948719D02*
X361629574Y-127901100D01*
X361629574Y-127901100D02*
X361677193Y-127853480D01*
X361677193Y-127853480D02*
X361724812Y-127758242D01*
X361724812Y-127758242D02*
X361724812Y-126948719D01*
X362677193Y-126948719D02*
X362201003Y-126948719D01*
X362201003Y-126948719D02*
X362153384Y-127424909D01*
X362153384Y-127424909D02*
X362201003Y-127377290D01*
X362201003Y-127377290D02*
X362296241Y-127329671D01*
X362296241Y-127329671D02*
X362534336Y-127329671D01*
X362534336Y-127329671D02*
X362629574Y-127377290D01*
X362629574Y-127377290D02*
X362677193Y-127424909D01*
X362677193Y-127424909D02*
X362724812Y-127520147D01*
X362724812Y-127520147D02*
X362724812Y-127758242D01*
X362724812Y-127758242D02*
X362677193Y-127853480D01*
X362677193Y-127853480D02*
X362629574Y-127901100D01*
X362629574Y-127901100D02*
X362534336Y-127948719D01*
X362534336Y-127948719D02*
X362296241Y-127948719D01*
X362296241Y-127948719D02*
X362201003Y-127901100D01*
X362201003Y-127901100D02*
X362153384Y-127853480D01*
X363058146Y-126948719D02*
X363724812Y-126948719D01*
X363724812Y-126948719D02*
X363296241Y-127948719D01*
%TO.C,U2*%
X183829574Y-152348719D02*
X183829574Y-153158242D01*
X183829574Y-153158242D02*
X183877193Y-153253480D01*
X183877193Y-153253480D02*
X183924812Y-153301100D01*
X183924812Y-153301100D02*
X184020050Y-153348719D01*
X184020050Y-153348719D02*
X184210526Y-153348719D01*
X184210526Y-153348719D02*
X184305764Y-153301100D01*
X184305764Y-153301100D02*
X184353383Y-153253480D01*
X184353383Y-153253480D02*
X184401002Y-153158242D01*
X184401002Y-153158242D02*
X184401002Y-152348719D01*
X184829574Y-152443957D02*
X184877193Y-152396338D01*
X184877193Y-152396338D02*
X184972431Y-152348719D01*
X184972431Y-152348719D02*
X185210526Y-152348719D01*
X185210526Y-152348719D02*
X185305764Y-152396338D01*
X185305764Y-152396338D02*
X185353383Y-152443957D01*
X185353383Y-152443957D02*
X185401002Y-152539195D01*
X185401002Y-152539195D02*
X185401002Y-152634433D01*
X185401002Y-152634433D02*
X185353383Y-152777290D01*
X185353383Y-152777290D02*
X184781955Y-153348719D01*
X184781955Y-153348719D02*
X185401002Y-153348719D01*
%TO.C,U26*%
X259553384Y-152348719D02*
X259553384Y-153158242D01*
X259553384Y-153158242D02*
X259601003Y-153253480D01*
X259601003Y-153253480D02*
X259648622Y-153301100D01*
X259648622Y-153301100D02*
X259743860Y-153348719D01*
X259743860Y-153348719D02*
X259934336Y-153348719D01*
X259934336Y-153348719D02*
X260029574Y-153301100D01*
X260029574Y-153301100D02*
X260077193Y-153253480D01*
X260077193Y-153253480D02*
X260124812Y-153158242D01*
X260124812Y-153158242D02*
X260124812Y-152348719D01*
X260553384Y-152443957D02*
X260601003Y-152396338D01*
X260601003Y-152396338D02*
X260696241Y-152348719D01*
X260696241Y-152348719D02*
X260934336Y-152348719D01*
X260934336Y-152348719D02*
X261029574Y-152396338D01*
X261029574Y-152396338D02*
X261077193Y-152443957D01*
X261077193Y-152443957D02*
X261124812Y-152539195D01*
X261124812Y-152539195D02*
X261124812Y-152634433D01*
X261124812Y-152634433D02*
X261077193Y-152777290D01*
X261077193Y-152777290D02*
X260505765Y-153348719D01*
X260505765Y-153348719D02*
X261124812Y-153348719D01*
X261981955Y-152348719D02*
X261791479Y-152348719D01*
X261791479Y-152348719D02*
X261696241Y-152396338D01*
X261696241Y-152396338D02*
X261648622Y-152443957D01*
X261648622Y-152443957D02*
X261553384Y-152586814D01*
X261553384Y-152586814D02*
X261505765Y-152777290D01*
X261505765Y-152777290D02*
X261505765Y-153158242D01*
X261505765Y-153158242D02*
X261553384Y-153253480D01*
X261553384Y-153253480D02*
X261601003Y-153301100D01*
X261601003Y-153301100D02*
X261696241Y-153348719D01*
X261696241Y-153348719D02*
X261886717Y-153348719D01*
X261886717Y-153348719D02*
X261981955Y-153301100D01*
X261981955Y-153301100D02*
X262029574Y-153253480D01*
X262029574Y-153253480D02*
X262077193Y-153158242D01*
X262077193Y-153158242D02*
X262077193Y-152920147D01*
X262077193Y-152920147D02*
X262029574Y-152824909D01*
X262029574Y-152824909D02*
X261981955Y-152777290D01*
X261981955Y-152777290D02*
X261886717Y-152729671D01*
X261886717Y-152729671D02*
X261696241Y-152729671D01*
X261696241Y-152729671D02*
X261601003Y-152777290D01*
X261601003Y-152777290D02*
X261553384Y-152824909D01*
X261553384Y-152824909D02*
X261505765Y-152920147D01*
%TO.C,U5*%
X183829574Y-228548719D02*
X183829574Y-229358242D01*
X183829574Y-229358242D02*
X183877193Y-229453480D01*
X183877193Y-229453480D02*
X183924812Y-229501100D01*
X183924812Y-229501100D02*
X184020050Y-229548719D01*
X184020050Y-229548719D02*
X184210526Y-229548719D01*
X184210526Y-229548719D02*
X184305764Y-229501100D01*
X184305764Y-229501100D02*
X184353383Y-229453480D01*
X184353383Y-229453480D02*
X184401002Y-229358242D01*
X184401002Y-229358242D02*
X184401002Y-228548719D01*
X185353383Y-228548719D02*
X184877193Y-228548719D01*
X184877193Y-228548719D02*
X184829574Y-229024909D01*
X184829574Y-229024909D02*
X184877193Y-228977290D01*
X184877193Y-228977290D02*
X184972431Y-228929671D01*
X184972431Y-228929671D02*
X185210526Y-228929671D01*
X185210526Y-228929671D02*
X185305764Y-228977290D01*
X185305764Y-228977290D02*
X185353383Y-229024909D01*
X185353383Y-229024909D02*
X185401002Y-229120147D01*
X185401002Y-229120147D02*
X185401002Y-229358242D01*
X185401002Y-229358242D02*
X185353383Y-229453480D01*
X185353383Y-229453480D02*
X185305764Y-229501100D01*
X185305764Y-229501100D02*
X185210526Y-229548719D01*
X185210526Y-229548719D02*
X184972431Y-229548719D01*
X184972431Y-229548719D02*
X184877193Y-229501100D01*
X184877193Y-229501100D02*
X184829574Y-229453480D01*
%TO.C,U56*%
X335753384Y-304748719D02*
X335753384Y-305558242D01*
X335753384Y-305558242D02*
X335801003Y-305653480D01*
X335801003Y-305653480D02*
X335848622Y-305701100D01*
X335848622Y-305701100D02*
X335943860Y-305748719D01*
X335943860Y-305748719D02*
X336134336Y-305748719D01*
X336134336Y-305748719D02*
X336229574Y-305701100D01*
X336229574Y-305701100D02*
X336277193Y-305653480D01*
X336277193Y-305653480D02*
X336324812Y-305558242D01*
X336324812Y-305558242D02*
X336324812Y-304748719D01*
X337277193Y-304748719D02*
X336801003Y-304748719D01*
X336801003Y-304748719D02*
X336753384Y-305224909D01*
X336753384Y-305224909D02*
X336801003Y-305177290D01*
X336801003Y-305177290D02*
X336896241Y-305129671D01*
X336896241Y-305129671D02*
X337134336Y-305129671D01*
X337134336Y-305129671D02*
X337229574Y-305177290D01*
X337229574Y-305177290D02*
X337277193Y-305224909D01*
X337277193Y-305224909D02*
X337324812Y-305320147D01*
X337324812Y-305320147D02*
X337324812Y-305558242D01*
X337324812Y-305558242D02*
X337277193Y-305653480D01*
X337277193Y-305653480D02*
X337229574Y-305701100D01*
X337229574Y-305701100D02*
X337134336Y-305748719D01*
X337134336Y-305748719D02*
X336896241Y-305748719D01*
X336896241Y-305748719D02*
X336801003Y-305701100D01*
X336801003Y-305701100D02*
X336753384Y-305653480D01*
X338181955Y-304748719D02*
X337991479Y-304748719D01*
X337991479Y-304748719D02*
X337896241Y-304796338D01*
X337896241Y-304796338D02*
X337848622Y-304843957D01*
X337848622Y-304843957D02*
X337753384Y-304986814D01*
X337753384Y-304986814D02*
X337705765Y-305177290D01*
X337705765Y-305177290D02*
X337705765Y-305558242D01*
X337705765Y-305558242D02*
X337753384Y-305653480D01*
X337753384Y-305653480D02*
X337801003Y-305701100D01*
X337801003Y-305701100D02*
X337896241Y-305748719D01*
X337896241Y-305748719D02*
X338086717Y-305748719D01*
X338086717Y-305748719D02*
X338181955Y-305701100D01*
X338181955Y-305701100D02*
X338229574Y-305653480D01*
X338229574Y-305653480D02*
X338277193Y-305558242D01*
X338277193Y-305558242D02*
X338277193Y-305320147D01*
X338277193Y-305320147D02*
X338229574Y-305224909D01*
X338229574Y-305224909D02*
X338181955Y-305177290D01*
X338181955Y-305177290D02*
X338086717Y-305129671D01*
X338086717Y-305129671D02*
X337896241Y-305129671D01*
X337896241Y-305129671D02*
X337801003Y-305177290D01*
X337801003Y-305177290D02*
X337753384Y-305224909D01*
X337753384Y-305224909D02*
X337705765Y-305320147D01*
%TO.C,U58*%
X361153384Y-152348719D02*
X361153384Y-153158242D01*
X361153384Y-153158242D02*
X361201003Y-153253480D01*
X361201003Y-153253480D02*
X361248622Y-153301100D01*
X361248622Y-153301100D02*
X361343860Y-153348719D01*
X361343860Y-153348719D02*
X361534336Y-153348719D01*
X361534336Y-153348719D02*
X361629574Y-153301100D01*
X361629574Y-153301100D02*
X361677193Y-153253480D01*
X361677193Y-153253480D02*
X361724812Y-153158242D01*
X361724812Y-153158242D02*
X361724812Y-152348719D01*
X362677193Y-152348719D02*
X362201003Y-152348719D01*
X362201003Y-152348719D02*
X362153384Y-152824909D01*
X362153384Y-152824909D02*
X362201003Y-152777290D01*
X362201003Y-152777290D02*
X362296241Y-152729671D01*
X362296241Y-152729671D02*
X362534336Y-152729671D01*
X362534336Y-152729671D02*
X362629574Y-152777290D01*
X362629574Y-152777290D02*
X362677193Y-152824909D01*
X362677193Y-152824909D02*
X362724812Y-152920147D01*
X362724812Y-152920147D02*
X362724812Y-153158242D01*
X362724812Y-153158242D02*
X362677193Y-153253480D01*
X362677193Y-153253480D02*
X362629574Y-153301100D01*
X362629574Y-153301100D02*
X362534336Y-153348719D01*
X362534336Y-153348719D02*
X362296241Y-153348719D01*
X362296241Y-153348719D02*
X362201003Y-153301100D01*
X362201003Y-153301100D02*
X362153384Y-153253480D01*
X363296241Y-152777290D02*
X363201003Y-152729671D01*
X363201003Y-152729671D02*
X363153384Y-152682052D01*
X363153384Y-152682052D02*
X363105765Y-152586814D01*
X363105765Y-152586814D02*
X363105765Y-152539195D01*
X363105765Y-152539195D02*
X363153384Y-152443957D01*
X363153384Y-152443957D02*
X363201003Y-152396338D01*
X363201003Y-152396338D02*
X363296241Y-152348719D01*
X363296241Y-152348719D02*
X363486717Y-152348719D01*
X363486717Y-152348719D02*
X363581955Y-152396338D01*
X363581955Y-152396338D02*
X363629574Y-152443957D01*
X363629574Y-152443957D02*
X363677193Y-152539195D01*
X363677193Y-152539195D02*
X363677193Y-152586814D01*
X363677193Y-152586814D02*
X363629574Y-152682052D01*
X363629574Y-152682052D02*
X363581955Y-152729671D01*
X363581955Y-152729671D02*
X363486717Y-152777290D01*
X363486717Y-152777290D02*
X363296241Y-152777290D01*
X363296241Y-152777290D02*
X363201003Y-152824909D01*
X363201003Y-152824909D02*
X363153384Y-152872528D01*
X363153384Y-152872528D02*
X363105765Y-152967766D01*
X363105765Y-152967766D02*
X363105765Y-153158242D01*
X363105765Y-153158242D02*
X363153384Y-153253480D01*
X363153384Y-153253480D02*
X363201003Y-153301100D01*
X363201003Y-153301100D02*
X363296241Y-153348719D01*
X363296241Y-153348719D02*
X363486717Y-153348719D01*
X363486717Y-153348719D02*
X363581955Y-153301100D01*
X363581955Y-153301100D02*
X363629574Y-153253480D01*
X363629574Y-153253480D02*
X363677193Y-153158242D01*
X363677193Y-153158242D02*
X363677193Y-152967766D01*
X363677193Y-152967766D02*
X363629574Y-152872528D01*
X363629574Y-152872528D02*
X363581955Y-152824909D01*
X363581955Y-152824909D02*
X363486717Y-152777290D01*
%TO.C,U23*%
X234153384Y-279348719D02*
X234153384Y-280158242D01*
X234153384Y-280158242D02*
X234201003Y-280253480D01*
X234201003Y-280253480D02*
X234248622Y-280301100D01*
X234248622Y-280301100D02*
X234343860Y-280348719D01*
X234343860Y-280348719D02*
X234534336Y-280348719D01*
X234534336Y-280348719D02*
X234629574Y-280301100D01*
X234629574Y-280301100D02*
X234677193Y-280253480D01*
X234677193Y-280253480D02*
X234724812Y-280158242D01*
X234724812Y-280158242D02*
X234724812Y-279348719D01*
X235153384Y-279443957D02*
X235201003Y-279396338D01*
X235201003Y-279396338D02*
X235296241Y-279348719D01*
X235296241Y-279348719D02*
X235534336Y-279348719D01*
X235534336Y-279348719D02*
X235629574Y-279396338D01*
X235629574Y-279396338D02*
X235677193Y-279443957D01*
X235677193Y-279443957D02*
X235724812Y-279539195D01*
X235724812Y-279539195D02*
X235724812Y-279634433D01*
X235724812Y-279634433D02*
X235677193Y-279777290D01*
X235677193Y-279777290D02*
X235105765Y-280348719D01*
X235105765Y-280348719D02*
X235724812Y-280348719D01*
X236058146Y-279348719D02*
X236677193Y-279348719D01*
X236677193Y-279348719D02*
X236343860Y-279729671D01*
X236343860Y-279729671D02*
X236486717Y-279729671D01*
X236486717Y-279729671D02*
X236581955Y-279777290D01*
X236581955Y-279777290D02*
X236629574Y-279824909D01*
X236629574Y-279824909D02*
X236677193Y-279920147D01*
X236677193Y-279920147D02*
X236677193Y-280158242D01*
X236677193Y-280158242D02*
X236629574Y-280253480D01*
X236629574Y-280253480D02*
X236581955Y-280301100D01*
X236581955Y-280301100D02*
X236486717Y-280348719D01*
X236486717Y-280348719D02*
X236201003Y-280348719D01*
X236201003Y-280348719D02*
X236105765Y-280301100D01*
X236105765Y-280301100D02*
X236058146Y-280253480D01*
%TO.C,U35*%
X284953384Y-177748719D02*
X284953384Y-178558242D01*
X284953384Y-178558242D02*
X285001003Y-178653480D01*
X285001003Y-178653480D02*
X285048622Y-178701100D01*
X285048622Y-178701100D02*
X285143860Y-178748719D01*
X285143860Y-178748719D02*
X285334336Y-178748719D01*
X285334336Y-178748719D02*
X285429574Y-178701100D01*
X285429574Y-178701100D02*
X285477193Y-178653480D01*
X285477193Y-178653480D02*
X285524812Y-178558242D01*
X285524812Y-178558242D02*
X285524812Y-177748719D01*
X285905765Y-177748719D02*
X286524812Y-177748719D01*
X286524812Y-177748719D02*
X286191479Y-178129671D01*
X286191479Y-178129671D02*
X286334336Y-178129671D01*
X286334336Y-178129671D02*
X286429574Y-178177290D01*
X286429574Y-178177290D02*
X286477193Y-178224909D01*
X286477193Y-178224909D02*
X286524812Y-178320147D01*
X286524812Y-178320147D02*
X286524812Y-178558242D01*
X286524812Y-178558242D02*
X286477193Y-178653480D01*
X286477193Y-178653480D02*
X286429574Y-178701100D01*
X286429574Y-178701100D02*
X286334336Y-178748719D01*
X286334336Y-178748719D02*
X286048622Y-178748719D01*
X286048622Y-178748719D02*
X285953384Y-178701100D01*
X285953384Y-178701100D02*
X285905765Y-178653480D01*
X287429574Y-177748719D02*
X286953384Y-177748719D01*
X286953384Y-177748719D02*
X286905765Y-178224909D01*
X286905765Y-178224909D02*
X286953384Y-178177290D01*
X286953384Y-178177290D02*
X287048622Y-178129671D01*
X287048622Y-178129671D02*
X287286717Y-178129671D01*
X287286717Y-178129671D02*
X287381955Y-178177290D01*
X287381955Y-178177290D02*
X287429574Y-178224909D01*
X287429574Y-178224909D02*
X287477193Y-178320147D01*
X287477193Y-178320147D02*
X287477193Y-178558242D01*
X287477193Y-178558242D02*
X287429574Y-178653480D01*
X287429574Y-178653480D02*
X287381955Y-178701100D01*
X287381955Y-178701100D02*
X287286717Y-178748719D01*
X287286717Y-178748719D02*
X287048622Y-178748719D01*
X287048622Y-178748719D02*
X286953384Y-178701100D01*
X286953384Y-178701100D02*
X286905765Y-178653480D01*
%TO.C,U21*%
X234153384Y-228548719D02*
X234153384Y-229358242D01*
X234153384Y-229358242D02*
X234201003Y-229453480D01*
X234201003Y-229453480D02*
X234248622Y-229501100D01*
X234248622Y-229501100D02*
X234343860Y-229548719D01*
X234343860Y-229548719D02*
X234534336Y-229548719D01*
X234534336Y-229548719D02*
X234629574Y-229501100D01*
X234629574Y-229501100D02*
X234677193Y-229453480D01*
X234677193Y-229453480D02*
X234724812Y-229358242D01*
X234724812Y-229358242D02*
X234724812Y-228548719D01*
X235153384Y-228643957D02*
X235201003Y-228596338D01*
X235201003Y-228596338D02*
X235296241Y-228548719D01*
X235296241Y-228548719D02*
X235534336Y-228548719D01*
X235534336Y-228548719D02*
X235629574Y-228596338D01*
X235629574Y-228596338D02*
X235677193Y-228643957D01*
X235677193Y-228643957D02*
X235724812Y-228739195D01*
X235724812Y-228739195D02*
X235724812Y-228834433D01*
X235724812Y-228834433D02*
X235677193Y-228977290D01*
X235677193Y-228977290D02*
X235105765Y-229548719D01*
X235105765Y-229548719D02*
X235724812Y-229548719D01*
X236677193Y-229548719D02*
X236105765Y-229548719D01*
X236391479Y-229548719D02*
X236391479Y-228548719D01*
X236391479Y-228548719D02*
X236296241Y-228691576D01*
X236296241Y-228691576D02*
X236201003Y-228786814D01*
X236201003Y-228786814D02*
X236105765Y-228834433D01*
%TO.C,U27*%
X259553384Y-177748719D02*
X259553384Y-178558242D01*
X259553384Y-178558242D02*
X259601003Y-178653480D01*
X259601003Y-178653480D02*
X259648622Y-178701100D01*
X259648622Y-178701100D02*
X259743860Y-178748719D01*
X259743860Y-178748719D02*
X259934336Y-178748719D01*
X259934336Y-178748719D02*
X260029574Y-178701100D01*
X260029574Y-178701100D02*
X260077193Y-178653480D01*
X260077193Y-178653480D02*
X260124812Y-178558242D01*
X260124812Y-178558242D02*
X260124812Y-177748719D01*
X260553384Y-177843957D02*
X260601003Y-177796338D01*
X260601003Y-177796338D02*
X260696241Y-177748719D01*
X260696241Y-177748719D02*
X260934336Y-177748719D01*
X260934336Y-177748719D02*
X261029574Y-177796338D01*
X261029574Y-177796338D02*
X261077193Y-177843957D01*
X261077193Y-177843957D02*
X261124812Y-177939195D01*
X261124812Y-177939195D02*
X261124812Y-178034433D01*
X261124812Y-178034433D02*
X261077193Y-178177290D01*
X261077193Y-178177290D02*
X260505765Y-178748719D01*
X260505765Y-178748719D02*
X261124812Y-178748719D01*
X261458146Y-177748719D02*
X262124812Y-177748719D01*
X262124812Y-177748719D02*
X261696241Y-178748719D01*
%TO.C,U48*%
X310353384Y-304748719D02*
X310353384Y-305558242D01*
X310353384Y-305558242D02*
X310401003Y-305653480D01*
X310401003Y-305653480D02*
X310448622Y-305701100D01*
X310448622Y-305701100D02*
X310543860Y-305748719D01*
X310543860Y-305748719D02*
X310734336Y-305748719D01*
X310734336Y-305748719D02*
X310829574Y-305701100D01*
X310829574Y-305701100D02*
X310877193Y-305653480D01*
X310877193Y-305653480D02*
X310924812Y-305558242D01*
X310924812Y-305558242D02*
X310924812Y-304748719D01*
X311829574Y-305082052D02*
X311829574Y-305748719D01*
X311591479Y-304701100D02*
X311353384Y-305415385D01*
X311353384Y-305415385D02*
X311972431Y-305415385D01*
X312496241Y-305177290D02*
X312401003Y-305129671D01*
X312401003Y-305129671D02*
X312353384Y-305082052D01*
X312353384Y-305082052D02*
X312305765Y-304986814D01*
X312305765Y-304986814D02*
X312305765Y-304939195D01*
X312305765Y-304939195D02*
X312353384Y-304843957D01*
X312353384Y-304843957D02*
X312401003Y-304796338D01*
X312401003Y-304796338D02*
X312496241Y-304748719D01*
X312496241Y-304748719D02*
X312686717Y-304748719D01*
X312686717Y-304748719D02*
X312781955Y-304796338D01*
X312781955Y-304796338D02*
X312829574Y-304843957D01*
X312829574Y-304843957D02*
X312877193Y-304939195D01*
X312877193Y-304939195D02*
X312877193Y-304986814D01*
X312877193Y-304986814D02*
X312829574Y-305082052D01*
X312829574Y-305082052D02*
X312781955Y-305129671D01*
X312781955Y-305129671D02*
X312686717Y-305177290D01*
X312686717Y-305177290D02*
X312496241Y-305177290D01*
X312496241Y-305177290D02*
X312401003Y-305224909D01*
X312401003Y-305224909D02*
X312353384Y-305272528D01*
X312353384Y-305272528D02*
X312305765Y-305367766D01*
X312305765Y-305367766D02*
X312305765Y-305558242D01*
X312305765Y-305558242D02*
X312353384Y-305653480D01*
X312353384Y-305653480D02*
X312401003Y-305701100D01*
X312401003Y-305701100D02*
X312496241Y-305748719D01*
X312496241Y-305748719D02*
X312686717Y-305748719D01*
X312686717Y-305748719D02*
X312781955Y-305701100D01*
X312781955Y-305701100D02*
X312829574Y-305653480D01*
X312829574Y-305653480D02*
X312877193Y-305558242D01*
X312877193Y-305558242D02*
X312877193Y-305367766D01*
X312877193Y-305367766D02*
X312829574Y-305272528D01*
X312829574Y-305272528D02*
X312781955Y-305224909D01*
X312781955Y-305224909D02*
X312686717Y-305177290D01*
%TO.C,U38*%
X284953384Y-253948719D02*
X284953384Y-254758242D01*
X284953384Y-254758242D02*
X285001003Y-254853480D01*
X285001003Y-254853480D02*
X285048622Y-254901100D01*
X285048622Y-254901100D02*
X285143860Y-254948719D01*
X285143860Y-254948719D02*
X285334336Y-254948719D01*
X285334336Y-254948719D02*
X285429574Y-254901100D01*
X285429574Y-254901100D02*
X285477193Y-254853480D01*
X285477193Y-254853480D02*
X285524812Y-254758242D01*
X285524812Y-254758242D02*
X285524812Y-253948719D01*
X285905765Y-253948719D02*
X286524812Y-253948719D01*
X286524812Y-253948719D02*
X286191479Y-254329671D01*
X286191479Y-254329671D02*
X286334336Y-254329671D01*
X286334336Y-254329671D02*
X286429574Y-254377290D01*
X286429574Y-254377290D02*
X286477193Y-254424909D01*
X286477193Y-254424909D02*
X286524812Y-254520147D01*
X286524812Y-254520147D02*
X286524812Y-254758242D01*
X286524812Y-254758242D02*
X286477193Y-254853480D01*
X286477193Y-254853480D02*
X286429574Y-254901100D01*
X286429574Y-254901100D02*
X286334336Y-254948719D01*
X286334336Y-254948719D02*
X286048622Y-254948719D01*
X286048622Y-254948719D02*
X285953384Y-254901100D01*
X285953384Y-254901100D02*
X285905765Y-254853480D01*
X287096241Y-254377290D02*
X287001003Y-254329671D01*
X287001003Y-254329671D02*
X286953384Y-254282052D01*
X286953384Y-254282052D02*
X286905765Y-254186814D01*
X286905765Y-254186814D02*
X286905765Y-254139195D01*
X286905765Y-254139195D02*
X286953384Y-254043957D01*
X286953384Y-254043957D02*
X287001003Y-253996338D01*
X287001003Y-253996338D02*
X287096241Y-253948719D01*
X287096241Y-253948719D02*
X287286717Y-253948719D01*
X287286717Y-253948719D02*
X287381955Y-253996338D01*
X287381955Y-253996338D02*
X287429574Y-254043957D01*
X287429574Y-254043957D02*
X287477193Y-254139195D01*
X287477193Y-254139195D02*
X287477193Y-254186814D01*
X287477193Y-254186814D02*
X287429574Y-254282052D01*
X287429574Y-254282052D02*
X287381955Y-254329671D01*
X287381955Y-254329671D02*
X287286717Y-254377290D01*
X287286717Y-254377290D02*
X287096241Y-254377290D01*
X287096241Y-254377290D02*
X287001003Y-254424909D01*
X287001003Y-254424909D02*
X286953384Y-254472528D01*
X286953384Y-254472528D02*
X286905765Y-254567766D01*
X286905765Y-254567766D02*
X286905765Y-254758242D01*
X286905765Y-254758242D02*
X286953384Y-254853480D01*
X286953384Y-254853480D02*
X287001003Y-254901100D01*
X287001003Y-254901100D02*
X287096241Y-254948719D01*
X287096241Y-254948719D02*
X287286717Y-254948719D01*
X287286717Y-254948719D02*
X287381955Y-254901100D01*
X287381955Y-254901100D02*
X287429574Y-254853480D01*
X287429574Y-254853480D02*
X287477193Y-254758242D01*
X287477193Y-254758242D02*
X287477193Y-254567766D01*
X287477193Y-254567766D02*
X287429574Y-254472528D01*
X287429574Y-254472528D02*
X287381955Y-254424909D01*
X287381955Y-254424909D02*
X287286717Y-254377290D01*
%TO.C,U15*%
X208753384Y-279348719D02*
X208753384Y-280158242D01*
X208753384Y-280158242D02*
X208801003Y-280253480D01*
X208801003Y-280253480D02*
X208848622Y-280301100D01*
X208848622Y-280301100D02*
X208943860Y-280348719D01*
X208943860Y-280348719D02*
X209134336Y-280348719D01*
X209134336Y-280348719D02*
X209229574Y-280301100D01*
X209229574Y-280301100D02*
X209277193Y-280253480D01*
X209277193Y-280253480D02*
X209324812Y-280158242D01*
X209324812Y-280158242D02*
X209324812Y-279348719D01*
X210324812Y-280348719D02*
X209753384Y-280348719D01*
X210039098Y-280348719D02*
X210039098Y-279348719D01*
X210039098Y-279348719D02*
X209943860Y-279491576D01*
X209943860Y-279491576D02*
X209848622Y-279586814D01*
X209848622Y-279586814D02*
X209753384Y-279634433D01*
X211229574Y-279348719D02*
X210753384Y-279348719D01*
X210753384Y-279348719D02*
X210705765Y-279824909D01*
X210705765Y-279824909D02*
X210753384Y-279777290D01*
X210753384Y-279777290D02*
X210848622Y-279729671D01*
X210848622Y-279729671D02*
X211086717Y-279729671D01*
X211086717Y-279729671D02*
X211181955Y-279777290D01*
X211181955Y-279777290D02*
X211229574Y-279824909D01*
X211229574Y-279824909D02*
X211277193Y-279920147D01*
X211277193Y-279920147D02*
X211277193Y-280158242D01*
X211277193Y-280158242D02*
X211229574Y-280253480D01*
X211229574Y-280253480D02*
X211181955Y-280301100D01*
X211181955Y-280301100D02*
X211086717Y-280348719D01*
X211086717Y-280348719D02*
X210848622Y-280348719D01*
X210848622Y-280348719D02*
X210753384Y-280301100D01*
X210753384Y-280301100D02*
X210705765Y-280253480D01*
%TO.C,U44*%
X310353384Y-203148719D02*
X310353384Y-203958242D01*
X310353384Y-203958242D02*
X310401003Y-204053480D01*
X310401003Y-204053480D02*
X310448622Y-204101100D01*
X310448622Y-204101100D02*
X310543860Y-204148719D01*
X310543860Y-204148719D02*
X310734336Y-204148719D01*
X310734336Y-204148719D02*
X310829574Y-204101100D01*
X310829574Y-204101100D02*
X310877193Y-204053480D01*
X310877193Y-204053480D02*
X310924812Y-203958242D01*
X310924812Y-203958242D02*
X310924812Y-203148719D01*
X311829574Y-203482052D02*
X311829574Y-204148719D01*
X311591479Y-203101100D02*
X311353384Y-203815385D01*
X311353384Y-203815385D02*
X311972431Y-203815385D01*
X312781955Y-203482052D02*
X312781955Y-204148719D01*
X312543860Y-203101100D02*
X312305765Y-203815385D01*
X312305765Y-203815385D02*
X312924812Y-203815385D01*
%TO.C,U25*%
X259553384Y-126948719D02*
X259553384Y-127758242D01*
X259553384Y-127758242D02*
X259601003Y-127853480D01*
X259601003Y-127853480D02*
X259648622Y-127901100D01*
X259648622Y-127901100D02*
X259743860Y-127948719D01*
X259743860Y-127948719D02*
X259934336Y-127948719D01*
X259934336Y-127948719D02*
X260029574Y-127901100D01*
X260029574Y-127901100D02*
X260077193Y-127853480D01*
X260077193Y-127853480D02*
X260124812Y-127758242D01*
X260124812Y-127758242D02*
X260124812Y-126948719D01*
X260553384Y-127043957D02*
X260601003Y-126996338D01*
X260601003Y-126996338D02*
X260696241Y-126948719D01*
X260696241Y-126948719D02*
X260934336Y-126948719D01*
X260934336Y-126948719D02*
X261029574Y-126996338D01*
X261029574Y-126996338D02*
X261077193Y-127043957D01*
X261077193Y-127043957D02*
X261124812Y-127139195D01*
X261124812Y-127139195D02*
X261124812Y-127234433D01*
X261124812Y-127234433D02*
X261077193Y-127377290D01*
X261077193Y-127377290D02*
X260505765Y-127948719D01*
X260505765Y-127948719D02*
X261124812Y-127948719D01*
X262029574Y-126948719D02*
X261553384Y-126948719D01*
X261553384Y-126948719D02*
X261505765Y-127424909D01*
X261505765Y-127424909D02*
X261553384Y-127377290D01*
X261553384Y-127377290D02*
X261648622Y-127329671D01*
X261648622Y-127329671D02*
X261886717Y-127329671D01*
X261886717Y-127329671D02*
X261981955Y-127377290D01*
X261981955Y-127377290D02*
X262029574Y-127424909D01*
X262029574Y-127424909D02*
X262077193Y-127520147D01*
X262077193Y-127520147D02*
X262077193Y-127758242D01*
X262077193Y-127758242D02*
X262029574Y-127853480D01*
X262029574Y-127853480D02*
X261981955Y-127901100D01*
X261981955Y-127901100D02*
X261886717Y-127948719D01*
X261886717Y-127948719D02*
X261648622Y-127948719D01*
X261648622Y-127948719D02*
X261553384Y-127901100D01*
X261553384Y-127901100D02*
X261505765Y-127853480D01*
%TO.C,U59*%
X361153384Y-177748719D02*
X361153384Y-178558242D01*
X361153384Y-178558242D02*
X361201003Y-178653480D01*
X361201003Y-178653480D02*
X361248622Y-178701100D01*
X361248622Y-178701100D02*
X361343860Y-178748719D01*
X361343860Y-178748719D02*
X361534336Y-178748719D01*
X361534336Y-178748719D02*
X361629574Y-178701100D01*
X361629574Y-178701100D02*
X361677193Y-178653480D01*
X361677193Y-178653480D02*
X361724812Y-178558242D01*
X361724812Y-178558242D02*
X361724812Y-177748719D01*
X362677193Y-177748719D02*
X362201003Y-177748719D01*
X362201003Y-177748719D02*
X362153384Y-178224909D01*
X362153384Y-178224909D02*
X362201003Y-178177290D01*
X362201003Y-178177290D02*
X362296241Y-178129671D01*
X362296241Y-178129671D02*
X362534336Y-178129671D01*
X362534336Y-178129671D02*
X362629574Y-178177290D01*
X362629574Y-178177290D02*
X362677193Y-178224909D01*
X362677193Y-178224909D02*
X362724812Y-178320147D01*
X362724812Y-178320147D02*
X362724812Y-178558242D01*
X362724812Y-178558242D02*
X362677193Y-178653480D01*
X362677193Y-178653480D02*
X362629574Y-178701100D01*
X362629574Y-178701100D02*
X362534336Y-178748719D01*
X362534336Y-178748719D02*
X362296241Y-178748719D01*
X362296241Y-178748719D02*
X362201003Y-178701100D01*
X362201003Y-178701100D02*
X362153384Y-178653480D01*
X363201003Y-178748719D02*
X363391479Y-178748719D01*
X363391479Y-178748719D02*
X363486717Y-178701100D01*
X363486717Y-178701100D02*
X363534336Y-178653480D01*
X363534336Y-178653480D02*
X363629574Y-178510623D01*
X363629574Y-178510623D02*
X363677193Y-178320147D01*
X363677193Y-178320147D02*
X363677193Y-177939195D01*
X363677193Y-177939195D02*
X363629574Y-177843957D01*
X363629574Y-177843957D02*
X363581955Y-177796338D01*
X363581955Y-177796338D02*
X363486717Y-177748719D01*
X363486717Y-177748719D02*
X363296241Y-177748719D01*
X363296241Y-177748719D02*
X363201003Y-177796338D01*
X363201003Y-177796338D02*
X363153384Y-177843957D01*
X363153384Y-177843957D02*
X363105765Y-177939195D01*
X363105765Y-177939195D02*
X363105765Y-178177290D01*
X363105765Y-178177290D02*
X363153384Y-178272528D01*
X363153384Y-178272528D02*
X363201003Y-178320147D01*
X363201003Y-178320147D02*
X363296241Y-178367766D01*
X363296241Y-178367766D02*
X363486717Y-178367766D01*
X363486717Y-178367766D02*
X363581955Y-178320147D01*
X363581955Y-178320147D02*
X363629574Y-178272528D01*
X363629574Y-178272528D02*
X363677193Y-178177290D01*
%TO.C,U62*%
X361153384Y-253948719D02*
X361153384Y-254758242D01*
X361153384Y-254758242D02*
X361201003Y-254853480D01*
X361201003Y-254853480D02*
X361248622Y-254901100D01*
X361248622Y-254901100D02*
X361343860Y-254948719D01*
X361343860Y-254948719D02*
X361534336Y-254948719D01*
X361534336Y-254948719D02*
X361629574Y-254901100D01*
X361629574Y-254901100D02*
X361677193Y-254853480D01*
X361677193Y-254853480D02*
X361724812Y-254758242D01*
X361724812Y-254758242D02*
X361724812Y-253948719D01*
X362629574Y-253948719D02*
X362439098Y-253948719D01*
X362439098Y-253948719D02*
X362343860Y-253996338D01*
X362343860Y-253996338D02*
X362296241Y-254043957D01*
X362296241Y-254043957D02*
X362201003Y-254186814D01*
X362201003Y-254186814D02*
X362153384Y-254377290D01*
X362153384Y-254377290D02*
X362153384Y-254758242D01*
X362153384Y-254758242D02*
X362201003Y-254853480D01*
X362201003Y-254853480D02*
X362248622Y-254901100D01*
X362248622Y-254901100D02*
X362343860Y-254948719D01*
X362343860Y-254948719D02*
X362534336Y-254948719D01*
X362534336Y-254948719D02*
X362629574Y-254901100D01*
X362629574Y-254901100D02*
X362677193Y-254853480D01*
X362677193Y-254853480D02*
X362724812Y-254758242D01*
X362724812Y-254758242D02*
X362724812Y-254520147D01*
X362724812Y-254520147D02*
X362677193Y-254424909D01*
X362677193Y-254424909D02*
X362629574Y-254377290D01*
X362629574Y-254377290D02*
X362534336Y-254329671D01*
X362534336Y-254329671D02*
X362343860Y-254329671D01*
X362343860Y-254329671D02*
X362248622Y-254377290D01*
X362248622Y-254377290D02*
X362201003Y-254424909D01*
X362201003Y-254424909D02*
X362153384Y-254520147D01*
X363105765Y-254043957D02*
X363153384Y-253996338D01*
X363153384Y-253996338D02*
X363248622Y-253948719D01*
X363248622Y-253948719D02*
X363486717Y-253948719D01*
X363486717Y-253948719D02*
X363581955Y-253996338D01*
X363581955Y-253996338D02*
X363629574Y-254043957D01*
X363629574Y-254043957D02*
X363677193Y-254139195D01*
X363677193Y-254139195D02*
X363677193Y-254234433D01*
X363677193Y-254234433D02*
X363629574Y-254377290D01*
X363629574Y-254377290D02*
X363058146Y-254948719D01*
X363058146Y-254948719D02*
X363677193Y-254948719D01*
%TO.C,U36*%
X284953384Y-203148719D02*
X284953384Y-203958242D01*
X284953384Y-203958242D02*
X285001003Y-204053480D01*
X285001003Y-204053480D02*
X285048622Y-204101100D01*
X285048622Y-204101100D02*
X285143860Y-204148719D01*
X285143860Y-204148719D02*
X285334336Y-204148719D01*
X285334336Y-204148719D02*
X285429574Y-204101100D01*
X285429574Y-204101100D02*
X285477193Y-204053480D01*
X285477193Y-204053480D02*
X285524812Y-203958242D01*
X285524812Y-203958242D02*
X285524812Y-203148719D01*
X285905765Y-203148719D02*
X286524812Y-203148719D01*
X286524812Y-203148719D02*
X286191479Y-203529671D01*
X286191479Y-203529671D02*
X286334336Y-203529671D01*
X286334336Y-203529671D02*
X286429574Y-203577290D01*
X286429574Y-203577290D02*
X286477193Y-203624909D01*
X286477193Y-203624909D02*
X286524812Y-203720147D01*
X286524812Y-203720147D02*
X286524812Y-203958242D01*
X286524812Y-203958242D02*
X286477193Y-204053480D01*
X286477193Y-204053480D02*
X286429574Y-204101100D01*
X286429574Y-204101100D02*
X286334336Y-204148719D01*
X286334336Y-204148719D02*
X286048622Y-204148719D01*
X286048622Y-204148719D02*
X285953384Y-204101100D01*
X285953384Y-204101100D02*
X285905765Y-204053480D01*
X287381955Y-203148719D02*
X287191479Y-203148719D01*
X287191479Y-203148719D02*
X287096241Y-203196338D01*
X287096241Y-203196338D02*
X287048622Y-203243957D01*
X287048622Y-203243957D02*
X286953384Y-203386814D01*
X286953384Y-203386814D02*
X286905765Y-203577290D01*
X286905765Y-203577290D02*
X286905765Y-203958242D01*
X286905765Y-203958242D02*
X286953384Y-204053480D01*
X286953384Y-204053480D02*
X287001003Y-204101100D01*
X287001003Y-204101100D02*
X287096241Y-204148719D01*
X287096241Y-204148719D02*
X287286717Y-204148719D01*
X287286717Y-204148719D02*
X287381955Y-204101100D01*
X287381955Y-204101100D02*
X287429574Y-204053480D01*
X287429574Y-204053480D02*
X287477193Y-203958242D01*
X287477193Y-203958242D02*
X287477193Y-203720147D01*
X287477193Y-203720147D02*
X287429574Y-203624909D01*
X287429574Y-203624909D02*
X287381955Y-203577290D01*
X287381955Y-203577290D02*
X287286717Y-203529671D01*
X287286717Y-203529671D02*
X287096241Y-203529671D01*
X287096241Y-203529671D02*
X287001003Y-203577290D01*
X287001003Y-203577290D02*
X286953384Y-203624909D01*
X286953384Y-203624909D02*
X286905765Y-203720147D01*
%TO.C,U49*%
X335753384Y-126948719D02*
X335753384Y-127758242D01*
X335753384Y-127758242D02*
X335801003Y-127853480D01*
X335801003Y-127853480D02*
X335848622Y-127901100D01*
X335848622Y-127901100D02*
X335943860Y-127948719D01*
X335943860Y-127948719D02*
X336134336Y-127948719D01*
X336134336Y-127948719D02*
X336229574Y-127901100D01*
X336229574Y-127901100D02*
X336277193Y-127853480D01*
X336277193Y-127853480D02*
X336324812Y-127758242D01*
X336324812Y-127758242D02*
X336324812Y-126948719D01*
X337229574Y-127282052D02*
X337229574Y-127948719D01*
X336991479Y-126901100D02*
X336753384Y-127615385D01*
X336753384Y-127615385D02*
X337372431Y-127615385D01*
X337801003Y-127948719D02*
X337991479Y-127948719D01*
X337991479Y-127948719D02*
X338086717Y-127901100D01*
X338086717Y-127901100D02*
X338134336Y-127853480D01*
X338134336Y-127853480D02*
X338229574Y-127710623D01*
X338229574Y-127710623D02*
X338277193Y-127520147D01*
X338277193Y-127520147D02*
X338277193Y-127139195D01*
X338277193Y-127139195D02*
X338229574Y-127043957D01*
X338229574Y-127043957D02*
X338181955Y-126996338D01*
X338181955Y-126996338D02*
X338086717Y-126948719D01*
X338086717Y-126948719D02*
X337896241Y-126948719D01*
X337896241Y-126948719D02*
X337801003Y-126996338D01*
X337801003Y-126996338D02*
X337753384Y-127043957D01*
X337753384Y-127043957D02*
X337705765Y-127139195D01*
X337705765Y-127139195D02*
X337705765Y-127377290D01*
X337705765Y-127377290D02*
X337753384Y-127472528D01*
X337753384Y-127472528D02*
X337801003Y-127520147D01*
X337801003Y-127520147D02*
X337896241Y-127567766D01*
X337896241Y-127567766D02*
X338086717Y-127567766D01*
X338086717Y-127567766D02*
X338181955Y-127520147D01*
X338181955Y-127520147D02*
X338229574Y-127472528D01*
X338229574Y-127472528D02*
X338277193Y-127377290D01*
%TO.C,U60*%
X361153384Y-203148719D02*
X361153384Y-203958242D01*
X361153384Y-203958242D02*
X361201003Y-204053480D01*
X361201003Y-204053480D02*
X361248622Y-204101100D01*
X361248622Y-204101100D02*
X361343860Y-204148719D01*
X361343860Y-204148719D02*
X361534336Y-204148719D01*
X361534336Y-204148719D02*
X361629574Y-204101100D01*
X361629574Y-204101100D02*
X361677193Y-204053480D01*
X361677193Y-204053480D02*
X361724812Y-203958242D01*
X361724812Y-203958242D02*
X361724812Y-203148719D01*
X362629574Y-203148719D02*
X362439098Y-203148719D01*
X362439098Y-203148719D02*
X362343860Y-203196338D01*
X362343860Y-203196338D02*
X362296241Y-203243957D01*
X362296241Y-203243957D02*
X362201003Y-203386814D01*
X362201003Y-203386814D02*
X362153384Y-203577290D01*
X362153384Y-203577290D02*
X362153384Y-203958242D01*
X362153384Y-203958242D02*
X362201003Y-204053480D01*
X362201003Y-204053480D02*
X362248622Y-204101100D01*
X362248622Y-204101100D02*
X362343860Y-204148719D01*
X362343860Y-204148719D02*
X362534336Y-204148719D01*
X362534336Y-204148719D02*
X362629574Y-204101100D01*
X362629574Y-204101100D02*
X362677193Y-204053480D01*
X362677193Y-204053480D02*
X362724812Y-203958242D01*
X362724812Y-203958242D02*
X362724812Y-203720147D01*
X362724812Y-203720147D02*
X362677193Y-203624909D01*
X362677193Y-203624909D02*
X362629574Y-203577290D01*
X362629574Y-203577290D02*
X362534336Y-203529671D01*
X362534336Y-203529671D02*
X362343860Y-203529671D01*
X362343860Y-203529671D02*
X362248622Y-203577290D01*
X362248622Y-203577290D02*
X362201003Y-203624909D01*
X362201003Y-203624909D02*
X362153384Y-203720147D01*
X363343860Y-203148719D02*
X363439098Y-203148719D01*
X363439098Y-203148719D02*
X363534336Y-203196338D01*
X363534336Y-203196338D02*
X363581955Y-203243957D01*
X363581955Y-203243957D02*
X363629574Y-203339195D01*
X363629574Y-203339195D02*
X363677193Y-203529671D01*
X363677193Y-203529671D02*
X363677193Y-203767766D01*
X363677193Y-203767766D02*
X363629574Y-203958242D01*
X363629574Y-203958242D02*
X363581955Y-204053480D01*
X363581955Y-204053480D02*
X363534336Y-204101100D01*
X363534336Y-204101100D02*
X363439098Y-204148719D01*
X363439098Y-204148719D02*
X363343860Y-204148719D01*
X363343860Y-204148719D02*
X363248622Y-204101100D01*
X363248622Y-204101100D02*
X363201003Y-204053480D01*
X363201003Y-204053480D02*
X363153384Y-203958242D01*
X363153384Y-203958242D02*
X363105765Y-203767766D01*
X363105765Y-203767766D02*
X363105765Y-203529671D01*
X363105765Y-203529671D02*
X363153384Y-203339195D01*
X363153384Y-203339195D02*
X363201003Y-203243957D01*
X363201003Y-203243957D02*
X363248622Y-203196338D01*
X363248622Y-203196338D02*
X363343860Y-203148719D01*
%TO.C,U41*%
X310353384Y-126948719D02*
X310353384Y-127758242D01*
X310353384Y-127758242D02*
X310401003Y-127853480D01*
X310401003Y-127853480D02*
X310448622Y-127901100D01*
X310448622Y-127901100D02*
X310543860Y-127948719D01*
X310543860Y-127948719D02*
X310734336Y-127948719D01*
X310734336Y-127948719D02*
X310829574Y-127901100D01*
X310829574Y-127901100D02*
X310877193Y-127853480D01*
X310877193Y-127853480D02*
X310924812Y-127758242D01*
X310924812Y-127758242D02*
X310924812Y-126948719D01*
X311829574Y-127282052D02*
X311829574Y-127948719D01*
X311591479Y-126901100D02*
X311353384Y-127615385D01*
X311353384Y-127615385D02*
X311972431Y-127615385D01*
X312877193Y-127948719D02*
X312305765Y-127948719D01*
X312591479Y-127948719D02*
X312591479Y-126948719D01*
X312591479Y-126948719D02*
X312496241Y-127091576D01*
X312496241Y-127091576D02*
X312401003Y-127186814D01*
X312401003Y-127186814D02*
X312305765Y-127234433D01*
%TO.C,U4*%
X183829574Y-203148719D02*
X183829574Y-203958242D01*
X183829574Y-203958242D02*
X183877193Y-204053480D01*
X183877193Y-204053480D02*
X183924812Y-204101100D01*
X183924812Y-204101100D02*
X184020050Y-204148719D01*
X184020050Y-204148719D02*
X184210526Y-204148719D01*
X184210526Y-204148719D02*
X184305764Y-204101100D01*
X184305764Y-204101100D02*
X184353383Y-204053480D01*
X184353383Y-204053480D02*
X184401002Y-203958242D01*
X184401002Y-203958242D02*
X184401002Y-203148719D01*
X185305764Y-203482052D02*
X185305764Y-204148719D01*
X185067669Y-203101100D02*
X184829574Y-203815385D01*
X184829574Y-203815385D02*
X185448621Y-203815385D01*
%TO.C,U63*%
X361153384Y-279348719D02*
X361153384Y-280158242D01*
X361153384Y-280158242D02*
X361201003Y-280253480D01*
X361201003Y-280253480D02*
X361248622Y-280301100D01*
X361248622Y-280301100D02*
X361343860Y-280348719D01*
X361343860Y-280348719D02*
X361534336Y-280348719D01*
X361534336Y-280348719D02*
X361629574Y-280301100D01*
X361629574Y-280301100D02*
X361677193Y-280253480D01*
X361677193Y-280253480D02*
X361724812Y-280158242D01*
X361724812Y-280158242D02*
X361724812Y-279348719D01*
X362629574Y-279348719D02*
X362439098Y-279348719D01*
X362439098Y-279348719D02*
X362343860Y-279396338D01*
X362343860Y-279396338D02*
X362296241Y-279443957D01*
X362296241Y-279443957D02*
X362201003Y-279586814D01*
X362201003Y-279586814D02*
X362153384Y-279777290D01*
X362153384Y-279777290D02*
X362153384Y-280158242D01*
X362153384Y-280158242D02*
X362201003Y-280253480D01*
X362201003Y-280253480D02*
X362248622Y-280301100D01*
X362248622Y-280301100D02*
X362343860Y-280348719D01*
X362343860Y-280348719D02*
X362534336Y-280348719D01*
X362534336Y-280348719D02*
X362629574Y-280301100D01*
X362629574Y-280301100D02*
X362677193Y-280253480D01*
X362677193Y-280253480D02*
X362724812Y-280158242D01*
X362724812Y-280158242D02*
X362724812Y-279920147D01*
X362724812Y-279920147D02*
X362677193Y-279824909D01*
X362677193Y-279824909D02*
X362629574Y-279777290D01*
X362629574Y-279777290D02*
X362534336Y-279729671D01*
X362534336Y-279729671D02*
X362343860Y-279729671D01*
X362343860Y-279729671D02*
X362248622Y-279777290D01*
X362248622Y-279777290D02*
X362201003Y-279824909D01*
X362201003Y-279824909D02*
X362153384Y-279920147D01*
X363058146Y-279348719D02*
X363677193Y-279348719D01*
X363677193Y-279348719D02*
X363343860Y-279729671D01*
X363343860Y-279729671D02*
X363486717Y-279729671D01*
X363486717Y-279729671D02*
X363581955Y-279777290D01*
X363581955Y-279777290D02*
X363629574Y-279824909D01*
X363629574Y-279824909D02*
X363677193Y-279920147D01*
X363677193Y-279920147D02*
X363677193Y-280158242D01*
X363677193Y-280158242D02*
X363629574Y-280253480D01*
X363629574Y-280253480D02*
X363581955Y-280301100D01*
X363581955Y-280301100D02*
X363486717Y-280348719D01*
X363486717Y-280348719D02*
X363201003Y-280348719D01*
X363201003Y-280348719D02*
X363105765Y-280301100D01*
X363105765Y-280301100D02*
X363058146Y-280253480D01*
%TO.C,U28*%
X259553384Y-203148719D02*
X259553384Y-203958242D01*
X259553384Y-203958242D02*
X259601003Y-204053480D01*
X259601003Y-204053480D02*
X259648622Y-204101100D01*
X259648622Y-204101100D02*
X259743860Y-204148719D01*
X259743860Y-204148719D02*
X259934336Y-204148719D01*
X259934336Y-204148719D02*
X260029574Y-204101100D01*
X260029574Y-204101100D02*
X260077193Y-204053480D01*
X260077193Y-204053480D02*
X260124812Y-203958242D01*
X260124812Y-203958242D02*
X260124812Y-203148719D01*
X260553384Y-203243957D02*
X260601003Y-203196338D01*
X260601003Y-203196338D02*
X260696241Y-203148719D01*
X260696241Y-203148719D02*
X260934336Y-203148719D01*
X260934336Y-203148719D02*
X261029574Y-203196338D01*
X261029574Y-203196338D02*
X261077193Y-203243957D01*
X261077193Y-203243957D02*
X261124812Y-203339195D01*
X261124812Y-203339195D02*
X261124812Y-203434433D01*
X261124812Y-203434433D02*
X261077193Y-203577290D01*
X261077193Y-203577290D02*
X260505765Y-204148719D01*
X260505765Y-204148719D02*
X261124812Y-204148719D01*
X261696241Y-203577290D02*
X261601003Y-203529671D01*
X261601003Y-203529671D02*
X261553384Y-203482052D01*
X261553384Y-203482052D02*
X261505765Y-203386814D01*
X261505765Y-203386814D02*
X261505765Y-203339195D01*
X261505765Y-203339195D02*
X261553384Y-203243957D01*
X261553384Y-203243957D02*
X261601003Y-203196338D01*
X261601003Y-203196338D02*
X261696241Y-203148719D01*
X261696241Y-203148719D02*
X261886717Y-203148719D01*
X261886717Y-203148719D02*
X261981955Y-203196338D01*
X261981955Y-203196338D02*
X262029574Y-203243957D01*
X262029574Y-203243957D02*
X262077193Y-203339195D01*
X262077193Y-203339195D02*
X262077193Y-203386814D01*
X262077193Y-203386814D02*
X262029574Y-203482052D01*
X262029574Y-203482052D02*
X261981955Y-203529671D01*
X261981955Y-203529671D02*
X261886717Y-203577290D01*
X261886717Y-203577290D02*
X261696241Y-203577290D01*
X261696241Y-203577290D02*
X261601003Y-203624909D01*
X261601003Y-203624909D02*
X261553384Y-203672528D01*
X261553384Y-203672528D02*
X261505765Y-203767766D01*
X261505765Y-203767766D02*
X261505765Y-203958242D01*
X261505765Y-203958242D02*
X261553384Y-204053480D01*
X261553384Y-204053480D02*
X261601003Y-204101100D01*
X261601003Y-204101100D02*
X261696241Y-204148719D01*
X261696241Y-204148719D02*
X261886717Y-204148719D01*
X261886717Y-204148719D02*
X261981955Y-204101100D01*
X261981955Y-204101100D02*
X262029574Y-204053480D01*
X262029574Y-204053480D02*
X262077193Y-203958242D01*
X262077193Y-203958242D02*
X262077193Y-203767766D01*
X262077193Y-203767766D02*
X262029574Y-203672528D01*
X262029574Y-203672528D02*
X261981955Y-203624909D01*
X261981955Y-203624909D02*
X261886717Y-203577290D01*
%TO.C,U12*%
X208753384Y-203148719D02*
X208753384Y-203958242D01*
X208753384Y-203958242D02*
X208801003Y-204053480D01*
X208801003Y-204053480D02*
X208848622Y-204101100D01*
X208848622Y-204101100D02*
X208943860Y-204148719D01*
X208943860Y-204148719D02*
X209134336Y-204148719D01*
X209134336Y-204148719D02*
X209229574Y-204101100D01*
X209229574Y-204101100D02*
X209277193Y-204053480D01*
X209277193Y-204053480D02*
X209324812Y-203958242D01*
X209324812Y-203958242D02*
X209324812Y-203148719D01*
X210324812Y-204148719D02*
X209753384Y-204148719D01*
X210039098Y-204148719D02*
X210039098Y-203148719D01*
X210039098Y-203148719D02*
X209943860Y-203291576D01*
X209943860Y-203291576D02*
X209848622Y-203386814D01*
X209848622Y-203386814D02*
X209753384Y-203434433D01*
X210705765Y-203243957D02*
X210753384Y-203196338D01*
X210753384Y-203196338D02*
X210848622Y-203148719D01*
X210848622Y-203148719D02*
X211086717Y-203148719D01*
X211086717Y-203148719D02*
X211181955Y-203196338D01*
X211181955Y-203196338D02*
X211229574Y-203243957D01*
X211229574Y-203243957D02*
X211277193Y-203339195D01*
X211277193Y-203339195D02*
X211277193Y-203434433D01*
X211277193Y-203434433D02*
X211229574Y-203577290D01*
X211229574Y-203577290D02*
X210658146Y-204148719D01*
X210658146Y-204148719D02*
X211277193Y-204148719D01*
%TO.C,U29*%
X259553384Y-228548719D02*
X259553384Y-229358242D01*
X259553384Y-229358242D02*
X259601003Y-229453480D01*
X259601003Y-229453480D02*
X259648622Y-229501100D01*
X259648622Y-229501100D02*
X259743860Y-229548719D01*
X259743860Y-229548719D02*
X259934336Y-229548719D01*
X259934336Y-229548719D02*
X260029574Y-229501100D01*
X260029574Y-229501100D02*
X260077193Y-229453480D01*
X260077193Y-229453480D02*
X260124812Y-229358242D01*
X260124812Y-229358242D02*
X260124812Y-228548719D01*
X260553384Y-228643957D02*
X260601003Y-228596338D01*
X260601003Y-228596338D02*
X260696241Y-228548719D01*
X260696241Y-228548719D02*
X260934336Y-228548719D01*
X260934336Y-228548719D02*
X261029574Y-228596338D01*
X261029574Y-228596338D02*
X261077193Y-228643957D01*
X261077193Y-228643957D02*
X261124812Y-228739195D01*
X261124812Y-228739195D02*
X261124812Y-228834433D01*
X261124812Y-228834433D02*
X261077193Y-228977290D01*
X261077193Y-228977290D02*
X260505765Y-229548719D01*
X260505765Y-229548719D02*
X261124812Y-229548719D01*
X261601003Y-229548719D02*
X261791479Y-229548719D01*
X261791479Y-229548719D02*
X261886717Y-229501100D01*
X261886717Y-229501100D02*
X261934336Y-229453480D01*
X261934336Y-229453480D02*
X262029574Y-229310623D01*
X262029574Y-229310623D02*
X262077193Y-229120147D01*
X262077193Y-229120147D02*
X262077193Y-228739195D01*
X262077193Y-228739195D02*
X262029574Y-228643957D01*
X262029574Y-228643957D02*
X261981955Y-228596338D01*
X261981955Y-228596338D02*
X261886717Y-228548719D01*
X261886717Y-228548719D02*
X261696241Y-228548719D01*
X261696241Y-228548719D02*
X261601003Y-228596338D01*
X261601003Y-228596338D02*
X261553384Y-228643957D01*
X261553384Y-228643957D02*
X261505765Y-228739195D01*
X261505765Y-228739195D02*
X261505765Y-228977290D01*
X261505765Y-228977290D02*
X261553384Y-229072528D01*
X261553384Y-229072528D02*
X261601003Y-229120147D01*
X261601003Y-229120147D02*
X261696241Y-229167766D01*
X261696241Y-229167766D02*
X261886717Y-229167766D01*
X261886717Y-229167766D02*
X261981955Y-229120147D01*
X261981955Y-229120147D02*
X262029574Y-229072528D01*
X262029574Y-229072528D02*
X262077193Y-228977290D01*
%TO.C,U42*%
X310353384Y-152348719D02*
X310353384Y-153158242D01*
X310353384Y-153158242D02*
X310401003Y-153253480D01*
X310401003Y-153253480D02*
X310448622Y-153301100D01*
X310448622Y-153301100D02*
X310543860Y-153348719D01*
X310543860Y-153348719D02*
X310734336Y-153348719D01*
X310734336Y-153348719D02*
X310829574Y-153301100D01*
X310829574Y-153301100D02*
X310877193Y-153253480D01*
X310877193Y-153253480D02*
X310924812Y-153158242D01*
X310924812Y-153158242D02*
X310924812Y-152348719D01*
X311829574Y-152682052D02*
X311829574Y-153348719D01*
X311591479Y-152301100D02*
X311353384Y-153015385D01*
X311353384Y-153015385D02*
X311972431Y-153015385D01*
X312305765Y-152443957D02*
X312353384Y-152396338D01*
X312353384Y-152396338D02*
X312448622Y-152348719D01*
X312448622Y-152348719D02*
X312686717Y-152348719D01*
X312686717Y-152348719D02*
X312781955Y-152396338D01*
X312781955Y-152396338D02*
X312829574Y-152443957D01*
X312829574Y-152443957D02*
X312877193Y-152539195D01*
X312877193Y-152539195D02*
X312877193Y-152634433D01*
X312877193Y-152634433D02*
X312829574Y-152777290D01*
X312829574Y-152777290D02*
X312258146Y-153348719D01*
X312258146Y-153348719D02*
X312877193Y-153348719D01*
%TO.C,U24*%
X234153384Y-304748719D02*
X234153384Y-305558242D01*
X234153384Y-305558242D02*
X234201003Y-305653480D01*
X234201003Y-305653480D02*
X234248622Y-305701100D01*
X234248622Y-305701100D02*
X234343860Y-305748719D01*
X234343860Y-305748719D02*
X234534336Y-305748719D01*
X234534336Y-305748719D02*
X234629574Y-305701100D01*
X234629574Y-305701100D02*
X234677193Y-305653480D01*
X234677193Y-305653480D02*
X234724812Y-305558242D01*
X234724812Y-305558242D02*
X234724812Y-304748719D01*
X235153384Y-304843957D02*
X235201003Y-304796338D01*
X235201003Y-304796338D02*
X235296241Y-304748719D01*
X235296241Y-304748719D02*
X235534336Y-304748719D01*
X235534336Y-304748719D02*
X235629574Y-304796338D01*
X235629574Y-304796338D02*
X235677193Y-304843957D01*
X235677193Y-304843957D02*
X235724812Y-304939195D01*
X235724812Y-304939195D02*
X235724812Y-305034433D01*
X235724812Y-305034433D02*
X235677193Y-305177290D01*
X235677193Y-305177290D02*
X235105765Y-305748719D01*
X235105765Y-305748719D02*
X235724812Y-305748719D01*
X236581955Y-305082052D02*
X236581955Y-305748719D01*
X236343860Y-304701100D02*
X236105765Y-305415385D01*
X236105765Y-305415385D02*
X236724812Y-305415385D01*
%TO.C,U14*%
X208753384Y-253948719D02*
X208753384Y-254758242D01*
X208753384Y-254758242D02*
X208801003Y-254853480D01*
X208801003Y-254853480D02*
X208848622Y-254901100D01*
X208848622Y-254901100D02*
X208943860Y-254948719D01*
X208943860Y-254948719D02*
X209134336Y-254948719D01*
X209134336Y-254948719D02*
X209229574Y-254901100D01*
X209229574Y-254901100D02*
X209277193Y-254853480D01*
X209277193Y-254853480D02*
X209324812Y-254758242D01*
X209324812Y-254758242D02*
X209324812Y-253948719D01*
X210324812Y-254948719D02*
X209753384Y-254948719D01*
X210039098Y-254948719D02*
X210039098Y-253948719D01*
X210039098Y-253948719D02*
X209943860Y-254091576D01*
X209943860Y-254091576D02*
X209848622Y-254186814D01*
X209848622Y-254186814D02*
X209753384Y-254234433D01*
X211181955Y-254282052D02*
X211181955Y-254948719D01*
X210943860Y-253901100D02*
X210705765Y-254615385D01*
X210705765Y-254615385D02*
X211324812Y-254615385D01*
%TO.C,U64*%
X361153384Y-304748719D02*
X361153384Y-305558242D01*
X361153384Y-305558242D02*
X361201003Y-305653480D01*
X361201003Y-305653480D02*
X361248622Y-305701100D01*
X361248622Y-305701100D02*
X361343860Y-305748719D01*
X361343860Y-305748719D02*
X361534336Y-305748719D01*
X361534336Y-305748719D02*
X361629574Y-305701100D01*
X361629574Y-305701100D02*
X361677193Y-305653480D01*
X361677193Y-305653480D02*
X361724812Y-305558242D01*
X361724812Y-305558242D02*
X361724812Y-304748719D01*
X362629574Y-304748719D02*
X362439098Y-304748719D01*
X362439098Y-304748719D02*
X362343860Y-304796338D01*
X362343860Y-304796338D02*
X362296241Y-304843957D01*
X362296241Y-304843957D02*
X362201003Y-304986814D01*
X362201003Y-304986814D02*
X362153384Y-305177290D01*
X362153384Y-305177290D02*
X362153384Y-305558242D01*
X362153384Y-305558242D02*
X362201003Y-305653480D01*
X362201003Y-305653480D02*
X362248622Y-305701100D01*
X362248622Y-305701100D02*
X362343860Y-305748719D01*
X362343860Y-305748719D02*
X362534336Y-305748719D01*
X362534336Y-305748719D02*
X362629574Y-305701100D01*
X362629574Y-305701100D02*
X362677193Y-305653480D01*
X362677193Y-305653480D02*
X362724812Y-305558242D01*
X362724812Y-305558242D02*
X362724812Y-305320147D01*
X362724812Y-305320147D02*
X362677193Y-305224909D01*
X362677193Y-305224909D02*
X362629574Y-305177290D01*
X362629574Y-305177290D02*
X362534336Y-305129671D01*
X362534336Y-305129671D02*
X362343860Y-305129671D01*
X362343860Y-305129671D02*
X362248622Y-305177290D01*
X362248622Y-305177290D02*
X362201003Y-305224909D01*
X362201003Y-305224909D02*
X362153384Y-305320147D01*
X363581955Y-305082052D02*
X363581955Y-305748719D01*
X363343860Y-304701100D02*
X363105765Y-305415385D01*
X363105765Y-305415385D02*
X363724812Y-305415385D01*
%TO.C,U31*%
X259553384Y-279348719D02*
X259553384Y-280158242D01*
X259553384Y-280158242D02*
X259601003Y-280253480D01*
X259601003Y-280253480D02*
X259648622Y-280301100D01*
X259648622Y-280301100D02*
X259743860Y-280348719D01*
X259743860Y-280348719D02*
X259934336Y-280348719D01*
X259934336Y-280348719D02*
X260029574Y-280301100D01*
X260029574Y-280301100D02*
X260077193Y-280253480D01*
X260077193Y-280253480D02*
X260124812Y-280158242D01*
X260124812Y-280158242D02*
X260124812Y-279348719D01*
X260505765Y-279348719D02*
X261124812Y-279348719D01*
X261124812Y-279348719D02*
X260791479Y-279729671D01*
X260791479Y-279729671D02*
X260934336Y-279729671D01*
X260934336Y-279729671D02*
X261029574Y-279777290D01*
X261029574Y-279777290D02*
X261077193Y-279824909D01*
X261077193Y-279824909D02*
X261124812Y-279920147D01*
X261124812Y-279920147D02*
X261124812Y-280158242D01*
X261124812Y-280158242D02*
X261077193Y-280253480D01*
X261077193Y-280253480D02*
X261029574Y-280301100D01*
X261029574Y-280301100D02*
X260934336Y-280348719D01*
X260934336Y-280348719D02*
X260648622Y-280348719D01*
X260648622Y-280348719D02*
X260553384Y-280301100D01*
X260553384Y-280301100D02*
X260505765Y-280253480D01*
X262077193Y-280348719D02*
X261505765Y-280348719D01*
X261791479Y-280348719D02*
X261791479Y-279348719D01*
X261791479Y-279348719D02*
X261696241Y-279491576D01*
X261696241Y-279491576D02*
X261601003Y-279586814D01*
X261601003Y-279586814D02*
X261505765Y-279634433D01*
%TO.C,U20*%
X234153384Y-203148719D02*
X234153384Y-203958242D01*
X234153384Y-203958242D02*
X234201003Y-204053480D01*
X234201003Y-204053480D02*
X234248622Y-204101100D01*
X234248622Y-204101100D02*
X234343860Y-204148719D01*
X234343860Y-204148719D02*
X234534336Y-204148719D01*
X234534336Y-204148719D02*
X234629574Y-204101100D01*
X234629574Y-204101100D02*
X234677193Y-204053480D01*
X234677193Y-204053480D02*
X234724812Y-203958242D01*
X234724812Y-203958242D02*
X234724812Y-203148719D01*
X235153384Y-203243957D02*
X235201003Y-203196338D01*
X235201003Y-203196338D02*
X235296241Y-203148719D01*
X235296241Y-203148719D02*
X235534336Y-203148719D01*
X235534336Y-203148719D02*
X235629574Y-203196338D01*
X235629574Y-203196338D02*
X235677193Y-203243957D01*
X235677193Y-203243957D02*
X235724812Y-203339195D01*
X235724812Y-203339195D02*
X235724812Y-203434433D01*
X235724812Y-203434433D02*
X235677193Y-203577290D01*
X235677193Y-203577290D02*
X235105765Y-204148719D01*
X235105765Y-204148719D02*
X235724812Y-204148719D01*
X236343860Y-203148719D02*
X236439098Y-203148719D01*
X236439098Y-203148719D02*
X236534336Y-203196338D01*
X236534336Y-203196338D02*
X236581955Y-203243957D01*
X236581955Y-203243957D02*
X236629574Y-203339195D01*
X236629574Y-203339195D02*
X236677193Y-203529671D01*
X236677193Y-203529671D02*
X236677193Y-203767766D01*
X236677193Y-203767766D02*
X236629574Y-203958242D01*
X236629574Y-203958242D02*
X236581955Y-204053480D01*
X236581955Y-204053480D02*
X236534336Y-204101100D01*
X236534336Y-204101100D02*
X236439098Y-204148719D01*
X236439098Y-204148719D02*
X236343860Y-204148719D01*
X236343860Y-204148719D02*
X236248622Y-204101100D01*
X236248622Y-204101100D02*
X236201003Y-204053480D01*
X236201003Y-204053480D02*
X236153384Y-203958242D01*
X236153384Y-203958242D02*
X236105765Y-203767766D01*
X236105765Y-203767766D02*
X236105765Y-203529671D01*
X236105765Y-203529671D02*
X236153384Y-203339195D01*
X236153384Y-203339195D02*
X236201003Y-203243957D01*
X236201003Y-203243957D02*
X236248622Y-203196338D01*
X236248622Y-203196338D02*
X236343860Y-203148719D01*
%TO.C,U55*%
X335753384Y-279348719D02*
X335753384Y-280158242D01*
X335753384Y-280158242D02*
X335801003Y-280253480D01*
X335801003Y-280253480D02*
X335848622Y-280301100D01*
X335848622Y-280301100D02*
X335943860Y-280348719D01*
X335943860Y-280348719D02*
X336134336Y-280348719D01*
X336134336Y-280348719D02*
X336229574Y-280301100D01*
X336229574Y-280301100D02*
X336277193Y-280253480D01*
X336277193Y-280253480D02*
X336324812Y-280158242D01*
X336324812Y-280158242D02*
X336324812Y-279348719D01*
X337277193Y-279348719D02*
X336801003Y-279348719D01*
X336801003Y-279348719D02*
X336753384Y-279824909D01*
X336753384Y-279824909D02*
X336801003Y-279777290D01*
X336801003Y-279777290D02*
X336896241Y-279729671D01*
X336896241Y-279729671D02*
X337134336Y-279729671D01*
X337134336Y-279729671D02*
X337229574Y-279777290D01*
X337229574Y-279777290D02*
X337277193Y-279824909D01*
X337277193Y-279824909D02*
X337324812Y-279920147D01*
X337324812Y-279920147D02*
X337324812Y-280158242D01*
X337324812Y-280158242D02*
X337277193Y-280253480D01*
X337277193Y-280253480D02*
X337229574Y-280301100D01*
X337229574Y-280301100D02*
X337134336Y-280348719D01*
X337134336Y-280348719D02*
X336896241Y-280348719D01*
X336896241Y-280348719D02*
X336801003Y-280301100D01*
X336801003Y-280301100D02*
X336753384Y-280253480D01*
X338229574Y-279348719D02*
X337753384Y-279348719D01*
X337753384Y-279348719D02*
X337705765Y-279824909D01*
X337705765Y-279824909D02*
X337753384Y-279777290D01*
X337753384Y-279777290D02*
X337848622Y-279729671D01*
X337848622Y-279729671D02*
X338086717Y-279729671D01*
X338086717Y-279729671D02*
X338181955Y-279777290D01*
X338181955Y-279777290D02*
X338229574Y-279824909D01*
X338229574Y-279824909D02*
X338277193Y-279920147D01*
X338277193Y-279920147D02*
X338277193Y-280158242D01*
X338277193Y-280158242D02*
X338229574Y-280253480D01*
X338229574Y-280253480D02*
X338181955Y-280301100D01*
X338181955Y-280301100D02*
X338086717Y-280348719D01*
X338086717Y-280348719D02*
X337848622Y-280348719D01*
X337848622Y-280348719D02*
X337753384Y-280301100D01*
X337753384Y-280301100D02*
X337705765Y-280253480D01*
%TO.C,U9*%
X209229574Y-126948719D02*
X209229574Y-127758242D01*
X209229574Y-127758242D02*
X209277193Y-127853480D01*
X209277193Y-127853480D02*
X209324812Y-127901100D01*
X209324812Y-127901100D02*
X209420050Y-127948719D01*
X209420050Y-127948719D02*
X209610526Y-127948719D01*
X209610526Y-127948719D02*
X209705764Y-127901100D01*
X209705764Y-127901100D02*
X209753383Y-127853480D01*
X209753383Y-127853480D02*
X209801002Y-127758242D01*
X209801002Y-127758242D02*
X209801002Y-126948719D01*
X210324812Y-127948719D02*
X210515288Y-127948719D01*
X210515288Y-127948719D02*
X210610526Y-127901100D01*
X210610526Y-127901100D02*
X210658145Y-127853480D01*
X210658145Y-127853480D02*
X210753383Y-127710623D01*
X210753383Y-127710623D02*
X210801002Y-127520147D01*
X210801002Y-127520147D02*
X210801002Y-127139195D01*
X210801002Y-127139195D02*
X210753383Y-127043957D01*
X210753383Y-127043957D02*
X210705764Y-126996338D01*
X210705764Y-126996338D02*
X210610526Y-126948719D01*
X210610526Y-126948719D02*
X210420050Y-126948719D01*
X210420050Y-126948719D02*
X210324812Y-126996338D01*
X210324812Y-126996338D02*
X210277193Y-127043957D01*
X210277193Y-127043957D02*
X210229574Y-127139195D01*
X210229574Y-127139195D02*
X210229574Y-127377290D01*
X210229574Y-127377290D02*
X210277193Y-127472528D01*
X210277193Y-127472528D02*
X210324812Y-127520147D01*
X210324812Y-127520147D02*
X210420050Y-127567766D01*
X210420050Y-127567766D02*
X210610526Y-127567766D01*
X210610526Y-127567766D02*
X210705764Y-127520147D01*
X210705764Y-127520147D02*
X210753383Y-127472528D01*
X210753383Y-127472528D02*
X210801002Y-127377290D01*
%TO.C,U46*%
X310353384Y-253948719D02*
X310353384Y-254758242D01*
X310353384Y-254758242D02*
X310401003Y-254853480D01*
X310401003Y-254853480D02*
X310448622Y-254901100D01*
X310448622Y-254901100D02*
X310543860Y-254948719D01*
X310543860Y-254948719D02*
X310734336Y-254948719D01*
X310734336Y-254948719D02*
X310829574Y-254901100D01*
X310829574Y-254901100D02*
X310877193Y-254853480D01*
X310877193Y-254853480D02*
X310924812Y-254758242D01*
X310924812Y-254758242D02*
X310924812Y-253948719D01*
X311829574Y-254282052D02*
X311829574Y-254948719D01*
X311591479Y-253901100D02*
X311353384Y-254615385D01*
X311353384Y-254615385D02*
X311972431Y-254615385D01*
X312781955Y-253948719D02*
X312591479Y-253948719D01*
X312591479Y-253948719D02*
X312496241Y-253996338D01*
X312496241Y-253996338D02*
X312448622Y-254043957D01*
X312448622Y-254043957D02*
X312353384Y-254186814D01*
X312353384Y-254186814D02*
X312305765Y-254377290D01*
X312305765Y-254377290D02*
X312305765Y-254758242D01*
X312305765Y-254758242D02*
X312353384Y-254853480D01*
X312353384Y-254853480D02*
X312401003Y-254901100D01*
X312401003Y-254901100D02*
X312496241Y-254948719D01*
X312496241Y-254948719D02*
X312686717Y-254948719D01*
X312686717Y-254948719D02*
X312781955Y-254901100D01*
X312781955Y-254901100D02*
X312829574Y-254853480D01*
X312829574Y-254853480D02*
X312877193Y-254758242D01*
X312877193Y-254758242D02*
X312877193Y-254520147D01*
X312877193Y-254520147D02*
X312829574Y-254424909D01*
X312829574Y-254424909D02*
X312781955Y-254377290D01*
X312781955Y-254377290D02*
X312686717Y-254329671D01*
X312686717Y-254329671D02*
X312496241Y-254329671D01*
X312496241Y-254329671D02*
X312401003Y-254377290D01*
X312401003Y-254377290D02*
X312353384Y-254424909D01*
X312353384Y-254424909D02*
X312305765Y-254520147D01*
%TO.C,U54*%
X335753384Y-253948719D02*
X335753384Y-254758242D01*
X335753384Y-254758242D02*
X335801003Y-254853480D01*
X335801003Y-254853480D02*
X335848622Y-254901100D01*
X335848622Y-254901100D02*
X335943860Y-254948719D01*
X335943860Y-254948719D02*
X336134336Y-254948719D01*
X336134336Y-254948719D02*
X336229574Y-254901100D01*
X336229574Y-254901100D02*
X336277193Y-254853480D01*
X336277193Y-254853480D02*
X336324812Y-254758242D01*
X336324812Y-254758242D02*
X336324812Y-253948719D01*
X337277193Y-253948719D02*
X336801003Y-253948719D01*
X336801003Y-253948719D02*
X336753384Y-254424909D01*
X336753384Y-254424909D02*
X336801003Y-254377290D01*
X336801003Y-254377290D02*
X336896241Y-254329671D01*
X336896241Y-254329671D02*
X337134336Y-254329671D01*
X337134336Y-254329671D02*
X337229574Y-254377290D01*
X337229574Y-254377290D02*
X337277193Y-254424909D01*
X337277193Y-254424909D02*
X337324812Y-254520147D01*
X337324812Y-254520147D02*
X337324812Y-254758242D01*
X337324812Y-254758242D02*
X337277193Y-254853480D01*
X337277193Y-254853480D02*
X337229574Y-254901100D01*
X337229574Y-254901100D02*
X337134336Y-254948719D01*
X337134336Y-254948719D02*
X336896241Y-254948719D01*
X336896241Y-254948719D02*
X336801003Y-254901100D01*
X336801003Y-254901100D02*
X336753384Y-254853480D01*
X338181955Y-254282052D02*
X338181955Y-254948719D01*
X337943860Y-253901100D02*
X337705765Y-254615385D01*
X337705765Y-254615385D02*
X338324812Y-254615385D01*
%TO.C,U1*%
X183829574Y-126948719D02*
X183829574Y-127758242D01*
X183829574Y-127758242D02*
X183877193Y-127853480D01*
X183877193Y-127853480D02*
X183924812Y-127901100D01*
X183924812Y-127901100D02*
X184020050Y-127948719D01*
X184020050Y-127948719D02*
X184210526Y-127948719D01*
X184210526Y-127948719D02*
X184305764Y-127901100D01*
X184305764Y-127901100D02*
X184353383Y-127853480D01*
X184353383Y-127853480D02*
X184401002Y-127758242D01*
X184401002Y-127758242D02*
X184401002Y-126948719D01*
X185401002Y-127948719D02*
X184829574Y-127948719D01*
X185115288Y-127948719D02*
X185115288Y-126948719D01*
X185115288Y-126948719D02*
X185020050Y-127091576D01*
X185020050Y-127091576D02*
X184924812Y-127186814D01*
X184924812Y-127186814D02*
X184829574Y-127234433D01*
%TO.C,U6*%
X183829574Y-253948719D02*
X183829574Y-254758242D01*
X183829574Y-254758242D02*
X183877193Y-254853480D01*
X183877193Y-254853480D02*
X183924812Y-254901100D01*
X183924812Y-254901100D02*
X184020050Y-254948719D01*
X184020050Y-254948719D02*
X184210526Y-254948719D01*
X184210526Y-254948719D02*
X184305764Y-254901100D01*
X184305764Y-254901100D02*
X184353383Y-254853480D01*
X184353383Y-254853480D02*
X184401002Y-254758242D01*
X184401002Y-254758242D02*
X184401002Y-253948719D01*
X185305764Y-253948719D02*
X185115288Y-253948719D01*
X185115288Y-253948719D02*
X185020050Y-253996338D01*
X185020050Y-253996338D02*
X184972431Y-254043957D01*
X184972431Y-254043957D02*
X184877193Y-254186814D01*
X184877193Y-254186814D02*
X184829574Y-254377290D01*
X184829574Y-254377290D02*
X184829574Y-254758242D01*
X184829574Y-254758242D02*
X184877193Y-254853480D01*
X184877193Y-254853480D02*
X184924812Y-254901100D01*
X184924812Y-254901100D02*
X185020050Y-254948719D01*
X185020050Y-254948719D02*
X185210526Y-254948719D01*
X185210526Y-254948719D02*
X185305764Y-254901100D01*
X185305764Y-254901100D02*
X185353383Y-254853480D01*
X185353383Y-254853480D02*
X185401002Y-254758242D01*
X185401002Y-254758242D02*
X185401002Y-254520147D01*
X185401002Y-254520147D02*
X185353383Y-254424909D01*
X185353383Y-254424909D02*
X185305764Y-254377290D01*
X185305764Y-254377290D02*
X185210526Y-254329671D01*
X185210526Y-254329671D02*
X185020050Y-254329671D01*
X185020050Y-254329671D02*
X184924812Y-254377290D01*
X184924812Y-254377290D02*
X184877193Y-254424909D01*
X184877193Y-254424909D02*
X184829574Y-254520147D01*
%TO.C,U39*%
X284953384Y-279348719D02*
X284953384Y-280158242D01*
X284953384Y-280158242D02*
X285001003Y-280253480D01*
X285001003Y-280253480D02*
X285048622Y-280301100D01*
X285048622Y-280301100D02*
X285143860Y-280348719D01*
X285143860Y-280348719D02*
X285334336Y-280348719D01*
X285334336Y-280348719D02*
X285429574Y-280301100D01*
X285429574Y-280301100D02*
X285477193Y-280253480D01*
X285477193Y-280253480D02*
X285524812Y-280158242D01*
X285524812Y-280158242D02*
X285524812Y-279348719D01*
X285905765Y-279348719D02*
X286524812Y-279348719D01*
X286524812Y-279348719D02*
X286191479Y-279729671D01*
X286191479Y-279729671D02*
X286334336Y-279729671D01*
X286334336Y-279729671D02*
X286429574Y-279777290D01*
X286429574Y-279777290D02*
X286477193Y-279824909D01*
X286477193Y-279824909D02*
X286524812Y-279920147D01*
X286524812Y-279920147D02*
X286524812Y-280158242D01*
X286524812Y-280158242D02*
X286477193Y-280253480D01*
X286477193Y-280253480D02*
X286429574Y-280301100D01*
X286429574Y-280301100D02*
X286334336Y-280348719D01*
X286334336Y-280348719D02*
X286048622Y-280348719D01*
X286048622Y-280348719D02*
X285953384Y-280301100D01*
X285953384Y-280301100D02*
X285905765Y-280253480D01*
X287001003Y-280348719D02*
X287191479Y-280348719D01*
X287191479Y-280348719D02*
X287286717Y-280301100D01*
X287286717Y-280301100D02*
X287334336Y-280253480D01*
X287334336Y-280253480D02*
X287429574Y-280110623D01*
X287429574Y-280110623D02*
X287477193Y-279920147D01*
X287477193Y-279920147D02*
X287477193Y-279539195D01*
X287477193Y-279539195D02*
X287429574Y-279443957D01*
X287429574Y-279443957D02*
X287381955Y-279396338D01*
X287381955Y-279396338D02*
X287286717Y-279348719D01*
X287286717Y-279348719D02*
X287096241Y-279348719D01*
X287096241Y-279348719D02*
X287001003Y-279396338D01*
X287001003Y-279396338D02*
X286953384Y-279443957D01*
X286953384Y-279443957D02*
X286905765Y-279539195D01*
X286905765Y-279539195D02*
X286905765Y-279777290D01*
X286905765Y-279777290D02*
X286953384Y-279872528D01*
X286953384Y-279872528D02*
X287001003Y-279920147D01*
X287001003Y-279920147D02*
X287096241Y-279967766D01*
X287096241Y-279967766D02*
X287286717Y-279967766D01*
X287286717Y-279967766D02*
X287381955Y-279920147D01*
X287381955Y-279920147D02*
X287429574Y-279872528D01*
X287429574Y-279872528D02*
X287477193Y-279777290D01*
%TO.C,U11*%
X208753384Y-177748719D02*
X208753384Y-178558242D01*
X208753384Y-178558242D02*
X208801003Y-178653480D01*
X208801003Y-178653480D02*
X208848622Y-178701100D01*
X208848622Y-178701100D02*
X208943860Y-178748719D01*
X208943860Y-178748719D02*
X209134336Y-178748719D01*
X209134336Y-178748719D02*
X209229574Y-178701100D01*
X209229574Y-178701100D02*
X209277193Y-178653480D01*
X209277193Y-178653480D02*
X209324812Y-178558242D01*
X209324812Y-178558242D02*
X209324812Y-177748719D01*
X210324812Y-178748719D02*
X209753384Y-178748719D01*
X210039098Y-178748719D02*
X210039098Y-177748719D01*
X210039098Y-177748719D02*
X209943860Y-177891576D01*
X209943860Y-177891576D02*
X209848622Y-177986814D01*
X209848622Y-177986814D02*
X209753384Y-178034433D01*
X211277193Y-178748719D02*
X210705765Y-178748719D01*
X210991479Y-178748719D02*
X210991479Y-177748719D01*
X210991479Y-177748719D02*
X210896241Y-177891576D01*
X210896241Y-177891576D02*
X210801003Y-177986814D01*
X210801003Y-177986814D02*
X210705765Y-178034433D01*
%TO.C,U47*%
X310353384Y-279348719D02*
X310353384Y-280158242D01*
X310353384Y-280158242D02*
X310401003Y-280253480D01*
X310401003Y-280253480D02*
X310448622Y-280301100D01*
X310448622Y-280301100D02*
X310543860Y-280348719D01*
X310543860Y-280348719D02*
X310734336Y-280348719D01*
X310734336Y-280348719D02*
X310829574Y-280301100D01*
X310829574Y-280301100D02*
X310877193Y-280253480D01*
X310877193Y-280253480D02*
X310924812Y-280158242D01*
X310924812Y-280158242D02*
X310924812Y-279348719D01*
X311829574Y-279682052D02*
X311829574Y-280348719D01*
X311591479Y-279301100D02*
X311353384Y-280015385D01*
X311353384Y-280015385D02*
X311972431Y-280015385D01*
X312258146Y-279348719D02*
X312924812Y-279348719D01*
X312924812Y-279348719D02*
X312496241Y-280348719D01*
%TO.C,U16*%
X208753384Y-304748719D02*
X208753384Y-305558242D01*
X208753384Y-305558242D02*
X208801003Y-305653480D01*
X208801003Y-305653480D02*
X208848622Y-305701100D01*
X208848622Y-305701100D02*
X208943860Y-305748719D01*
X208943860Y-305748719D02*
X209134336Y-305748719D01*
X209134336Y-305748719D02*
X209229574Y-305701100D01*
X209229574Y-305701100D02*
X209277193Y-305653480D01*
X209277193Y-305653480D02*
X209324812Y-305558242D01*
X209324812Y-305558242D02*
X209324812Y-304748719D01*
X210324812Y-305748719D02*
X209753384Y-305748719D01*
X210039098Y-305748719D02*
X210039098Y-304748719D01*
X210039098Y-304748719D02*
X209943860Y-304891576D01*
X209943860Y-304891576D02*
X209848622Y-304986814D01*
X209848622Y-304986814D02*
X209753384Y-305034433D01*
X211181955Y-304748719D02*
X210991479Y-304748719D01*
X210991479Y-304748719D02*
X210896241Y-304796338D01*
X210896241Y-304796338D02*
X210848622Y-304843957D01*
X210848622Y-304843957D02*
X210753384Y-304986814D01*
X210753384Y-304986814D02*
X210705765Y-305177290D01*
X210705765Y-305177290D02*
X210705765Y-305558242D01*
X210705765Y-305558242D02*
X210753384Y-305653480D01*
X210753384Y-305653480D02*
X210801003Y-305701100D01*
X210801003Y-305701100D02*
X210896241Y-305748719D01*
X210896241Y-305748719D02*
X211086717Y-305748719D01*
X211086717Y-305748719D02*
X211181955Y-305701100D01*
X211181955Y-305701100D02*
X211229574Y-305653480D01*
X211229574Y-305653480D02*
X211277193Y-305558242D01*
X211277193Y-305558242D02*
X211277193Y-305320147D01*
X211277193Y-305320147D02*
X211229574Y-305224909D01*
X211229574Y-305224909D02*
X211181955Y-305177290D01*
X211181955Y-305177290D02*
X211086717Y-305129671D01*
X211086717Y-305129671D02*
X210896241Y-305129671D01*
X210896241Y-305129671D02*
X210801003Y-305177290D01*
X210801003Y-305177290D02*
X210753384Y-305224909D01*
X210753384Y-305224909D02*
X210705765Y-305320147D01*
%TO.C,U30*%
X259553384Y-253948719D02*
X259553384Y-254758242D01*
X259553384Y-254758242D02*
X259601003Y-254853480D01*
X259601003Y-254853480D02*
X259648622Y-254901100D01*
X259648622Y-254901100D02*
X259743860Y-254948719D01*
X259743860Y-254948719D02*
X259934336Y-254948719D01*
X259934336Y-254948719D02*
X260029574Y-254901100D01*
X260029574Y-254901100D02*
X260077193Y-254853480D01*
X260077193Y-254853480D02*
X260124812Y-254758242D01*
X260124812Y-254758242D02*
X260124812Y-253948719D01*
X260505765Y-253948719D02*
X261124812Y-253948719D01*
X261124812Y-253948719D02*
X260791479Y-254329671D01*
X260791479Y-254329671D02*
X260934336Y-254329671D01*
X260934336Y-254329671D02*
X261029574Y-254377290D01*
X261029574Y-254377290D02*
X261077193Y-254424909D01*
X261077193Y-254424909D02*
X261124812Y-254520147D01*
X261124812Y-254520147D02*
X261124812Y-254758242D01*
X261124812Y-254758242D02*
X261077193Y-254853480D01*
X261077193Y-254853480D02*
X261029574Y-254901100D01*
X261029574Y-254901100D02*
X260934336Y-254948719D01*
X260934336Y-254948719D02*
X260648622Y-254948719D01*
X260648622Y-254948719D02*
X260553384Y-254901100D01*
X260553384Y-254901100D02*
X260505765Y-254853480D01*
X261743860Y-253948719D02*
X261839098Y-253948719D01*
X261839098Y-253948719D02*
X261934336Y-253996338D01*
X261934336Y-253996338D02*
X261981955Y-254043957D01*
X261981955Y-254043957D02*
X262029574Y-254139195D01*
X262029574Y-254139195D02*
X262077193Y-254329671D01*
X262077193Y-254329671D02*
X262077193Y-254567766D01*
X262077193Y-254567766D02*
X262029574Y-254758242D01*
X262029574Y-254758242D02*
X261981955Y-254853480D01*
X261981955Y-254853480D02*
X261934336Y-254901100D01*
X261934336Y-254901100D02*
X261839098Y-254948719D01*
X261839098Y-254948719D02*
X261743860Y-254948719D01*
X261743860Y-254948719D02*
X261648622Y-254901100D01*
X261648622Y-254901100D02*
X261601003Y-254853480D01*
X261601003Y-254853480D02*
X261553384Y-254758242D01*
X261553384Y-254758242D02*
X261505765Y-254567766D01*
X261505765Y-254567766D02*
X261505765Y-254329671D01*
X261505765Y-254329671D02*
X261553384Y-254139195D01*
X261553384Y-254139195D02*
X261601003Y-254043957D01*
X261601003Y-254043957D02*
X261648622Y-253996338D01*
X261648622Y-253996338D02*
X261743860Y-253948719D01*
%TO.C,U51*%
X335753384Y-177748719D02*
X335753384Y-178558242D01*
X335753384Y-178558242D02*
X335801003Y-178653480D01*
X335801003Y-178653480D02*
X335848622Y-178701100D01*
X335848622Y-178701100D02*
X335943860Y-178748719D01*
X335943860Y-178748719D02*
X336134336Y-178748719D01*
X336134336Y-178748719D02*
X336229574Y-178701100D01*
X336229574Y-178701100D02*
X336277193Y-178653480D01*
X336277193Y-178653480D02*
X336324812Y-178558242D01*
X336324812Y-178558242D02*
X336324812Y-177748719D01*
X337277193Y-177748719D02*
X336801003Y-177748719D01*
X336801003Y-177748719D02*
X336753384Y-178224909D01*
X336753384Y-178224909D02*
X336801003Y-178177290D01*
X336801003Y-178177290D02*
X336896241Y-178129671D01*
X336896241Y-178129671D02*
X337134336Y-178129671D01*
X337134336Y-178129671D02*
X337229574Y-178177290D01*
X337229574Y-178177290D02*
X337277193Y-178224909D01*
X337277193Y-178224909D02*
X337324812Y-178320147D01*
X337324812Y-178320147D02*
X337324812Y-178558242D01*
X337324812Y-178558242D02*
X337277193Y-178653480D01*
X337277193Y-178653480D02*
X337229574Y-178701100D01*
X337229574Y-178701100D02*
X337134336Y-178748719D01*
X337134336Y-178748719D02*
X336896241Y-178748719D01*
X336896241Y-178748719D02*
X336801003Y-178701100D01*
X336801003Y-178701100D02*
X336753384Y-178653480D01*
X338277193Y-178748719D02*
X337705765Y-178748719D01*
X337991479Y-178748719D02*
X337991479Y-177748719D01*
X337991479Y-177748719D02*
X337896241Y-177891576D01*
X337896241Y-177891576D02*
X337801003Y-177986814D01*
X337801003Y-177986814D02*
X337705765Y-178034433D01*
%TO.C,U61*%
X361153384Y-228548719D02*
X361153384Y-229358242D01*
X361153384Y-229358242D02*
X361201003Y-229453480D01*
X361201003Y-229453480D02*
X361248622Y-229501100D01*
X361248622Y-229501100D02*
X361343860Y-229548719D01*
X361343860Y-229548719D02*
X361534336Y-229548719D01*
X361534336Y-229548719D02*
X361629574Y-229501100D01*
X361629574Y-229501100D02*
X361677193Y-229453480D01*
X361677193Y-229453480D02*
X361724812Y-229358242D01*
X361724812Y-229358242D02*
X361724812Y-228548719D01*
X362629574Y-228548719D02*
X362439098Y-228548719D01*
X362439098Y-228548719D02*
X362343860Y-228596338D01*
X362343860Y-228596338D02*
X362296241Y-228643957D01*
X362296241Y-228643957D02*
X362201003Y-228786814D01*
X362201003Y-228786814D02*
X362153384Y-228977290D01*
X362153384Y-228977290D02*
X362153384Y-229358242D01*
X362153384Y-229358242D02*
X362201003Y-229453480D01*
X362201003Y-229453480D02*
X362248622Y-229501100D01*
X362248622Y-229501100D02*
X362343860Y-229548719D01*
X362343860Y-229548719D02*
X362534336Y-229548719D01*
X362534336Y-229548719D02*
X362629574Y-229501100D01*
X362629574Y-229501100D02*
X362677193Y-229453480D01*
X362677193Y-229453480D02*
X362724812Y-229358242D01*
X362724812Y-229358242D02*
X362724812Y-229120147D01*
X362724812Y-229120147D02*
X362677193Y-229024909D01*
X362677193Y-229024909D02*
X362629574Y-228977290D01*
X362629574Y-228977290D02*
X362534336Y-228929671D01*
X362534336Y-228929671D02*
X362343860Y-228929671D01*
X362343860Y-228929671D02*
X362248622Y-228977290D01*
X362248622Y-228977290D02*
X362201003Y-229024909D01*
X362201003Y-229024909D02*
X362153384Y-229120147D01*
X363677193Y-229548719D02*
X363105765Y-229548719D01*
X363391479Y-229548719D02*
X363391479Y-228548719D01*
X363391479Y-228548719D02*
X363296241Y-228691576D01*
X363296241Y-228691576D02*
X363201003Y-228786814D01*
X363201003Y-228786814D02*
X363105765Y-228834433D01*
%TO.C,U50*%
X335753384Y-152348719D02*
X335753384Y-153158242D01*
X335753384Y-153158242D02*
X335801003Y-153253480D01*
X335801003Y-153253480D02*
X335848622Y-153301100D01*
X335848622Y-153301100D02*
X335943860Y-153348719D01*
X335943860Y-153348719D02*
X336134336Y-153348719D01*
X336134336Y-153348719D02*
X336229574Y-153301100D01*
X336229574Y-153301100D02*
X336277193Y-153253480D01*
X336277193Y-153253480D02*
X336324812Y-153158242D01*
X336324812Y-153158242D02*
X336324812Y-152348719D01*
X337277193Y-152348719D02*
X336801003Y-152348719D01*
X336801003Y-152348719D02*
X336753384Y-152824909D01*
X336753384Y-152824909D02*
X336801003Y-152777290D01*
X336801003Y-152777290D02*
X336896241Y-152729671D01*
X336896241Y-152729671D02*
X337134336Y-152729671D01*
X337134336Y-152729671D02*
X337229574Y-152777290D01*
X337229574Y-152777290D02*
X337277193Y-152824909D01*
X337277193Y-152824909D02*
X337324812Y-152920147D01*
X337324812Y-152920147D02*
X337324812Y-153158242D01*
X337324812Y-153158242D02*
X337277193Y-153253480D01*
X337277193Y-153253480D02*
X337229574Y-153301100D01*
X337229574Y-153301100D02*
X337134336Y-153348719D01*
X337134336Y-153348719D02*
X336896241Y-153348719D01*
X336896241Y-153348719D02*
X336801003Y-153301100D01*
X336801003Y-153301100D02*
X336753384Y-153253480D01*
X337943860Y-152348719D02*
X338039098Y-152348719D01*
X338039098Y-152348719D02*
X338134336Y-152396338D01*
X338134336Y-152396338D02*
X338181955Y-152443957D01*
X338181955Y-152443957D02*
X338229574Y-152539195D01*
X338229574Y-152539195D02*
X338277193Y-152729671D01*
X338277193Y-152729671D02*
X338277193Y-152967766D01*
X338277193Y-152967766D02*
X338229574Y-153158242D01*
X338229574Y-153158242D02*
X338181955Y-153253480D01*
X338181955Y-153253480D02*
X338134336Y-153301100D01*
X338134336Y-153301100D02*
X338039098Y-153348719D01*
X338039098Y-153348719D02*
X337943860Y-153348719D01*
X337943860Y-153348719D02*
X337848622Y-153301100D01*
X337848622Y-153301100D02*
X337801003Y-153253480D01*
X337801003Y-153253480D02*
X337753384Y-153158242D01*
X337753384Y-153158242D02*
X337705765Y-152967766D01*
X337705765Y-152967766D02*
X337705765Y-152729671D01*
X337705765Y-152729671D02*
X337753384Y-152539195D01*
X337753384Y-152539195D02*
X337801003Y-152443957D01*
X337801003Y-152443957D02*
X337848622Y-152396338D01*
X337848622Y-152396338D02*
X337943860Y-152348719D01*
%TO.C,U8*%
X183829574Y-304748719D02*
X183829574Y-305558242D01*
X183829574Y-305558242D02*
X183877193Y-305653480D01*
X183877193Y-305653480D02*
X183924812Y-305701100D01*
X183924812Y-305701100D02*
X184020050Y-305748719D01*
X184020050Y-305748719D02*
X184210526Y-305748719D01*
X184210526Y-305748719D02*
X184305764Y-305701100D01*
X184305764Y-305701100D02*
X184353383Y-305653480D01*
X184353383Y-305653480D02*
X184401002Y-305558242D01*
X184401002Y-305558242D02*
X184401002Y-304748719D01*
X185020050Y-305177290D02*
X184924812Y-305129671D01*
X184924812Y-305129671D02*
X184877193Y-305082052D01*
X184877193Y-305082052D02*
X184829574Y-304986814D01*
X184829574Y-304986814D02*
X184829574Y-304939195D01*
X184829574Y-304939195D02*
X184877193Y-304843957D01*
X184877193Y-304843957D02*
X184924812Y-304796338D01*
X184924812Y-304796338D02*
X185020050Y-304748719D01*
X185020050Y-304748719D02*
X185210526Y-304748719D01*
X185210526Y-304748719D02*
X185305764Y-304796338D01*
X185305764Y-304796338D02*
X185353383Y-304843957D01*
X185353383Y-304843957D02*
X185401002Y-304939195D01*
X185401002Y-304939195D02*
X185401002Y-304986814D01*
X185401002Y-304986814D02*
X185353383Y-305082052D01*
X185353383Y-305082052D02*
X185305764Y-305129671D01*
X185305764Y-305129671D02*
X185210526Y-305177290D01*
X185210526Y-305177290D02*
X185020050Y-305177290D01*
X185020050Y-305177290D02*
X184924812Y-305224909D01*
X184924812Y-305224909D02*
X184877193Y-305272528D01*
X184877193Y-305272528D02*
X184829574Y-305367766D01*
X184829574Y-305367766D02*
X184829574Y-305558242D01*
X184829574Y-305558242D02*
X184877193Y-305653480D01*
X184877193Y-305653480D02*
X184924812Y-305701100D01*
X184924812Y-305701100D02*
X185020050Y-305748719D01*
X185020050Y-305748719D02*
X185210526Y-305748719D01*
X185210526Y-305748719D02*
X185305764Y-305701100D01*
X185305764Y-305701100D02*
X185353383Y-305653480D01*
X185353383Y-305653480D02*
X185401002Y-305558242D01*
X185401002Y-305558242D02*
X185401002Y-305367766D01*
X185401002Y-305367766D02*
X185353383Y-305272528D01*
X185353383Y-305272528D02*
X185305764Y-305224909D01*
X185305764Y-305224909D02*
X185210526Y-305177290D01*
%TO.C,U22*%
X234153384Y-253948719D02*
X234153384Y-254758242D01*
X234153384Y-254758242D02*
X234201003Y-254853480D01*
X234201003Y-254853480D02*
X234248622Y-254901100D01*
X234248622Y-254901100D02*
X234343860Y-254948719D01*
X234343860Y-254948719D02*
X234534336Y-254948719D01*
X234534336Y-254948719D02*
X234629574Y-254901100D01*
X234629574Y-254901100D02*
X234677193Y-254853480D01*
X234677193Y-254853480D02*
X234724812Y-254758242D01*
X234724812Y-254758242D02*
X234724812Y-253948719D01*
X235153384Y-254043957D02*
X235201003Y-253996338D01*
X235201003Y-253996338D02*
X235296241Y-253948719D01*
X235296241Y-253948719D02*
X235534336Y-253948719D01*
X235534336Y-253948719D02*
X235629574Y-253996338D01*
X235629574Y-253996338D02*
X235677193Y-254043957D01*
X235677193Y-254043957D02*
X235724812Y-254139195D01*
X235724812Y-254139195D02*
X235724812Y-254234433D01*
X235724812Y-254234433D02*
X235677193Y-254377290D01*
X235677193Y-254377290D02*
X235105765Y-254948719D01*
X235105765Y-254948719D02*
X235724812Y-254948719D01*
X236105765Y-254043957D02*
X236153384Y-253996338D01*
X236153384Y-253996338D02*
X236248622Y-253948719D01*
X236248622Y-253948719D02*
X236486717Y-253948719D01*
X236486717Y-253948719D02*
X236581955Y-253996338D01*
X236581955Y-253996338D02*
X236629574Y-254043957D01*
X236629574Y-254043957D02*
X236677193Y-254139195D01*
X236677193Y-254139195D02*
X236677193Y-254234433D01*
X236677193Y-254234433D02*
X236629574Y-254377290D01*
X236629574Y-254377290D02*
X236058146Y-254948719D01*
X236058146Y-254948719D02*
X236677193Y-254948719D01*
%TO.C,U3*%
X183829574Y-177748719D02*
X183829574Y-178558242D01*
X183829574Y-178558242D02*
X183877193Y-178653480D01*
X183877193Y-178653480D02*
X183924812Y-178701100D01*
X183924812Y-178701100D02*
X184020050Y-178748719D01*
X184020050Y-178748719D02*
X184210526Y-178748719D01*
X184210526Y-178748719D02*
X184305764Y-178701100D01*
X184305764Y-178701100D02*
X184353383Y-178653480D01*
X184353383Y-178653480D02*
X184401002Y-178558242D01*
X184401002Y-178558242D02*
X184401002Y-177748719D01*
X184781955Y-177748719D02*
X185401002Y-177748719D01*
X185401002Y-177748719D02*
X185067669Y-178129671D01*
X185067669Y-178129671D02*
X185210526Y-178129671D01*
X185210526Y-178129671D02*
X185305764Y-178177290D01*
X185305764Y-178177290D02*
X185353383Y-178224909D01*
X185353383Y-178224909D02*
X185401002Y-178320147D01*
X185401002Y-178320147D02*
X185401002Y-178558242D01*
X185401002Y-178558242D02*
X185353383Y-178653480D01*
X185353383Y-178653480D02*
X185305764Y-178701100D01*
X185305764Y-178701100D02*
X185210526Y-178748719D01*
X185210526Y-178748719D02*
X184924812Y-178748719D01*
X184924812Y-178748719D02*
X184829574Y-178701100D01*
X184829574Y-178701100D02*
X184781955Y-178653480D01*
%TO.C,U10*%
X208753384Y-152348719D02*
X208753384Y-153158242D01*
X208753384Y-153158242D02*
X208801003Y-153253480D01*
X208801003Y-153253480D02*
X208848622Y-153301100D01*
X208848622Y-153301100D02*
X208943860Y-153348719D01*
X208943860Y-153348719D02*
X209134336Y-153348719D01*
X209134336Y-153348719D02*
X209229574Y-153301100D01*
X209229574Y-153301100D02*
X209277193Y-153253480D01*
X209277193Y-153253480D02*
X209324812Y-153158242D01*
X209324812Y-153158242D02*
X209324812Y-152348719D01*
X210324812Y-153348719D02*
X209753384Y-153348719D01*
X210039098Y-153348719D02*
X210039098Y-152348719D01*
X210039098Y-152348719D02*
X209943860Y-152491576D01*
X209943860Y-152491576D02*
X209848622Y-152586814D01*
X209848622Y-152586814D02*
X209753384Y-152634433D01*
X210943860Y-152348719D02*
X211039098Y-152348719D01*
X211039098Y-152348719D02*
X211134336Y-152396338D01*
X211134336Y-152396338D02*
X211181955Y-152443957D01*
X211181955Y-152443957D02*
X211229574Y-152539195D01*
X211229574Y-152539195D02*
X211277193Y-152729671D01*
X211277193Y-152729671D02*
X211277193Y-152967766D01*
X211277193Y-152967766D02*
X211229574Y-153158242D01*
X211229574Y-153158242D02*
X211181955Y-153253480D01*
X211181955Y-153253480D02*
X211134336Y-153301100D01*
X211134336Y-153301100D02*
X211039098Y-153348719D01*
X211039098Y-153348719D02*
X210943860Y-153348719D01*
X210943860Y-153348719D02*
X210848622Y-153301100D01*
X210848622Y-153301100D02*
X210801003Y-153253480D01*
X210801003Y-153253480D02*
X210753384Y-153158242D01*
X210753384Y-153158242D02*
X210705765Y-152967766D01*
X210705765Y-152967766D02*
X210705765Y-152729671D01*
X210705765Y-152729671D02*
X210753384Y-152539195D01*
X210753384Y-152539195D02*
X210801003Y-152443957D01*
X210801003Y-152443957D02*
X210848622Y-152396338D01*
X210848622Y-152396338D02*
X210943860Y-152348719D01*
%TO.C,U40*%
X284953384Y-304748719D02*
X284953384Y-305558242D01*
X284953384Y-305558242D02*
X285001003Y-305653480D01*
X285001003Y-305653480D02*
X285048622Y-305701100D01*
X285048622Y-305701100D02*
X285143860Y-305748719D01*
X285143860Y-305748719D02*
X285334336Y-305748719D01*
X285334336Y-305748719D02*
X285429574Y-305701100D01*
X285429574Y-305701100D02*
X285477193Y-305653480D01*
X285477193Y-305653480D02*
X285524812Y-305558242D01*
X285524812Y-305558242D02*
X285524812Y-304748719D01*
X286429574Y-305082052D02*
X286429574Y-305748719D01*
X286191479Y-304701100D02*
X285953384Y-305415385D01*
X285953384Y-305415385D02*
X286572431Y-305415385D01*
X287143860Y-304748719D02*
X287239098Y-304748719D01*
X287239098Y-304748719D02*
X287334336Y-304796338D01*
X287334336Y-304796338D02*
X287381955Y-304843957D01*
X287381955Y-304843957D02*
X287429574Y-304939195D01*
X287429574Y-304939195D02*
X287477193Y-305129671D01*
X287477193Y-305129671D02*
X287477193Y-305367766D01*
X287477193Y-305367766D02*
X287429574Y-305558242D01*
X287429574Y-305558242D02*
X287381955Y-305653480D01*
X287381955Y-305653480D02*
X287334336Y-305701100D01*
X287334336Y-305701100D02*
X287239098Y-305748719D01*
X287239098Y-305748719D02*
X287143860Y-305748719D01*
X287143860Y-305748719D02*
X287048622Y-305701100D01*
X287048622Y-305701100D02*
X287001003Y-305653480D01*
X287001003Y-305653480D02*
X286953384Y-305558242D01*
X286953384Y-305558242D02*
X286905765Y-305367766D01*
X286905765Y-305367766D02*
X286905765Y-305129671D01*
X286905765Y-305129671D02*
X286953384Y-304939195D01*
X286953384Y-304939195D02*
X287001003Y-304843957D01*
X287001003Y-304843957D02*
X287048622Y-304796338D01*
X287048622Y-304796338D02*
X287143860Y-304748719D01*
%TO.C,U13*%
X208753384Y-228548719D02*
X208753384Y-229358242D01*
X208753384Y-229358242D02*
X208801003Y-229453480D01*
X208801003Y-229453480D02*
X208848622Y-229501100D01*
X208848622Y-229501100D02*
X208943860Y-229548719D01*
X208943860Y-229548719D02*
X209134336Y-229548719D01*
X209134336Y-229548719D02*
X209229574Y-229501100D01*
X209229574Y-229501100D02*
X209277193Y-229453480D01*
X209277193Y-229453480D02*
X209324812Y-229358242D01*
X209324812Y-229358242D02*
X209324812Y-228548719D01*
X210324812Y-229548719D02*
X209753384Y-229548719D01*
X210039098Y-229548719D02*
X210039098Y-228548719D01*
X210039098Y-228548719D02*
X209943860Y-228691576D01*
X209943860Y-228691576D02*
X209848622Y-228786814D01*
X209848622Y-228786814D02*
X209753384Y-228834433D01*
X210658146Y-228548719D02*
X211277193Y-228548719D01*
X211277193Y-228548719D02*
X210943860Y-228929671D01*
X210943860Y-228929671D02*
X211086717Y-228929671D01*
X211086717Y-228929671D02*
X211181955Y-228977290D01*
X211181955Y-228977290D02*
X211229574Y-229024909D01*
X211229574Y-229024909D02*
X211277193Y-229120147D01*
X211277193Y-229120147D02*
X211277193Y-229358242D01*
X211277193Y-229358242D02*
X211229574Y-229453480D01*
X211229574Y-229453480D02*
X211181955Y-229501100D01*
X211181955Y-229501100D02*
X211086717Y-229548719D01*
X211086717Y-229548719D02*
X210801003Y-229548719D01*
X210801003Y-229548719D02*
X210705765Y-229501100D01*
X210705765Y-229501100D02*
X210658146Y-229453480D01*
%TO.C,U17*%
X234153384Y-126948719D02*
X234153384Y-127758242D01*
X234153384Y-127758242D02*
X234201003Y-127853480D01*
X234201003Y-127853480D02*
X234248622Y-127901100D01*
X234248622Y-127901100D02*
X234343860Y-127948719D01*
X234343860Y-127948719D02*
X234534336Y-127948719D01*
X234534336Y-127948719D02*
X234629574Y-127901100D01*
X234629574Y-127901100D02*
X234677193Y-127853480D01*
X234677193Y-127853480D02*
X234724812Y-127758242D01*
X234724812Y-127758242D02*
X234724812Y-126948719D01*
X235724812Y-127948719D02*
X235153384Y-127948719D01*
X235439098Y-127948719D02*
X235439098Y-126948719D01*
X235439098Y-126948719D02*
X235343860Y-127091576D01*
X235343860Y-127091576D02*
X235248622Y-127186814D01*
X235248622Y-127186814D02*
X235153384Y-127234433D01*
X236058146Y-126948719D02*
X236724812Y-126948719D01*
X236724812Y-126948719D02*
X236296241Y-127948719D01*
%TO.C,U53*%
X335753384Y-228548719D02*
X335753384Y-229358242D01*
X335753384Y-229358242D02*
X335801003Y-229453480D01*
X335801003Y-229453480D02*
X335848622Y-229501100D01*
X335848622Y-229501100D02*
X335943860Y-229548719D01*
X335943860Y-229548719D02*
X336134336Y-229548719D01*
X336134336Y-229548719D02*
X336229574Y-229501100D01*
X336229574Y-229501100D02*
X336277193Y-229453480D01*
X336277193Y-229453480D02*
X336324812Y-229358242D01*
X336324812Y-229358242D02*
X336324812Y-228548719D01*
X337277193Y-228548719D02*
X336801003Y-228548719D01*
X336801003Y-228548719D02*
X336753384Y-229024909D01*
X336753384Y-229024909D02*
X336801003Y-228977290D01*
X336801003Y-228977290D02*
X336896241Y-228929671D01*
X336896241Y-228929671D02*
X337134336Y-228929671D01*
X337134336Y-228929671D02*
X337229574Y-228977290D01*
X337229574Y-228977290D02*
X337277193Y-229024909D01*
X337277193Y-229024909D02*
X337324812Y-229120147D01*
X337324812Y-229120147D02*
X337324812Y-229358242D01*
X337324812Y-229358242D02*
X337277193Y-229453480D01*
X337277193Y-229453480D02*
X337229574Y-229501100D01*
X337229574Y-229501100D02*
X337134336Y-229548719D01*
X337134336Y-229548719D02*
X336896241Y-229548719D01*
X336896241Y-229548719D02*
X336801003Y-229501100D01*
X336801003Y-229501100D02*
X336753384Y-229453480D01*
X337658146Y-228548719D02*
X338277193Y-228548719D01*
X338277193Y-228548719D02*
X337943860Y-228929671D01*
X337943860Y-228929671D02*
X338086717Y-228929671D01*
X338086717Y-228929671D02*
X338181955Y-228977290D01*
X338181955Y-228977290D02*
X338229574Y-229024909D01*
X338229574Y-229024909D02*
X338277193Y-229120147D01*
X338277193Y-229120147D02*
X338277193Y-229358242D01*
X338277193Y-229358242D02*
X338229574Y-229453480D01*
X338229574Y-229453480D02*
X338181955Y-229501100D01*
X338181955Y-229501100D02*
X338086717Y-229548719D01*
X338086717Y-229548719D02*
X337801003Y-229548719D01*
X337801003Y-229548719D02*
X337705765Y-229501100D01*
X337705765Y-229501100D02*
X337658146Y-229453480D01*
%TO.C,U7*%
X183829574Y-279348719D02*
X183829574Y-280158242D01*
X183829574Y-280158242D02*
X183877193Y-280253480D01*
X183877193Y-280253480D02*
X183924812Y-280301100D01*
X183924812Y-280301100D02*
X184020050Y-280348719D01*
X184020050Y-280348719D02*
X184210526Y-280348719D01*
X184210526Y-280348719D02*
X184305764Y-280301100D01*
X184305764Y-280301100D02*
X184353383Y-280253480D01*
X184353383Y-280253480D02*
X184401002Y-280158242D01*
X184401002Y-280158242D02*
X184401002Y-279348719D01*
X184781955Y-279348719D02*
X185448621Y-279348719D01*
X185448621Y-279348719D02*
X185020050Y-280348719D01*
%TO.C,U34*%
X284953384Y-152348719D02*
X284953384Y-153158242D01*
X284953384Y-153158242D02*
X285001003Y-153253480D01*
X285001003Y-153253480D02*
X285048622Y-153301100D01*
X285048622Y-153301100D02*
X285143860Y-153348719D01*
X285143860Y-153348719D02*
X285334336Y-153348719D01*
X285334336Y-153348719D02*
X285429574Y-153301100D01*
X285429574Y-153301100D02*
X285477193Y-153253480D01*
X285477193Y-153253480D02*
X285524812Y-153158242D01*
X285524812Y-153158242D02*
X285524812Y-152348719D01*
X285905765Y-152348719D02*
X286524812Y-152348719D01*
X286524812Y-152348719D02*
X286191479Y-152729671D01*
X286191479Y-152729671D02*
X286334336Y-152729671D01*
X286334336Y-152729671D02*
X286429574Y-152777290D01*
X286429574Y-152777290D02*
X286477193Y-152824909D01*
X286477193Y-152824909D02*
X286524812Y-152920147D01*
X286524812Y-152920147D02*
X286524812Y-153158242D01*
X286524812Y-153158242D02*
X286477193Y-153253480D01*
X286477193Y-153253480D02*
X286429574Y-153301100D01*
X286429574Y-153301100D02*
X286334336Y-153348719D01*
X286334336Y-153348719D02*
X286048622Y-153348719D01*
X286048622Y-153348719D02*
X285953384Y-153301100D01*
X285953384Y-153301100D02*
X285905765Y-153253480D01*
X287381955Y-152682052D02*
X287381955Y-153348719D01*
X287143860Y-152301100D02*
X286905765Y-153015385D01*
X286905765Y-153015385D02*
X287524812Y-153015385D01*
%TO.C,U19*%
X234153384Y-177748719D02*
X234153384Y-178558242D01*
X234153384Y-178558242D02*
X234201003Y-178653480D01*
X234201003Y-178653480D02*
X234248622Y-178701100D01*
X234248622Y-178701100D02*
X234343860Y-178748719D01*
X234343860Y-178748719D02*
X234534336Y-178748719D01*
X234534336Y-178748719D02*
X234629574Y-178701100D01*
X234629574Y-178701100D02*
X234677193Y-178653480D01*
X234677193Y-178653480D02*
X234724812Y-178558242D01*
X234724812Y-178558242D02*
X234724812Y-177748719D01*
X235724812Y-178748719D02*
X235153384Y-178748719D01*
X235439098Y-178748719D02*
X235439098Y-177748719D01*
X235439098Y-177748719D02*
X235343860Y-177891576D01*
X235343860Y-177891576D02*
X235248622Y-177986814D01*
X235248622Y-177986814D02*
X235153384Y-178034433D01*
X236201003Y-178748719D02*
X236391479Y-178748719D01*
X236391479Y-178748719D02*
X236486717Y-178701100D01*
X236486717Y-178701100D02*
X236534336Y-178653480D01*
X236534336Y-178653480D02*
X236629574Y-178510623D01*
X236629574Y-178510623D02*
X236677193Y-178320147D01*
X236677193Y-178320147D02*
X236677193Y-177939195D01*
X236677193Y-177939195D02*
X236629574Y-177843957D01*
X236629574Y-177843957D02*
X236581955Y-177796338D01*
X236581955Y-177796338D02*
X236486717Y-177748719D01*
X236486717Y-177748719D02*
X236296241Y-177748719D01*
X236296241Y-177748719D02*
X236201003Y-177796338D01*
X236201003Y-177796338D02*
X236153384Y-177843957D01*
X236153384Y-177843957D02*
X236105765Y-177939195D01*
X236105765Y-177939195D02*
X236105765Y-178177290D01*
X236105765Y-178177290D02*
X236153384Y-178272528D01*
X236153384Y-178272528D02*
X236201003Y-178320147D01*
X236201003Y-178320147D02*
X236296241Y-178367766D01*
X236296241Y-178367766D02*
X236486717Y-178367766D01*
X236486717Y-178367766D02*
X236581955Y-178320147D01*
X236581955Y-178320147D02*
X236629574Y-178272528D01*
X236629574Y-178272528D02*
X236677193Y-178177290D01*
D11*
%TO.C,U45*%
X309051479Y-227816100D02*
X334451479Y-227816100D01*
X309051479Y-240516100D02*
X309051479Y-227816100D01*
X309051479Y-253216100D02*
X309051479Y-240516100D01*
X334451479Y-227816100D02*
X334451479Y-253216100D01*
X334451479Y-253216100D02*
X309051479Y-253216100D01*
%TO.C,U33*%
X283651479Y-126216100D02*
X309051479Y-126216100D01*
X283651479Y-138916100D02*
X283651479Y-126216100D01*
X283651479Y-151616100D02*
X283651479Y-138916100D01*
X309051479Y-126216100D02*
X309051479Y-151616100D01*
X309051479Y-151616100D02*
X283651479Y-151616100D01*
%TO.C,U43*%
X309051479Y-177016100D02*
X334451479Y-177016100D01*
X309051479Y-189716100D02*
X309051479Y-177016100D01*
X309051479Y-202416100D02*
X309051479Y-189716100D01*
X334451479Y-177016100D02*
X334451479Y-202416100D01*
X334451479Y-202416100D02*
X309051479Y-202416100D01*
%TO.C,U18*%
X232851479Y-151616100D02*
X258251479Y-151616100D01*
X232851479Y-164316100D02*
X232851479Y-151616100D01*
X232851479Y-177016100D02*
X232851479Y-164316100D01*
X258251479Y-151616100D02*
X258251479Y-177016100D01*
X258251479Y-177016100D02*
X232851479Y-177016100D01*
%TO.C,U32*%
X258251479Y-304016100D02*
X283651479Y-304016100D01*
X258251479Y-316716100D02*
X258251479Y-304016100D01*
X258251479Y-329416100D02*
X258251479Y-316716100D01*
X283651479Y-304016100D02*
X283651479Y-329416100D01*
X283651479Y-329416100D02*
X258251479Y-329416100D01*
%TO.C,U52*%
X334451479Y-202416100D02*
X359851479Y-202416100D01*
X334451479Y-215116100D02*
X334451479Y-202416100D01*
X334451479Y-227816100D02*
X334451479Y-215116100D01*
X359851479Y-202416100D02*
X359851479Y-227816100D01*
X359851479Y-227816100D02*
X334451479Y-227816100D01*
%TO.C,U37*%
X283651479Y-227816100D02*
X309051479Y-227816100D01*
X283651479Y-240516100D02*
X283651479Y-227816100D01*
X283651479Y-253216100D02*
X283651479Y-240516100D01*
X309051479Y-227816100D02*
X309051479Y-253216100D01*
X309051479Y-253216100D02*
X283651479Y-253216100D01*
%TO.C,U57*%
X359851479Y-126216100D02*
X385251479Y-126216100D01*
X359851479Y-138916100D02*
X359851479Y-126216100D01*
X359851479Y-151616100D02*
X359851479Y-138916100D01*
X385251479Y-126216100D02*
X385251479Y-151616100D01*
X385251479Y-151616100D02*
X359851479Y-151616100D01*
%TO.C,U2*%
X182051479Y-151616100D02*
X207451479Y-151616100D01*
X182051479Y-164316100D02*
X182051479Y-151616100D01*
X182051479Y-177016100D02*
X182051479Y-164316100D01*
X207451479Y-151616100D02*
X207451479Y-177016100D01*
X207451479Y-177016100D02*
X182051479Y-177016100D01*
%TO.C,U26*%
X258251479Y-151616100D02*
X283651479Y-151616100D01*
X258251479Y-164316100D02*
X258251479Y-151616100D01*
X258251479Y-177016100D02*
X258251479Y-164316100D01*
X283651479Y-151616100D02*
X283651479Y-177016100D01*
X283651479Y-177016100D02*
X258251479Y-177016100D01*
%TO.C,U5*%
X182051479Y-227816100D02*
X207451479Y-227816100D01*
X182051479Y-240516100D02*
X182051479Y-227816100D01*
X182051479Y-253216100D02*
X182051479Y-240516100D01*
X207451479Y-227816100D02*
X207451479Y-253216100D01*
X207451479Y-253216100D02*
X182051479Y-253216100D01*
%TO.C,U56*%
X334451479Y-304016100D02*
X359851479Y-304016100D01*
X334451479Y-316716100D02*
X334451479Y-304016100D01*
X334451479Y-329416100D02*
X334451479Y-316716100D01*
X359851479Y-304016100D02*
X359851479Y-329416100D01*
X359851479Y-329416100D02*
X334451479Y-329416100D01*
%TO.C,U58*%
X359851479Y-151616100D02*
X385251479Y-151616100D01*
X359851479Y-164316100D02*
X359851479Y-151616100D01*
X359851479Y-177016100D02*
X359851479Y-164316100D01*
X385251479Y-151616100D02*
X385251479Y-177016100D01*
X385251479Y-177016100D02*
X359851479Y-177016100D01*
%TO.C,U23*%
X232851479Y-278616100D02*
X258251479Y-278616100D01*
X232851479Y-291316100D02*
X232851479Y-278616100D01*
X232851479Y-304016100D02*
X232851479Y-291316100D01*
X258251479Y-278616100D02*
X258251479Y-304016100D01*
X258251479Y-304016100D02*
X232851479Y-304016100D01*
%TO.C,U35*%
X283651479Y-177016100D02*
X309051479Y-177016100D01*
X283651479Y-189716100D02*
X283651479Y-177016100D01*
X283651479Y-202416100D02*
X283651479Y-189716100D01*
X309051479Y-177016100D02*
X309051479Y-202416100D01*
X309051479Y-202416100D02*
X283651479Y-202416100D01*
%TO.C,U21*%
X232851479Y-227816100D02*
X258251479Y-227816100D01*
X232851479Y-240516100D02*
X232851479Y-227816100D01*
X232851479Y-253216100D02*
X232851479Y-240516100D01*
X258251479Y-227816100D02*
X258251479Y-253216100D01*
X258251479Y-253216100D02*
X232851479Y-253216100D01*
%TO.C,U27*%
X258251479Y-177016100D02*
X283651479Y-177016100D01*
X258251479Y-189716100D02*
X258251479Y-177016100D01*
X258251479Y-202416100D02*
X258251479Y-189716100D01*
X283651479Y-177016100D02*
X283651479Y-202416100D01*
X283651479Y-202416100D02*
X258251479Y-202416100D01*
%TO.C,U48*%
X309051479Y-304016100D02*
X334451479Y-304016100D01*
X309051479Y-316716100D02*
X309051479Y-304016100D01*
X309051479Y-329416100D02*
X309051479Y-316716100D01*
X334451479Y-304016100D02*
X334451479Y-329416100D01*
X334451479Y-329416100D02*
X309051479Y-329416100D01*
%TO.C,U38*%
X283651479Y-253216100D02*
X309051479Y-253216100D01*
X283651479Y-265916100D02*
X283651479Y-253216100D01*
X283651479Y-278616100D02*
X283651479Y-265916100D01*
X309051479Y-253216100D02*
X309051479Y-278616100D01*
X309051479Y-278616100D02*
X283651479Y-278616100D01*
%TO.C,U15*%
X207451479Y-278616100D02*
X232851479Y-278616100D01*
X207451479Y-291316100D02*
X207451479Y-278616100D01*
X207451479Y-304016100D02*
X207451479Y-291316100D01*
X232851479Y-278616100D02*
X232851479Y-304016100D01*
X232851479Y-304016100D02*
X207451479Y-304016100D01*
%TO.C,U44*%
X309051479Y-202416100D02*
X334451479Y-202416100D01*
X309051479Y-215116100D02*
X309051479Y-202416100D01*
X309051479Y-227816100D02*
X309051479Y-215116100D01*
X334451479Y-202416100D02*
X334451479Y-227816100D01*
X334451479Y-227816100D02*
X309051479Y-227816100D01*
%TO.C,U25*%
X258251479Y-126216100D02*
X283651479Y-126216100D01*
X258251479Y-138916100D02*
X258251479Y-126216100D01*
X258251479Y-151616100D02*
X258251479Y-138916100D01*
X283651479Y-126216100D02*
X283651479Y-151616100D01*
X283651479Y-151616100D02*
X258251479Y-151616100D01*
%TO.C,U59*%
X359851479Y-177016100D02*
X385251479Y-177016100D01*
X359851479Y-189716100D02*
X359851479Y-177016100D01*
X359851479Y-202416100D02*
X359851479Y-189716100D01*
X385251479Y-177016100D02*
X385251479Y-202416100D01*
X385251479Y-202416100D02*
X359851479Y-202416100D01*
%TO.C,U62*%
X359851479Y-253216100D02*
X385251479Y-253216100D01*
X359851479Y-265916100D02*
X359851479Y-253216100D01*
X359851479Y-278616100D02*
X359851479Y-265916100D01*
X385251479Y-253216100D02*
X385251479Y-278616100D01*
X385251479Y-278616100D02*
X359851479Y-278616100D01*
%TO.C,U36*%
X283651479Y-202416100D02*
X309051479Y-202416100D01*
X283651479Y-215116100D02*
X283651479Y-202416100D01*
X283651479Y-227816100D02*
X283651479Y-215116100D01*
X309051479Y-202416100D02*
X309051479Y-227816100D01*
X309051479Y-227816100D02*
X283651479Y-227816100D01*
%TO.C,U49*%
X334451479Y-126216100D02*
X359851479Y-126216100D01*
X334451479Y-138916100D02*
X334451479Y-126216100D01*
X334451479Y-151616100D02*
X334451479Y-138916100D01*
X359851479Y-126216100D02*
X359851479Y-151616100D01*
X359851479Y-151616100D02*
X334451479Y-151616100D01*
%TO.C,U60*%
X359851479Y-202416100D02*
X385251479Y-202416100D01*
X359851479Y-215116100D02*
X359851479Y-202416100D01*
X359851479Y-227816100D02*
X359851479Y-215116100D01*
X385251479Y-202416100D02*
X385251479Y-227816100D01*
X385251479Y-227816100D02*
X359851479Y-227816100D01*
%TO.C,U41*%
X309051479Y-126216100D02*
X334451479Y-126216100D01*
X309051479Y-138916100D02*
X309051479Y-126216100D01*
X309051479Y-151616100D02*
X309051479Y-138916100D01*
X334451479Y-126216100D02*
X334451479Y-151616100D01*
X334451479Y-151616100D02*
X309051479Y-151616100D01*
%TO.C,U4*%
X182051479Y-202416100D02*
X207451479Y-202416100D01*
X182051479Y-215116100D02*
X182051479Y-202416100D01*
X182051479Y-227816100D02*
X182051479Y-215116100D01*
X207451479Y-202416100D02*
X207451479Y-227816100D01*
X207451479Y-227816100D02*
X182051479Y-227816100D01*
%TO.C,U63*%
X359851479Y-278616100D02*
X385251479Y-278616100D01*
X359851479Y-291316100D02*
X359851479Y-278616100D01*
X359851479Y-304016100D02*
X359851479Y-291316100D01*
X385251479Y-278616100D02*
X385251479Y-304016100D01*
X385251479Y-304016100D02*
X359851479Y-304016100D01*
%TO.C,U28*%
X258251479Y-202416100D02*
X283651479Y-202416100D01*
X258251479Y-215116100D02*
X258251479Y-202416100D01*
X258251479Y-227816100D02*
X258251479Y-215116100D01*
X283651479Y-202416100D02*
X283651479Y-227816100D01*
X283651479Y-227816100D02*
X258251479Y-227816100D01*
%TO.C,U12*%
X207451479Y-202416100D02*
X232851479Y-202416100D01*
X207451479Y-215116100D02*
X207451479Y-202416100D01*
X207451479Y-227816100D02*
X207451479Y-215116100D01*
X232851479Y-202416100D02*
X232851479Y-227816100D01*
X232851479Y-227816100D02*
X207451479Y-227816100D01*
%TO.C,U29*%
X258251479Y-227816100D02*
X283651479Y-227816100D01*
X258251479Y-240516100D02*
X258251479Y-227816100D01*
X258251479Y-253216100D02*
X258251479Y-240516100D01*
X283651479Y-227816100D02*
X283651479Y-253216100D01*
X283651479Y-253216100D02*
X258251479Y-253216100D01*
%TO.C,U42*%
X309051479Y-151616100D02*
X334451479Y-151616100D01*
X309051479Y-164316100D02*
X309051479Y-151616100D01*
X309051479Y-177016100D02*
X309051479Y-164316100D01*
X334451479Y-151616100D02*
X334451479Y-177016100D01*
X334451479Y-177016100D02*
X309051479Y-177016100D01*
%TO.C,U24*%
X232851479Y-304016100D02*
X258251479Y-304016100D01*
X232851479Y-316716100D02*
X232851479Y-304016100D01*
X232851479Y-329416100D02*
X232851479Y-316716100D01*
X258251479Y-304016100D02*
X258251479Y-329416100D01*
X258251479Y-329416100D02*
X232851479Y-329416100D01*
%TO.C,U14*%
X207451479Y-253216100D02*
X232851479Y-253216100D01*
X207451479Y-265916100D02*
X207451479Y-253216100D01*
X207451479Y-278616100D02*
X207451479Y-265916100D01*
X232851479Y-253216100D02*
X232851479Y-278616100D01*
X232851479Y-278616100D02*
X207451479Y-278616100D01*
%TO.C,U64*%
X359851479Y-304016100D02*
X385251479Y-304016100D01*
X359851479Y-316716100D02*
X359851479Y-304016100D01*
X359851479Y-329416100D02*
X359851479Y-316716100D01*
X385251479Y-304016100D02*
X385251479Y-329416100D01*
X385251479Y-329416100D02*
X359851479Y-329416100D01*
%TO.C,U31*%
X258251479Y-278616100D02*
X283651479Y-278616100D01*
X258251479Y-291316100D02*
X258251479Y-278616100D01*
X258251479Y-304016100D02*
X258251479Y-291316100D01*
X283651479Y-278616100D02*
X283651479Y-304016100D01*
X283651479Y-304016100D02*
X258251479Y-304016100D01*
%TO.C,U20*%
X232851479Y-202416100D02*
X258251479Y-202416100D01*
X232851479Y-215116100D02*
X232851479Y-202416100D01*
X232851479Y-227816100D02*
X232851479Y-215116100D01*
X258251479Y-202416100D02*
X258251479Y-227816100D01*
X258251479Y-227816100D02*
X232851479Y-227816100D01*
%TO.C,U55*%
X334451479Y-278616100D02*
X359851479Y-278616100D01*
X334451479Y-291316100D02*
X334451479Y-278616100D01*
X334451479Y-304016100D02*
X334451479Y-291316100D01*
X359851479Y-278616100D02*
X359851479Y-304016100D01*
X359851479Y-304016100D02*
X334451479Y-304016100D01*
%TO.C,U9*%
X207451479Y-126216100D02*
X232851479Y-126216100D01*
X207451479Y-138916100D02*
X207451479Y-126216100D01*
X207451479Y-151616100D02*
X207451479Y-138916100D01*
X232851479Y-126216100D02*
X232851479Y-151616100D01*
X232851479Y-151616100D02*
X207451479Y-151616100D01*
%TO.C,U46*%
X309051479Y-253216100D02*
X334451479Y-253216100D01*
X309051479Y-265916100D02*
X309051479Y-253216100D01*
X309051479Y-278616100D02*
X309051479Y-265916100D01*
X334451479Y-253216100D02*
X334451479Y-278616100D01*
X334451479Y-278616100D02*
X309051479Y-278616100D01*
%TO.C,U54*%
X334451479Y-253216100D02*
X359851479Y-253216100D01*
X334451479Y-265916100D02*
X334451479Y-253216100D01*
X334451479Y-278616100D02*
X334451479Y-265916100D01*
X359851479Y-253216100D02*
X359851479Y-278616100D01*
X359851479Y-278616100D02*
X334451479Y-278616100D01*
%TO.C,U1*%
X182051479Y-126216100D02*
X207451479Y-126216100D01*
X182051479Y-138916100D02*
X182051479Y-126216100D01*
X182051479Y-151616100D02*
X182051479Y-138916100D01*
X207451479Y-126216100D02*
X207451479Y-151616100D01*
X207451479Y-151616100D02*
X182051479Y-151616100D01*
%TO.C,U6*%
X182051479Y-253216100D02*
X207451479Y-253216100D01*
X182051479Y-265916100D02*
X182051479Y-253216100D01*
X182051479Y-278616100D02*
X182051479Y-265916100D01*
X207451479Y-253216100D02*
X207451479Y-278616100D01*
X207451479Y-278616100D02*
X182051479Y-278616100D01*
%TO.C,U39*%
X283651479Y-278616100D02*
X309051479Y-278616100D01*
X283651479Y-291316100D02*
X283651479Y-278616100D01*
X283651479Y-304016100D02*
X283651479Y-291316100D01*
X309051479Y-278616100D02*
X309051479Y-304016100D01*
X309051479Y-304016100D02*
X283651479Y-304016100D01*
%TO.C,U11*%
X207451479Y-177016100D02*
X232851479Y-177016100D01*
X207451479Y-189716100D02*
X207451479Y-177016100D01*
X207451479Y-202416100D02*
X207451479Y-189716100D01*
X232851479Y-177016100D02*
X232851479Y-202416100D01*
X232851479Y-202416100D02*
X207451479Y-202416100D01*
%TO.C,U47*%
X309051479Y-278616100D02*
X334451479Y-278616100D01*
X309051479Y-291316100D02*
X309051479Y-278616100D01*
X309051479Y-304016100D02*
X309051479Y-291316100D01*
X334451479Y-278616100D02*
X334451479Y-304016100D01*
X334451479Y-304016100D02*
X309051479Y-304016100D01*
%TO.C,U16*%
X207451479Y-304016100D02*
X232851479Y-304016100D01*
X207451479Y-316716100D02*
X207451479Y-304016100D01*
X207451479Y-329416100D02*
X207451479Y-316716100D01*
X232851479Y-304016100D02*
X232851479Y-329416100D01*
X232851479Y-329416100D02*
X207451479Y-329416100D01*
%TO.C,U30*%
X258251479Y-253216100D02*
X283651479Y-253216100D01*
X258251479Y-265916100D02*
X258251479Y-253216100D01*
X258251479Y-278616100D02*
X258251479Y-265916100D01*
X283651479Y-253216100D02*
X283651479Y-278616100D01*
X283651479Y-278616100D02*
X258251479Y-278616100D01*
%TO.C,U51*%
X334451479Y-177016100D02*
X359851479Y-177016100D01*
X334451479Y-189716100D02*
X334451479Y-177016100D01*
X334451479Y-202416100D02*
X334451479Y-189716100D01*
X359851479Y-177016100D02*
X359851479Y-202416100D01*
X359851479Y-202416100D02*
X334451479Y-202416100D01*
%TO.C,U61*%
X359851479Y-227816100D02*
X385251479Y-227816100D01*
X359851479Y-240516100D02*
X359851479Y-227816100D01*
X359851479Y-253216100D02*
X359851479Y-240516100D01*
X385251479Y-227816100D02*
X385251479Y-253216100D01*
X385251479Y-253216100D02*
X359851479Y-253216100D01*
%TO.C,U50*%
X334451479Y-151616100D02*
X359851479Y-151616100D01*
X334451479Y-164316100D02*
X334451479Y-151616100D01*
X334451479Y-177016100D02*
X334451479Y-164316100D01*
X359851479Y-151616100D02*
X359851479Y-177016100D01*
X359851479Y-177016100D02*
X334451479Y-177016100D01*
%TO.C,U8*%
X182051479Y-304016100D02*
X207451479Y-304016100D01*
X182051479Y-316716100D02*
X182051479Y-304016100D01*
X182051479Y-329416100D02*
X182051479Y-316716100D01*
X207451479Y-304016100D02*
X207451479Y-329416100D01*
X207451479Y-329416100D02*
X182051479Y-329416100D01*
%TO.C,U22*%
X232851479Y-253216100D02*
X258251479Y-253216100D01*
X232851479Y-265916100D02*
X232851479Y-253216100D01*
X232851479Y-278616100D02*
X232851479Y-265916100D01*
X258251479Y-253216100D02*
X258251479Y-278616100D01*
X258251479Y-278616100D02*
X232851479Y-278616100D01*
%TO.C,U3*%
X182051479Y-177016100D02*
X207451479Y-177016100D01*
X182051479Y-189716100D02*
X182051479Y-177016100D01*
X182051479Y-202416100D02*
X182051479Y-189716100D01*
X207451479Y-177016100D02*
X207451479Y-202416100D01*
X207451479Y-202416100D02*
X182051479Y-202416100D01*
%TO.C,U10*%
X207451479Y-151616100D02*
X232851479Y-151616100D01*
X207451479Y-164316100D02*
X207451479Y-151616100D01*
X207451479Y-177016100D02*
X207451479Y-164316100D01*
X232851479Y-151616100D02*
X232851479Y-177016100D01*
X232851479Y-177016100D02*
X207451479Y-177016100D01*
%TO.C,U40*%
X283651479Y-304016100D02*
X309051479Y-304016100D01*
X283651479Y-316716100D02*
X283651479Y-304016100D01*
X283651479Y-329416100D02*
X283651479Y-316716100D01*
X309051479Y-304016100D02*
X309051479Y-329416100D01*
X309051479Y-329416100D02*
X283651479Y-329416100D01*
%TO.C,U13*%
X207451479Y-227816100D02*
X232851479Y-227816100D01*
X207451479Y-240516100D02*
X207451479Y-227816100D01*
X207451479Y-253216100D02*
X207451479Y-240516100D01*
X232851479Y-227816100D02*
X232851479Y-253216100D01*
X232851479Y-253216100D02*
X207451479Y-253216100D01*
%TO.C,U17*%
X232851479Y-126216100D02*
X258251479Y-126216100D01*
X232851479Y-138916100D02*
X232851479Y-126216100D01*
X232851479Y-151616100D02*
X232851479Y-138916100D01*
X258251479Y-126216100D02*
X258251479Y-151616100D01*
X258251479Y-151616100D02*
X232851479Y-151616100D01*
%TO.C,U53*%
X334451479Y-227816100D02*
X359851479Y-227816100D01*
X334451479Y-240516100D02*
X334451479Y-227816100D01*
X334451479Y-253216100D02*
X334451479Y-240516100D01*
X359851479Y-227816100D02*
X359851479Y-253216100D01*
X359851479Y-253216100D02*
X334451479Y-253216100D01*
%TO.C,U7*%
X182051479Y-278616100D02*
X207451479Y-278616100D01*
X182051479Y-291316100D02*
X182051479Y-278616100D01*
X182051479Y-304016100D02*
X182051479Y-291316100D01*
X207451479Y-278616100D02*
X207451479Y-304016100D01*
X207451479Y-304016100D02*
X182051479Y-304016100D01*
%TO.C,U34*%
X283651479Y-151616100D02*
X309051479Y-151616100D01*
X283651479Y-164316100D02*
X283651479Y-151616100D01*
X283651479Y-177016100D02*
X283651479Y-164316100D01*
X309051479Y-151616100D02*
X309051479Y-177016100D01*
X309051479Y-177016100D02*
X283651479Y-177016100D01*
%TO.C,U19*%
X232851479Y-177016100D02*
X258251479Y-177016100D01*
X232851479Y-189716100D02*
X232851479Y-177016100D01*
X232851479Y-202416100D02*
X232851479Y-189716100D01*
X258251479Y-177016100D02*
X258251479Y-202416100D01*
X258251479Y-202416100D02*
X232851479Y-202416100D01*
%TD*%
M02*
