M48
; DRILL file {KiCad 7.0.2} date Mon May 22 19:29:01 2023
; FORMAT={-:-/ absolute / inch / decimal}
; #@! TF.CreationDate,2023-05-22T19:29:01+02:00
; #@! TF.GenerationSoftware,Kicad,Pcbnew,7.0.2
; #@! TF.FileFunction,NonPlated,1,2,NPTH
FMAT,2
INCH
; #@! TA.AperFunction,NonPlated,NPTH,ComponentDrill
T1C0.0984
; #@! TA.AperFunction,NonPlated,NPTH,ComponentDrill
T2C0.1969
%
G90
G05
T1
X8.7186Y-4.2438
X8.7206Y-13.6938
X9.5346Y-4.2438
X9.5366Y-13.6938
X10.3506Y-4.2438
X10.3526Y-13.6938
X11.1686Y-4.2438
X11.1686Y-13.6938
X11.9846Y-4.2438
X11.9846Y-13.6938
X12.8006Y-4.2438
X12.8006Y-13.6938
X13.6166Y-4.2438
X13.6166Y-13.6938
T2
X6.6398Y-4.6384
X6.6398Y-13.2998
X6.6406Y-6.8038
X6.6406Y-11.1358
X15.6949Y-4.6384
X15.6949Y-13.2998
X15.6966Y-6.8058
X15.6966Y-11.1358
T0
M30
