%TF.GenerationSoftware,KiCad,Pcbnew,7.0.2*%
%TF.CreationDate,2023-05-22T19:29:03+02:00*%
%TF.ProjectId,Board1_Pad_PogoPin,426f6172-6431-45f5-9061-645f506f676f,rev?*%
%TF.SameCoordinates,Original*%
%TF.FileFunction,Copper,L2,Bot*%
%TF.FilePolarity,Positive*%
%FSLAX46Y46*%
G04 Gerber Fmt 4.6, Leading zero omitted, Abs format (unit mm)*
G04 Created by KiCad (PCBNEW 7.0.2) date 2023-05-22 19:29:03*
%MOMM*%
%LPD*%
G01*
G04 APERTURE LIST*
%TA.AperFunction,SMDPad,CuDef*%
%ADD10C,5.500000*%
%TD*%
%TA.AperFunction,ComponentPad*%
%ADD11C,0.850000*%
%TD*%
%TA.AperFunction,SMDPad,CuDef*%
%ADD12C,1.500000*%
%TD*%
G04 APERTURE END LIST*
D10*
%TO.P,REF\u002A\u002A23,1*%
%TO.N,N/C*%
X207451479Y-202416100D03*
%TD*%
%TO.P,REF\u002A\u002A45,1*%
%TO.N,N/C*%
X359851479Y-304016100D03*
%TD*%
%TO.P,REF\u002A\u002A21,1*%
%TO.N,N/C*%
X258251479Y-202416100D03*
%TD*%
D11*
%TO.P,J27,1,Pin_1*%
%TO.N,/d3*%
X270951479Y-189716100D03*
D12*
X270951479Y-189716100D03*
%TD*%
D11*
%TO.P,J47,1,Pin_1*%
%TO.N,/f7*%
X321751479Y-291316100D03*
D12*
X321751479Y-291316100D03*
%TD*%
D10*
%TO.P,REF\u002A\u002A34,1*%
%TO.N,N/C*%
X283651479Y-253216100D03*
%TD*%
%TO.P,REF\u002A\u002A48,1*%
%TO.N,N/C*%
X283651479Y-304016100D03*
%TD*%
D11*
%TO.P,J10,1,Pin_1*%
%TO.N,/b2*%
X220151479Y-164316100D03*
D12*
X220151479Y-164316100D03*
%TD*%
D11*
%TO.P,J41,1,Pin_1*%
%TO.N,/f1*%
X321751479Y-138916100D03*
D12*
X321751479Y-138916100D03*
%TD*%
D11*
%TO.P,J15,1,Pin_1*%
%TO.N,/b7*%
X220151479Y-291316100D03*
D12*
X220151479Y-291316100D03*
%TD*%
D11*
%TO.P,J4,1,Pin_1*%
%TO.N,/a4*%
X194751479Y-215116100D03*
D12*
X194751479Y-215116100D03*
%TD*%
D11*
%TO.P,J38,1,Pin_1*%
%TO.N,/e6*%
X296351479Y-265916100D03*
D12*
X296351479Y-265916100D03*
%TD*%
D11*
%TO.P,J28,1,Pin_1*%
%TO.N,/d4*%
X270951479Y-215116100D03*
D12*
X270951479Y-215116100D03*
%TD*%
D10*
%TO.P,REF\u002A\u002A27,1*%
%TO.N,N/C*%
X283651479Y-227816100D03*
%TD*%
%TO.P,REF\u002A\u002A35,1*%
%TO.N,N/C*%
X258251479Y-253216100D03*
%TD*%
%TO.P,REF\u002A\u002A19,1*%
%TO.N,N/C*%
X309051479Y-202416100D03*
%TD*%
D11*
%TO.P,J22,1,Pin_1*%
%TO.N,/c6*%
X245551479Y-265916100D03*
D12*
X245551479Y-265916100D03*
%TD*%
D11*
%TO.P,J45,1,Pin_1*%
%TO.N,/f5*%
X321751479Y-240516100D03*
D12*
X321751479Y-240516100D03*
%TD*%
D11*
%TO.P,J12,1,Pin_1*%
%TO.N,/b4*%
X220151479Y-215116100D03*
D12*
X220151479Y-215116100D03*
%TD*%
D10*
%TO.P,REF\u002A\u002A7,1*%
%TO.N,N/C*%
X258251479Y-151616100D03*
%TD*%
D11*
%TO.P,J25,1,Pin_1*%
%TO.N,/d1*%
X270951479Y-138916100D03*
D12*
X270951479Y-138916100D03*
%TD*%
D10*
%TO.P,REF\u002A\u002A22,1*%
%TO.N,N/C*%
X232851479Y-202416100D03*
%TD*%
%TO.P,REF\u002A\u002A49,1*%
%TO.N,N/C*%
X258251479Y-304016100D03*
%TD*%
D11*
%TO.P,J23,1,Pin_1*%
%TO.N,/c7*%
X245551479Y-291316100D03*
D12*
X245551479Y-291316100D03*
%TD*%
D10*
%TO.P,REF\u002A\u002A,1*%
%TO.N,N/C*%
X359851479Y-151616100D03*
%TD*%
D11*
%TO.P,J29,1,Pin_1*%
%TO.N,/d5*%
X270951479Y-240516100D03*
D12*
X270951479Y-240516100D03*
%TD*%
D11*
%TO.P,J57,1,Pin_1*%
%TO.N,/h1*%
X372551479Y-138916100D03*
D12*
X372551479Y-138916100D03*
%TD*%
D10*
%TO.P,REF\u002A\u002A51,1*%
%TO.N,N/C*%
X207451479Y-304016100D03*
%TD*%
D11*
%TO.P,J14,1,Pin_1*%
%TO.N,/b6*%
X220151479Y-265916100D03*
D12*
X220151479Y-265916100D03*
%TD*%
D10*
%TO.P,REF\u002A\u002A17,1*%
%TO.N,N/C*%
X359851479Y-202416100D03*
%TD*%
D11*
%TO.P,J24,1,Pin_1*%
%TO.N,/c8*%
X245551479Y-316716100D03*
D12*
X245551479Y-316716100D03*
%TD*%
D10*
%TO.P,REF\u002A\u002A9,1*%
%TO.N,N/C*%
X207451479Y-151616100D03*
%TD*%
D11*
%TO.P,J50,1,Pin_1*%
%TO.N,/g2*%
X347151479Y-164316100D03*
D12*
X347151479Y-164316100D03*
%TD*%
D11*
%TO.P,J34,1,Pin_1*%
%TO.N,/e2*%
X296351479Y-164316100D03*
D12*
X296351479Y-164316100D03*
%TD*%
D10*
%TO.P,REF\u002A\u002A14,1*%
%TO.N,N/C*%
X258251479Y-177016100D03*
%TD*%
D11*
%TO.P,J17,1,Pin_1*%
%TO.N,/c1*%
X245551479Y-138916100D03*
D12*
X245551479Y-138916100D03*
%TD*%
D10*
%TO.P,REF\u002A\u002A6,1*%
%TO.N,N/C*%
X283651479Y-151616100D03*
%TD*%
D11*
%TO.P,J21,1,Pin_1*%
%TO.N,/c5*%
X245551479Y-240516100D03*
D12*
X245551479Y-240516100D03*
%TD*%
D11*
%TO.P,J36,1,Pin_1*%
%TO.N,/e4*%
X296351479Y-215116100D03*
D12*
X296351479Y-215116100D03*
%TD*%
D11*
%TO.P,J7,1,Pin_1*%
%TO.N,/a7*%
X194751479Y-291316100D03*
D12*
X194751479Y-291316100D03*
%TD*%
D10*
%TO.P,REF\u002A\u002A50,1*%
%TO.N,N/C*%
X232851479Y-304016100D03*
%TD*%
D11*
%TO.P,J39,1,Pin_1*%
%TO.N,/e7*%
X296351479Y-291316100D03*
D12*
X296351479Y-291316100D03*
%TD*%
D10*
%TO.P,REF\u002A\u002A16,1*%
%TO.N,N/C*%
X207451479Y-177016100D03*
%TD*%
%TO.P,REF\u002A\u002A40,1*%
%TO.N,N/C*%
X309051479Y-278616100D03*
%TD*%
D11*
%TO.P,J6,1,Pin_1*%
%TO.N,/a6*%
X194751479Y-265916100D03*
D12*
X194751479Y-265916100D03*
%TD*%
D11*
%TO.P,J63,1,Pin_1*%
%TO.N,/h7*%
X372551479Y-291316100D03*
D12*
X372551479Y-291316100D03*
%TD*%
D11*
%TO.P,J53,1,Pin_1*%
%TO.N,/g5*%
X347151479Y-240516100D03*
D12*
X347151479Y-240516100D03*
%TD*%
D11*
%TO.P,J13,1,Pin_1*%
%TO.N,/b5*%
X220151479Y-240516100D03*
D12*
X220151479Y-240516100D03*
%TD*%
D11*
%TO.P,J61,1,Pin_1*%
%TO.N,/h5*%
X372551479Y-240516100D03*
D12*
X372551479Y-240516100D03*
%TD*%
D10*
%TO.P,REF\u002A\u002A28,1*%
%TO.N,N/C*%
X258251479Y-227816100D03*
%TD*%
%TO.P,REF\u002A\u002A18,1*%
%TO.N,N/C*%
X334451479Y-202416100D03*
%TD*%
D11*
%TO.P,J32,1,Pin_1*%
%TO.N,/d8*%
X270951479Y-316716100D03*
D12*
X270951479Y-316716100D03*
%TD*%
D11*
%TO.P,J54,1,Pin_1*%
%TO.N,/g6*%
X347151479Y-265916100D03*
D12*
X347151479Y-265916100D03*
%TD*%
D11*
%TO.P,J11,1,Pin_1*%
%TO.N,/b3*%
X220151479Y-189716100D03*
D12*
X220151479Y-189716100D03*
%TD*%
D11*
%TO.P,J30,1,Pin_1*%
%TO.N,/d6*%
X270951479Y-265916100D03*
D12*
X270951479Y-265916100D03*
%TD*%
D10*
%TO.P,REF\u002A\u002A37,1*%
%TO.N,N/C*%
X207451479Y-253216100D03*
%TD*%
%TO.P,REF\u002A\u002A15,1*%
%TO.N,N/C*%
X232851479Y-177016100D03*
%TD*%
%TO.P,REF\u002A\u002A47,1*%
%TO.N,N/C*%
X309051479Y-304016100D03*
%TD*%
%TO.P,REF\u002A\u002A36,1*%
%TO.N,N/C*%
X232851479Y-253216100D03*
%TD*%
D11*
%TO.P,J51,1,Pin_1*%
%TO.N,/g3*%
X347151479Y-189716100D03*
D12*
X347151479Y-189716100D03*
%TD*%
D10*
%TO.P,REF\u002A\u002A38,1*%
%TO.N,N/C*%
X359851479Y-278616100D03*
%TD*%
%TO.P,REF\u002A\u002A12,1*%
%TO.N,N/C*%
X309051479Y-177016100D03*
%TD*%
%TO.P,REF\u002A\u002A43,1*%
%TO.N,N/C*%
X232851479Y-278616100D03*
%TD*%
D11*
%TO.P,J5,1,Pin_1*%
%TO.N,/a5*%
X194751479Y-240516100D03*
D12*
X194751479Y-240516100D03*
%TD*%
D11*
%TO.P,J60,1,Pin_1*%
%TO.N,/h4*%
X372551479Y-215116100D03*
D12*
X372551479Y-215116100D03*
%TD*%
D10*
%TO.P,REF\u002A\u002A5,1*%
%TO.N,N/C*%
X309051479Y-151616100D03*
%TD*%
%TO.P,REF\u002A\u002A30,1*%
%TO.N,N/C*%
X207451479Y-227816100D03*
%TD*%
%TO.P,REF\u002A\u002A11,1*%
%TO.N,N/C*%
X334451479Y-177016100D03*
%TD*%
D11*
%TO.P,J1,1,Pin_1*%
%TO.N,/a1*%
X194751479Y-138916100D03*
D12*
X194751479Y-138916100D03*
%TD*%
D11*
%TO.P,J59,1,Pin_1*%
%TO.N,/h3*%
X372551479Y-189716100D03*
D12*
X372551479Y-189716100D03*
%TD*%
D11*
%TO.P,J56,1,Pin_1*%
%TO.N,/g8*%
X347151479Y-316716100D03*
D12*
X347151479Y-316716100D03*
%TD*%
D10*
%TO.P,REF\u002A\u002A39,1*%
%TO.N,N/C*%
X334451479Y-278616100D03*
%TD*%
%TO.P,REF\u002A\u002A32,1*%
%TO.N,N/C*%
X334451479Y-253216100D03*
%TD*%
D11*
%TO.P,J31,1,Pin_1*%
%TO.N,/d7*%
X270951479Y-291316100D03*
D12*
X270951479Y-291316100D03*
%TD*%
D10*
%TO.P,REF\u002A\u002A33,1*%
%TO.N,N/C*%
X309051479Y-253216100D03*
%TD*%
D11*
%TO.P,J52,1,Pin_1*%
%TO.N,/g4*%
X347151479Y-215116100D03*
D12*
X347151479Y-215116100D03*
%TD*%
D11*
%TO.P,J20,1,Pin_1*%
%TO.N,/c4*%
X245551479Y-215116100D03*
D12*
X245551479Y-215116100D03*
%TD*%
D11*
%TO.P,J37,1,Pin_1*%
%TO.N,/e5*%
X296351479Y-240516100D03*
D12*
X296351479Y-240516100D03*
%TD*%
D11*
%TO.P,J40,1,Pin_1*%
%TO.N,/e8*%
X296351479Y-316716100D03*
D12*
X296351479Y-316716100D03*
%TD*%
D11*
%TO.P,J42,1,Pin_1*%
%TO.N,/f2*%
X321751479Y-164316100D03*
D12*
X321751479Y-164316100D03*
%TD*%
D10*
%TO.P,REF\u002A\u002A25,1*%
%TO.N,N/C*%
X334451479Y-227816100D03*
%TD*%
D11*
%TO.P,J33,1,Pin_1*%
%TO.N,/e1*%
X296351479Y-138916100D03*
D12*
X296351479Y-138916100D03*
%TD*%
D11*
%TO.P,J35,1,Pin_1*%
%TO.N,/e3*%
X296351479Y-189716100D03*
D12*
X296351479Y-189716100D03*
%TD*%
D10*
%TO.P,REF\u002A\u002A29,1*%
%TO.N,N/C*%
X232851479Y-227816100D03*
%TD*%
D11*
%TO.P,J2,1,Pin_1*%
%TO.N,/a2*%
X194751479Y-164316100D03*
D12*
X194751479Y-164316100D03*
%TD*%
D10*
%TO.P,REF\u002A\u002A46,1*%
%TO.N,N/C*%
X334451479Y-304016100D03*
%TD*%
%TO.P,REF\u002A\u002A10,1*%
%TO.N,N/C*%
X359851479Y-177016100D03*
%TD*%
%TO.P,REF\u002A\u002A41,1*%
%TO.N,N/C*%
X283651479Y-278616100D03*
%TD*%
%TO.P,REF\u002A\u002A8,1*%
%TO.N,N/C*%
X232851479Y-151616100D03*
%TD*%
D11*
%TO.P,J46,1,Pin_1*%
%TO.N,/f6*%
X321751479Y-265916100D03*
D12*
X321751479Y-265916100D03*
%TD*%
D10*
%TO.P,REF\u002A\u002A20,1*%
%TO.N,N/C*%
X283651479Y-202416100D03*
%TD*%
%TO.P,REF\u002A\u002A24,1*%
%TO.N,N/C*%
X359851479Y-227816100D03*
%TD*%
%TO.P,REF\u002A\u002A31,1*%
%TO.N,N/C*%
X359851479Y-253216100D03*
%TD*%
D11*
%TO.P,J55,1,Pin_1*%
%TO.N,/g7*%
X347151479Y-291316100D03*
D12*
X347151479Y-291316100D03*
%TD*%
D11*
%TO.P,J62,1,Pin_1*%
%TO.N,/h6*%
X372551479Y-265916100D03*
D12*
X372551479Y-265916100D03*
%TD*%
D11*
%TO.P,J18,1,Pin_1*%
%TO.N,/c2*%
X245551479Y-164316100D03*
D12*
X245551479Y-164316100D03*
%TD*%
D11*
%TO.P,J64,1,Pin_1*%
%TO.N,/h8*%
X372551479Y-316716100D03*
D12*
X372551479Y-316716100D03*
%TD*%
D11*
%TO.P,J19,1,Pin_1*%
%TO.N,/c3*%
X245551479Y-189716100D03*
D12*
X245551479Y-189716100D03*
%TD*%
D10*
%TO.P,REF\u002A\u002A4,1*%
%TO.N,N/C*%
X334451479Y-151616100D03*
%TD*%
D11*
%TO.P,J8,1,Pin_1*%
%TO.N,/a8*%
X194751479Y-316716100D03*
D12*
X194751479Y-316716100D03*
%TD*%
D10*
%TO.P,REF\u002A\u002A26,1*%
%TO.N,N/C*%
X309051479Y-227816100D03*
%TD*%
D11*
%TO.P,J48,1,Pin_1*%
%TO.N,/f8*%
X321751479Y-316716100D03*
D12*
X321751479Y-316716100D03*
%TD*%
D10*
%TO.P,REF\u002A\u002A42,1*%
%TO.N,N/C*%
X258251479Y-278616100D03*
%TD*%
%TO.P,REF\u002A\u002A13,1*%
%TO.N,N/C*%
X283651479Y-177016100D03*
%TD*%
%TO.P,REF\u002A\u002A44,1*%
%TO.N,N/C*%
X207451479Y-278616100D03*
%TD*%
D11*
%TO.P,J9,1,Pin_1*%
%TO.N,/b1*%
X220151479Y-138916100D03*
D12*
X220151479Y-138916100D03*
%TD*%
D11*
%TO.P,J43,1,Pin_1*%
%TO.N,/f3*%
X321751479Y-189716100D03*
D12*
X321751479Y-189716100D03*
%TD*%
D11*
%TO.P,J58,1,Pin_1*%
%TO.N,/h2*%
X372551479Y-164316100D03*
D12*
X372551479Y-164316100D03*
%TD*%
D11*
%TO.P,J3,1,Pin_1*%
%TO.N,/a3*%
X194751479Y-189716100D03*
D12*
X194751479Y-189716100D03*
%TD*%
D11*
%TO.P,J44,1,Pin_1*%
%TO.N,/f4*%
X321751479Y-215116100D03*
D12*
X321751479Y-215116100D03*
%TD*%
D11*
%TO.P,J16,1,Pin_1*%
%TO.N,/b8*%
X220151479Y-316716100D03*
D12*
X220151479Y-316716100D03*
%TD*%
D11*
%TO.P,J49,1,Pin_1*%
%TO.N,/g1*%
X347151479Y-138916100D03*
D12*
X347151479Y-138916100D03*
%TD*%
D11*
%TO.P,J26,1,Pin_1*%
%TO.N,/d2*%
X270951479Y-164316100D03*
D12*
X270951479Y-164316100D03*
%TD*%
M02*
