M48
; DRILL file {KiCad 7.0.2} date Mon May 22 19:29:01 2023
; FORMAT={-:-/ absolute / inch / decimal}
; #@! TF.CreationDate,2023-05-22T19:29:01+02:00
; #@! TF.GenerationSoftware,Kicad,Pcbnew,7.0.2
; #@! TF.FileFunction,Plated,1,2,PTH
FMAT,2
INCH
; #@! TA.AperFunction,Plated,PTH,ComponentDrill
T1C0.0177
%
G90
G05
T1
X7.6674Y-5.4691
X7.6674Y-6.4691
X7.6674Y-7.4691
X7.6674Y-8.4691
X7.6674Y-9.4691
X7.6674Y-10.4691
X7.6674Y-11.4691
X7.6674Y-12.4691
X8.6674Y-5.4691
X8.6674Y-6.4691
X8.6674Y-7.4691
X8.6674Y-8.4691
X8.6674Y-9.4691
X8.6674Y-10.4691
X8.6674Y-11.4691
X8.6674Y-12.4691
X9.6674Y-5.4691
X9.6674Y-6.4691
X9.6674Y-7.4691
X9.6674Y-8.4691
X9.6674Y-9.4691
X9.6674Y-10.4691
X9.6674Y-11.4691
X9.6674Y-12.4691
X10.6674Y-5.4691
X10.6674Y-6.4691
X10.6674Y-7.4691
X10.6674Y-8.4691
X10.6674Y-9.4691
X10.6674Y-10.4691
X10.6674Y-11.4691
X10.6674Y-12.4691
X11.6674Y-5.4691
X11.6674Y-6.4691
X11.6674Y-7.4691
X11.6674Y-8.4691
X11.6674Y-9.4691
X11.6674Y-10.4691
X11.6674Y-11.4691
X11.6674Y-12.4691
X12.6674Y-5.4691
X12.6674Y-6.4691
X12.6674Y-7.4691
X12.6674Y-8.4691
X12.6674Y-9.4691
X12.6674Y-10.4691
X12.6674Y-11.4691
X12.6674Y-12.4691
X13.6674Y-5.4691
X13.6674Y-6.4691
X13.6674Y-7.4691
X13.6674Y-8.4691
X13.6674Y-9.4691
X13.6674Y-10.4691
X13.6674Y-11.4691
X13.6674Y-12.4691
X14.6674Y-5.4691
X14.6674Y-6.4691
X14.6674Y-7.4691
X14.6674Y-8.4691
X14.6674Y-9.4691
X14.6674Y-10.4691
X14.6674Y-11.4691
X14.6674Y-12.4691
T0
M30
