M48
; DRILL file {KiCad 7.0.2} date Mon May 22 19:30:01 2023
; FORMAT={-:-/ absolute / inch / decimal}
; #@! TF.CreationDate,2023-05-22T19:30:01+02:00
; #@! TF.GenerationSoftware,Kicad,Pcbnew,7.0.2
; #@! TF.FileFunction,Plated,1,4,PTH
FMAT,2
INCH
; #@! TA.AperFunction,Plated,PTH,ViaDrill
T1C0.0157
; #@! TA.AperFunction,Plated,PTH,ComponentDrill
T2C0.0177
; #@! TA.AperFunction,Plated,PTH,ComponentDrill
T3C0.0670
%
G90
G05
T1
X7.078Y-3.2581
X7.078Y-3.3976
X7.078Y-3.5371
X7.078Y-3.6766
X7.078Y-3.8161
X7.078Y-3.9556
X7.078Y-4.0951
X7.078Y-4.2346
X7.078Y-4.3742
X7.078Y-4.5137
X7.078Y-4.6532
X7.078Y-4.7927
X7.078Y-4.9322
X7.078Y-5.0717
X7.078Y-5.2112
X7.078Y-5.3507
X7.078Y-5.4903
X7.078Y-5.6298
X7.078Y-5.7693
X7.078Y-5.9088
X7.078Y-6.0483
X7.078Y-6.1878
X7.078Y-6.3273
X7.078Y-6.4668
X7.078Y-6.6064
X7.078Y-6.7459
X7.078Y-6.8854
X7.078Y-7.0249
X7.078Y-7.1644
X7.078Y-7.3039
X7.078Y-7.4434
X7.078Y-7.5829
X7.078Y-7.7225
X7.078Y-7.862
X7.078Y-8.0015
X7.078Y-8.141
X7.078Y-8.2805
X7.078Y-8.42
X7.078Y-8.5595
X7.078Y-8.699
X7.078Y-8.8386
X7.078Y-8.9781
X7.078Y-9.1176
X7.078Y-9.2571
X7.078Y-9.3966
X7.078Y-9.5361
X7.078Y-9.6756
X7.078Y-9.8151
X7.078Y-9.9547
X7.078Y-10.0942
X7.078Y-10.2337
X7.078Y-10.3732
X7.078Y-10.5127
X7.078Y-10.6522
X7.078Y-10.7917
X7.078Y-10.9312
X7.078Y-11.0708
X7.078Y-11.2103
X7.078Y-11.3498
X7.078Y-11.4893
X7.078Y-11.6288
X7.078Y-11.7683
X7.078Y-11.9078
X7.078Y-12.0473
X7.078Y-12.1869
X7.078Y-12.3264
X7.078Y-12.4659
X7.078Y-12.6054
X7.078Y-12.7449
X7.078Y-12.8844
X7.078Y-13.0239
X7.078Y-13.1634
X7.078Y-13.303
X7.1912Y-3.9556
X7.1912Y-5.3507
X7.1912Y-6.3273
X7.1912Y-7.3039
X7.1912Y-8.2805
X7.1912Y-9.2571
X7.1912Y-10.2337
X7.1912Y-11.2103
X7.1912Y-12.6054
X7.3044Y-3.9556
X7.3044Y-5.3507
X7.3044Y-6.3273
X7.3044Y-7.3039
X7.3044Y-8.2805
X7.3044Y-9.2571
X7.3044Y-10.2337
X7.3044Y-11.2103
X7.3044Y-12.6054
X7.4176Y-3.9556
X7.4176Y-5.3507
X7.4176Y-6.3273
X7.4176Y-7.3039
X7.4176Y-8.2805
X7.4176Y-9.2571
X7.4176Y-10.2337
X7.4176Y-11.2103
X7.4176Y-12.6054
X7.5308Y-2.7
X7.5308Y-3.9556
X7.5308Y-5.3507
X7.5308Y-6.3273
X7.5308Y-7.3039
X7.5308Y-8.2805
X7.5308Y-9.2571
X7.5308Y-10.2337
X7.5308Y-11.2103
X7.5308Y-12.6054
X7.5308Y-13.861
X7.644Y-13.861
X7.7571Y-3.9556
X7.7571Y-5.3507
X7.7571Y-6.3273
X7.7571Y-7.3039
X7.7571Y-8.2805
X7.7571Y-9.2571
X7.7571Y-10.2337
X7.7571Y-11.2103
X7.7571Y-12.6054
X7.7571Y-13.861
X7.8703Y-2.7
X7.8703Y-5.3507
X7.8703Y-6.3273
X7.8703Y-7.3039
X7.8703Y-8.2805
X7.8703Y-9.2571
X7.8703Y-10.2337
X7.8703Y-11.2103
X7.8703Y-13.861
X7.9097Y-3.9556
X7.9097Y-12.6054
X7.9835Y-5.3507
X7.9835Y-6.3273
X7.9835Y-7.3039
X7.9835Y-8.2805
X7.9835Y-9.2571
X7.9835Y-10.2337
X7.9835Y-11.2103
X7.9835Y-13.861
X8.0426Y-3.9556
X8.0426Y-12.6054
X8.0967Y-5.3507
X8.0967Y-6.3273
X8.0967Y-7.3039
X8.0967Y-8.2805
X8.0967Y-9.2571
X8.0967Y-10.2337
X8.0967Y-11.2103
X8.0967Y-13.861
X8.2099Y-2.7
X8.2099Y-3.9556
X8.2099Y-12.6054
X8.2099Y-13.861
X8.3231Y-3.9556
X8.3231Y-12.6054
X8.3231Y-13.861
X8.4363Y-3.9556
X8.4363Y-5.3507
X8.4363Y-6.3273
X8.4363Y-7.3039
X8.4363Y-8.2805
X8.4363Y-9.2571
X8.4363Y-10.2337
X8.4363Y-11.2103
X8.4363Y-12.6054
X8.4363Y-13.861
X8.5495Y-2.7
X8.5495Y-3.9556
X8.5495Y-5.3507
X8.5495Y-6.3273
X8.5495Y-7.3039
X8.5495Y-8.2805
X8.5495Y-9.2571
X8.5495Y-10.2337
X8.5495Y-11.2103
X8.5495Y-12.6054
X8.5495Y-13.861
X8.6627Y-5.3507
X8.6627Y-6.3273
X8.6627Y-7.3039
X8.6627Y-8.2805
X8.6627Y-9.2571
X8.6627Y-10.2337
X8.6627Y-11.2103
X8.6627Y-13.861
X8.702Y-3.9556
X8.702Y-12.6054
X8.7758Y-5.3507
X8.7758Y-6.3273
X8.7758Y-7.3039
X8.7758Y-8.2805
X8.7758Y-9.2571
X8.7758Y-10.2337
X8.7758Y-11.2103
X8.7758Y-13.861
X8.889Y-2.7
X8.889Y-3.9556
X8.889Y-12.6054
X8.889Y-13.861
X9.0022Y-5.3507
X9.0022Y-6.3273
X9.0022Y-7.3039
X9.0022Y-8.2805
X9.0022Y-9.2571
X9.0022Y-10.2337
X9.0022Y-11.2103
X9.0022Y-13.861
X9.1154Y-3.9556
X9.1154Y-5.3507
X9.1154Y-6.3273
X9.1154Y-7.3039
X9.1154Y-8.2805
X9.1154Y-9.2571
X9.1154Y-10.2337
X9.1154Y-11.2103
X9.1154Y-12.6054
X9.1154Y-13.861
X9.2286Y-2.7
X9.2286Y-3.9556
X9.2286Y-12.6054
X9.2286Y-13.861
X9.3418Y-3.9556
X9.3418Y-12.6054
X9.3418Y-13.861
X9.455Y-3.9556
X9.455Y-5.3507
X9.455Y-6.3273
X9.455Y-7.3039
X9.455Y-8.2805
X9.455Y-9.2571
X9.455Y-10.2337
X9.455Y-11.2103
X9.455Y-13.861
X9.5682Y-2.7
X9.5682Y-3.9556
X9.5682Y-5.3507
X9.5682Y-6.3273
X9.5682Y-7.3039
X9.5682Y-8.2805
X9.5682Y-9.2571
X9.5682Y-10.2337
X9.5682Y-11.2103
X9.5682Y-12.6054
X9.5682Y-13.861
X9.6814Y-3.9556
X9.6814Y-5.3507
X9.6814Y-6.3273
X9.6814Y-7.3039
X9.6814Y-8.2805
X9.6814Y-9.2571
X9.6814Y-10.2337
X9.6814Y-11.2103
X9.6814Y-12.6054
X9.6814Y-13.861
X9.7945Y-5.3507
X9.7945Y-6.3273
X9.7945Y-7.3039
X9.7945Y-8.2805
X9.7945Y-9.2571
X9.7945Y-10.2337
X9.7945Y-11.2103
X9.8339Y-3.9556
X9.8339Y-12.6054
X9.9077Y-13.861
X9.9865Y-5.3507
X9.9865Y-6.3273
X9.9865Y-7.3039
X9.9865Y-8.2805
X9.9865Y-9.2571
X9.9865Y-10.2337
X9.9865Y-11.2103
X10.0209Y-2.7
X10.0209Y-3.9556
X10.0209Y-12.6054
X10.0209Y-13.861
X10.1144Y-3.9556
X10.1144Y-12.6054
X10.1341Y-5.3507
X10.1341Y-6.3273
X10.1341Y-7.3039
X10.1341Y-8.2805
X10.1341Y-9.2571
X10.1341Y-10.2337
X10.1341Y-11.2103
X10.1341Y-13.861
X10.2256Y-12.6054
X10.2291Y-3.9551
X10.2473Y-13.861
X10.3157Y-12.6055
X10.3189Y-3.9555
X10.3605Y-2.7
X10.3605Y-5.3507
X10.3605Y-6.3273
X10.3605Y-7.3039
X10.3605Y-8.2805
X10.3605Y-9.2571
X10.3605Y-10.2337
X10.3605Y-11.2103
X10.3605Y-13.861
X10.4737Y-3.9556
X10.4737Y-5.3507
X10.4737Y-7.3039
X10.4737Y-8.2805
X10.4737Y-9.2571
X10.4737Y-10.2337
X10.4737Y-11.2103
X10.4737Y-12.6054
X10.4737Y-13.861
X10.5869Y-3.9556
X10.5869Y-5.3507
X10.5869Y-7.3039
X10.5869Y-8.2805
X10.5869Y-9.2571
X10.5869Y-10.2337
X10.5869Y-11.2103
X10.5869Y-12.6054
X10.5869Y-13.861
X10.7001Y-2.7
X10.7001Y-3.9556
X10.7001Y-5.3507
X10.7001Y-7.3039
X10.7001Y-8.2805
X10.7001Y-9.2571
X10.7001Y-10.2337
X10.7001Y-11.2103
X10.7001Y-12.6054
X10.7001Y-13.861
X10.8132Y-5.3507
X10.8132Y-7.3039
X10.8132Y-8.2805
X10.8132Y-9.2571
X10.8132Y-10.2337
X10.8132Y-11.2103
X10.8132Y-13.861
X10.8329Y-3.9556
X10.8329Y-12.6054
X10.8894Y-3.1835
X10.9264Y-13.861
X10.9497Y-13.3409
X10.9524Y-3.1835
X10.9806Y-3.9556
X10.9806Y-12.6054
X10.9855Y-5.3507
X10.9855Y-6.3273
X10.9855Y-7.3039
X10.9855Y-8.2805
X10.9855Y-9.2571
X10.9855Y-10.2337
X10.9855Y-11.2103
X11.0127Y-13.3409
X11.0154Y-3.1835
X11.0396Y-2.7
X11.0396Y-13.861
X11.0756Y-13.3409
X11.0784Y-3.1835
X11.1386Y-13.3409
X11.1414Y-3.1835
X11.1528Y-3.9556
X11.1528Y-5.3507
X11.1528Y-6.3273
X11.1528Y-7.3039
X11.1528Y-8.2805
X11.1528Y-9.2571
X11.1528Y-10.2337
X11.1528Y-11.2103
X11.1528Y-12.6054
X11.1528Y-13.861
X11.2016Y-13.3409
X11.2044Y-3.1835
X11.2646Y-13.3409
X11.266Y-3.9556
X11.266Y-12.6054
X11.266Y-13.861
X11.2674Y-3.1835
X11.3276Y-13.3409
X11.3304Y-3.1835
X11.3792Y-2.7
X11.3792Y-3.9556
X11.3792Y-5.3507
X11.3792Y-6.3273
X11.3792Y-7.3039
X11.3792Y-8.2805
X11.3792Y-9.2571
X11.3792Y-10.2337
X11.3792Y-11.2103
X11.3792Y-12.6054
X11.3792Y-13.861
X11.3906Y-13.3409
X11.3934Y-3.1835
X11.4536Y-13.3409
X11.4564Y-3.1835
X11.4924Y-13.861
X11.5166Y-13.3409
X11.5193Y-3.1835
X11.5514Y-3.9556
X11.5514Y-5.3507
X11.5514Y-6.3273
X11.5514Y-7.3039
X11.5514Y-8.2805
X11.5514Y-9.2571
X11.5514Y-10.2337
X11.5514Y-11.2103
X11.5514Y-12.6054
X11.5796Y-13.3409
X11.5823Y-3.1835
X11.6056Y-13.861
X11.6426Y-13.3409
X11.6991Y-3.9556
X11.6991Y-12.6054
X11.7188Y-2.7
X11.7188Y-5.3507
X11.7188Y-7.3039
X11.7188Y-8.2805
X11.7188Y-9.2571
X11.7188Y-10.2337
X11.7188Y-11.2103
X11.7188Y-13.861
X11.8319Y-3.9556
X11.8319Y-5.3507
X11.8319Y-7.3039
X11.8319Y-8.2805
X11.8319Y-9.2571
X11.8319Y-10.2337
X11.8319Y-11.2103
X11.8319Y-12.6054
X11.8319Y-13.861
X11.9451Y-3.9556
X11.9451Y-5.3507
X11.9451Y-7.3039
X11.9451Y-8.2805
X11.9451Y-9.2571
X11.9451Y-10.2337
X11.9451Y-11.2103
X11.9451Y-12.6054
X11.9451Y-13.861
X12.0583Y-2.7
X12.0583Y-3.9556
X12.0583Y-5.3507
X12.0583Y-7.3039
X12.0583Y-8.2805
X12.0583Y-9.2571
X12.0583Y-10.2337
X12.0583Y-11.2103
X12.0583Y-12.6054
X12.0583Y-13.861
X12.1715Y-5.3507
X12.1715Y-6.3273
X12.1715Y-7.3039
X12.1715Y-8.2805
X12.1715Y-9.2571
X12.1715Y-10.2337
X12.1715Y-11.2103
X12.1715Y-13.861
X12.2134Y-12.6063
X12.2154Y-3.9555
X12.2847Y-13.861
X12.3039Y-12.6054
X12.3051Y-3.9556
X12.3979Y-2.7
X12.3979Y-5.3507
X12.3979Y-6.3273
X12.3979Y-7.3039
X12.3979Y-8.2805
X12.3979Y-9.2571
X12.3979Y-10.2337
X12.3979Y-11.2103
X12.3979Y-13.861
X12.4176Y-3.9556
X12.4176Y-12.6054
X12.5111Y-3.9556
X12.5111Y-12.6054
X12.5111Y-13.861
X12.5504Y-5.3507
X12.5504Y-6.3273
X12.5504Y-7.3039
X12.5504Y-8.2805
X12.5504Y-9.2571
X12.5504Y-10.2337
X12.5504Y-11.2103
X12.6243Y-13.861
X12.6981Y-3.9556
X12.6981Y-12.6054
X12.7375Y-5.3507
X12.7375Y-6.3273
X12.7375Y-7.3039
X12.7375Y-8.2805
X12.7375Y-9.2571
X12.7375Y-10.2337
X12.7375Y-11.2103
X12.8506Y-2.7
X12.8506Y-3.9556
X12.8506Y-5.3507
X12.8506Y-6.3273
X12.8506Y-7.3039
X12.8506Y-8.2805
X12.8506Y-9.2571
X12.8506Y-10.2337
X12.8506Y-11.2103
X12.8506Y-12.6054
X12.8506Y-13.861
X12.9638Y-3.9556
X12.9638Y-5.3507
X12.9638Y-6.3273
X12.9638Y-7.3039
X12.9638Y-8.2805
X12.9638Y-9.2571
X12.9638Y-10.2337
X12.9638Y-11.2103
X12.9638Y-12.6054
X12.9638Y-13.861
X13.077Y-5.3507
X13.077Y-6.3273
X13.077Y-7.3039
X13.077Y-8.2805
X13.077Y-9.2571
X13.077Y-10.2337
X13.077Y-11.2103
X13.077Y-12.6054
X13.077Y-13.861
X13.1902Y-2.7
X13.1902Y-3.9556
X13.1902Y-12.6054
X13.1902Y-13.861
X13.3034Y-3.9556
X13.3034Y-12.6054
X13.3034Y-13.861
X13.4166Y-3.9556
X13.4166Y-5.3507
X13.4166Y-6.3273
X13.4166Y-7.3039
X13.4166Y-8.2805
X13.4166Y-9.2571
X13.4166Y-10.2337
X13.4166Y-11.2103
X13.4166Y-12.6054
X13.4166Y-13.861
X13.5298Y-2.7
X13.5298Y-5.3507
X13.5298Y-6.3273
X13.5298Y-7.3039
X13.5298Y-8.2805
X13.5298Y-9.2571
X13.5298Y-10.2337
X13.5298Y-11.2103
X13.5298Y-13.861
X13.643Y-3.9556
X13.643Y-12.6054
X13.643Y-13.861
X13.7562Y-5.3507
X13.7562Y-6.3273
X13.7562Y-7.3039
X13.7562Y-8.2805
X13.7562Y-9.2571
X13.7562Y-10.2337
X13.7562Y-11.2103
X13.7562Y-13.861
X13.83Y-3.9556
X13.83Y-12.6054
X13.8693Y-2.7
X13.8693Y-5.3507
X13.8693Y-6.3273
X13.8693Y-7.3039
X13.8693Y-8.2805
X13.8693Y-9.2571
X13.8693Y-10.2337
X13.8693Y-11.2103
X13.8693Y-13.861
X13.9825Y-3.9556
X13.9825Y-5.3507
X13.9825Y-6.3273
X13.9825Y-7.3039
X13.9825Y-8.2805
X13.9825Y-9.2571
X13.9825Y-10.2337
X13.9825Y-11.2103
X13.9825Y-12.6054
X13.9825Y-13.861
X14.0957Y-3.9556
X14.0957Y-5.3507
X14.0957Y-6.3273
X14.0957Y-7.3039
X14.0957Y-8.2805
X14.0957Y-9.2571
X14.0957Y-10.2337
X14.0957Y-11.2103
X14.0957Y-12.6054
X14.0957Y-13.861
X14.2089Y-2.7
X14.2089Y-3.9556
X14.2089Y-12.6054
X14.2089Y-13.861
X14.3221Y-3.9556
X14.3221Y-12.6054
X14.3221Y-13.861
X14.4353Y-5.3507
X14.4353Y-6.3273
X14.4353Y-7.3039
X14.4353Y-8.2805
X14.4353Y-9.2571
X14.4353Y-10.2337
X14.4353Y-11.2103
X14.4353Y-13.861
X14.4894Y-3.9556
X14.4894Y-12.6054
X14.5485Y-2.7
X14.5485Y-5.3507
X14.5485Y-6.3273
X14.5485Y-7.3039
X14.5485Y-8.2805
X14.5485Y-9.2571
X14.5485Y-10.2337
X14.5485Y-11.2103
X14.5485Y-13.861
X14.6223Y-3.9556
X14.6223Y-12.6054
X14.6617Y-5.3507
X14.6617Y-6.3273
X14.6617Y-7.3039
X14.6617Y-8.2805
X14.6617Y-9.2571
X14.6617Y-10.2337
X14.6617Y-11.2103
X14.6617Y-13.861
X14.7749Y-3.9556
X14.7749Y-5.3507
X14.7749Y-6.3273
X14.7749Y-7.3039
X14.7749Y-8.2805
X14.7749Y-9.2571
X14.7749Y-10.2337
X14.7749Y-11.2103
X14.7749Y-12.6054
X14.7749Y-13.861
X14.888Y-2.7
X14.888Y-13.861
X15.0012Y-3.9556
X15.0012Y-5.3507
X15.0012Y-6.3273
X15.0012Y-7.3039
X15.0012Y-8.2805
X15.0012Y-9.2571
X15.0012Y-10.2337
X15.0012Y-11.2103
X15.0012Y-12.6054
X15.0012Y-13.861
X15.1144Y-3.9556
X15.1144Y-5.3507
X15.1144Y-6.3273
X15.1144Y-7.3039
X15.1144Y-8.2805
X15.1144Y-9.2571
X15.1144Y-10.2337
X15.1144Y-11.2103
X15.1144Y-12.6054
X15.2276Y-3.9556
X15.2276Y-5.3507
X15.2276Y-6.3273
X15.2276Y-7.3039
X15.2276Y-8.2805
X15.2276Y-9.2571
X15.2276Y-10.2337
X15.2276Y-11.2103
X15.2276Y-12.6054
X15.3408Y-3.9556
X15.3408Y-5.3507
X15.3408Y-6.3273
X15.3408Y-7.3039
X15.3408Y-8.2805
X15.3408Y-9.2571
X15.3408Y-10.2337
X15.3408Y-11.2103
X15.3408Y-12.6054
X15.454Y-3.2581
X15.454Y-3.3976
X15.454Y-3.5371
X15.454Y-3.6766
X15.454Y-3.8161
X15.454Y-3.9556
X15.454Y-4.0951
X15.454Y-4.2346
X15.454Y-4.3742
X15.454Y-4.5137
X15.454Y-4.6532
X15.454Y-4.7927
X15.454Y-4.9322
X15.454Y-5.0717
X15.454Y-5.2112
X15.454Y-5.3507
X15.454Y-5.4903
X15.454Y-5.6298
X15.454Y-5.7693
X15.454Y-5.9088
X15.454Y-6.0483
X15.454Y-6.1878
X15.454Y-6.3273
X15.454Y-6.4668
X15.454Y-6.6064
X15.454Y-6.7459
X15.454Y-6.8854
X15.454Y-7.0249
X15.454Y-7.1644
X15.454Y-7.3039
X15.454Y-7.4434
X15.454Y-7.5829
X15.454Y-7.7225
X15.454Y-7.862
X15.454Y-8.0015
X15.454Y-8.141
X15.454Y-8.2805
X15.454Y-8.42
X15.454Y-8.5595
X15.454Y-8.699
X15.454Y-8.8386
X15.454Y-8.9781
X15.454Y-9.1176
X15.454Y-9.2571
X15.454Y-9.3966
X15.454Y-9.5361
X15.454Y-9.6756
X15.454Y-9.8151
X15.454Y-9.9547
X15.454Y-10.0942
X15.454Y-10.2337
X15.454Y-10.3732
X15.454Y-10.5127
X15.454Y-10.6522
X15.454Y-10.7917
X15.454Y-10.9312
X15.454Y-11.0708
X15.454Y-11.2103
X15.454Y-11.3498
X15.454Y-11.4893
X15.454Y-11.6288
X15.454Y-11.7683
X15.454Y-11.9078
X15.454Y-12.0473
X15.454Y-12.1869
X15.454Y-12.3264
X15.454Y-12.4659
X15.454Y-12.6054
X15.454Y-12.7449
X15.454Y-12.8844
X15.454Y-13.0239
X15.454Y-13.1634
X15.454Y-13.303
T2
X7.766Y-4.781
X7.766Y-5.781
X7.766Y-6.781
X7.766Y-7.781
X7.766Y-8.781
X7.766Y-9.781
X7.766Y-10.781
X7.766Y-11.781
X8.766Y-4.781
X8.766Y-5.781
X8.766Y-6.781
X8.766Y-7.781
X8.766Y-8.781
X8.766Y-9.781
X8.766Y-10.781
X8.766Y-11.781
X9.766Y-4.781
X9.766Y-5.781
X9.766Y-6.781
X9.766Y-7.781
X9.766Y-8.781
X9.766Y-9.781
X9.766Y-10.781
X9.766Y-11.781
X10.766Y-4.781
X10.766Y-5.781
X10.766Y-6.781
X10.766Y-7.781
X10.766Y-8.781
X10.766Y-9.781
X10.766Y-10.781
X10.766Y-11.781
X11.766Y-4.781
X11.766Y-5.781
X11.766Y-6.781
X11.766Y-7.781
X11.766Y-8.781
X11.766Y-9.781
X11.766Y-10.781
X11.766Y-11.781
X12.766Y-4.781
X12.766Y-5.781
X12.766Y-6.781
X12.766Y-7.781
X12.766Y-8.781
X12.766Y-9.781
X12.766Y-10.781
X12.766Y-11.781
X13.766Y-4.781
X13.766Y-5.781
X13.766Y-6.781
X13.766Y-7.781
X13.766Y-8.781
X13.766Y-9.781
X13.766Y-10.781
X13.766Y-11.781
X14.766Y-4.781
X14.766Y-5.781
X14.766Y-6.781
X14.766Y-7.781
X14.766Y-8.781
X14.766Y-9.781
X14.766Y-10.781
X14.766Y-11.781
T3
X8.0083Y-13.5402
X8.0083Y-13.7402
X8.0094Y-2.8252
X8.0094Y-3.0252
X8.2083Y-13.5402
X8.2083Y-13.7402
X8.2094Y-2.8252
X8.2094Y-3.0252
X10.5264Y-6.2004
X10.5264Y-6.4004
X10.7264Y-6.2004
X10.7264Y-6.4004
X11.8063Y-6.2024
X11.8063Y-6.4024
X12.0063Y-6.2024
X12.0063Y-6.4024
X14.3217Y-13.5413
X14.3217Y-13.7413
X14.3299Y-2.824
X14.3299Y-3.024
X14.5217Y-13.5413
X14.5217Y-13.7413
X14.5299Y-2.824
X14.5299Y-3.024
T0
M30
