%TF.GenerationSoftware,KiCad,Pcbnew,7.0.2*%
%TF.CreationDate,2023-05-22T19:30:06+02:00*%
%TF.ProjectId,Board2 - Housing and Samtech,426f6172-6432-4202-9d20-486f7573696e,rev?*%
%TF.SameCoordinates,Original*%
%TF.FileFunction,Legend,Bot*%
%TF.FilePolarity,Positive*%
%FSLAX46Y46*%
G04 Gerber Fmt 4.6, Leading zero omitted, Abs format (unit mm)*
G04 Created by KiCad (PCBNEW 7.0.2) date 2023-05-22 19:30:06*
%MOMM*%
%LPD*%
G01*
G04 APERTURE LIST*
%ADD10C,0.300000*%
%ADD11C,0.150000*%
%ADD12C,0.120000*%
%ADD13C,0.200000*%
G04 APERTURE END LIST*
D10*
X404059285Y-85752855D02*
X403987857Y-85538569D01*
X403987857Y-85538569D02*
X403916428Y-85467140D01*
X403916428Y-85467140D02*
X403773571Y-85395712D01*
X403773571Y-85395712D02*
X403559285Y-85395712D01*
X403559285Y-85395712D02*
X403416428Y-85467140D01*
X403416428Y-85467140D02*
X403345000Y-85538569D01*
X403345000Y-85538569D02*
X403273571Y-85681426D01*
X403273571Y-85681426D02*
X403273571Y-86252855D01*
X403273571Y-86252855D02*
X404773571Y-86252855D01*
X404773571Y-86252855D02*
X404773571Y-85752855D01*
X404773571Y-85752855D02*
X404702142Y-85609998D01*
X404702142Y-85609998D02*
X404630714Y-85538569D01*
X404630714Y-85538569D02*
X404487857Y-85467140D01*
X404487857Y-85467140D02*
X404345000Y-85467140D01*
X404345000Y-85467140D02*
X404202142Y-85538569D01*
X404202142Y-85538569D02*
X404130714Y-85609998D01*
X404130714Y-85609998D02*
X404059285Y-85752855D01*
X404059285Y-85752855D02*
X404059285Y-86252855D01*
X403273571Y-84538569D02*
X403345000Y-84681426D01*
X403345000Y-84681426D02*
X403416428Y-84752855D01*
X403416428Y-84752855D02*
X403559285Y-84824283D01*
X403559285Y-84824283D02*
X403987857Y-84824283D01*
X403987857Y-84824283D02*
X404130714Y-84752855D01*
X404130714Y-84752855D02*
X404202142Y-84681426D01*
X404202142Y-84681426D02*
X404273571Y-84538569D01*
X404273571Y-84538569D02*
X404273571Y-84324283D01*
X404273571Y-84324283D02*
X404202142Y-84181426D01*
X404202142Y-84181426D02*
X404130714Y-84109998D01*
X404130714Y-84109998D02*
X403987857Y-84038569D01*
X403987857Y-84038569D02*
X403559285Y-84038569D01*
X403559285Y-84038569D02*
X403416428Y-84109998D01*
X403416428Y-84109998D02*
X403345000Y-84181426D01*
X403345000Y-84181426D02*
X403273571Y-84324283D01*
X403273571Y-84324283D02*
X403273571Y-84538569D01*
X403273571Y-82752855D02*
X404059285Y-82752855D01*
X404059285Y-82752855D02*
X404202142Y-82824283D01*
X404202142Y-82824283D02*
X404273571Y-82967140D01*
X404273571Y-82967140D02*
X404273571Y-83252855D01*
X404273571Y-83252855D02*
X404202142Y-83395712D01*
X403345000Y-82752855D02*
X403273571Y-82895712D01*
X403273571Y-82895712D02*
X403273571Y-83252855D01*
X403273571Y-83252855D02*
X403345000Y-83395712D01*
X403345000Y-83395712D02*
X403487857Y-83467140D01*
X403487857Y-83467140D02*
X403630714Y-83467140D01*
X403630714Y-83467140D02*
X403773571Y-83395712D01*
X403773571Y-83395712D02*
X403845000Y-83252855D01*
X403845000Y-83252855D02*
X403845000Y-82895712D01*
X403845000Y-82895712D02*
X403916428Y-82752855D01*
X403273571Y-82038569D02*
X404273571Y-82038569D01*
X403987857Y-82038569D02*
X404130714Y-81967140D01*
X404130714Y-81967140D02*
X404202142Y-81895712D01*
X404202142Y-81895712D02*
X404273571Y-81752854D01*
X404273571Y-81752854D02*
X404273571Y-81609997D01*
X403273571Y-80467141D02*
X404773571Y-80467141D01*
X403345000Y-80467141D02*
X403273571Y-80609998D01*
X403273571Y-80609998D02*
X403273571Y-80895712D01*
X403273571Y-80895712D02*
X403345000Y-81038569D01*
X403345000Y-81038569D02*
X403416428Y-81109998D01*
X403416428Y-81109998D02*
X403559285Y-81181426D01*
X403559285Y-81181426D02*
X403987857Y-81181426D01*
X403987857Y-81181426D02*
X404130714Y-81109998D01*
X404130714Y-81109998D02*
X404202142Y-81038569D01*
X404202142Y-81038569D02*
X404273571Y-80895712D01*
X404273571Y-80895712D02*
X404273571Y-80609998D01*
X404273571Y-80609998D02*
X404202142Y-80467141D01*
X404630714Y-78681426D02*
X404702142Y-78609998D01*
X404702142Y-78609998D02*
X404773571Y-78467141D01*
X404773571Y-78467141D02*
X404773571Y-78109998D01*
X404773571Y-78109998D02*
X404702142Y-77967141D01*
X404702142Y-77967141D02*
X404630714Y-77895712D01*
X404630714Y-77895712D02*
X404487857Y-77824283D01*
X404487857Y-77824283D02*
X404345000Y-77824283D01*
X404345000Y-77824283D02*
X404130714Y-77895712D01*
X404130714Y-77895712D02*
X403273571Y-78752855D01*
X403273571Y-78752855D02*
X403273571Y-77824283D01*
X404845000Y-76109998D02*
X402916428Y-77395712D01*
X404630714Y-75681426D02*
X404702142Y-75609998D01*
X404702142Y-75609998D02*
X404773571Y-75467141D01*
X404773571Y-75467141D02*
X404773571Y-75109998D01*
X404773571Y-75109998D02*
X404702142Y-74967141D01*
X404702142Y-74967141D02*
X404630714Y-74895712D01*
X404630714Y-74895712D02*
X404487857Y-74824283D01*
X404487857Y-74824283D02*
X404345000Y-74824283D01*
X404345000Y-74824283D02*
X404130714Y-74895712D01*
X404130714Y-74895712D02*
X403273571Y-75752855D01*
X403273571Y-75752855D02*
X403273571Y-74824283D01*
X403345000Y-74109998D02*
X403273571Y-74109998D01*
X403273571Y-74109998D02*
X403130714Y-74181427D01*
X403130714Y-74181427D02*
X403059285Y-74252855D01*
X404773571Y-72538569D02*
X403273571Y-72038569D01*
X403273571Y-72038569D02*
X404773571Y-71538569D01*
X403345000Y-70467141D02*
X403273571Y-70609998D01*
X403273571Y-70609998D02*
X403273571Y-70895713D01*
X403273571Y-70895713D02*
X403345000Y-71038570D01*
X403345000Y-71038570D02*
X403487857Y-71109998D01*
X403487857Y-71109998D02*
X404059285Y-71109998D01*
X404059285Y-71109998D02*
X404202142Y-71038570D01*
X404202142Y-71038570D02*
X404273571Y-70895713D01*
X404273571Y-70895713D02*
X404273571Y-70609998D01*
X404273571Y-70609998D02*
X404202142Y-70467141D01*
X404202142Y-70467141D02*
X404059285Y-70395713D01*
X404059285Y-70395713D02*
X403916428Y-70395713D01*
X403916428Y-70395713D02*
X403773571Y-71109998D01*
X403273571Y-69752856D02*
X404273571Y-69752856D01*
X403987857Y-69752856D02*
X404130714Y-69681427D01*
X404130714Y-69681427D02*
X404202142Y-69609999D01*
X404202142Y-69609999D02*
X404273571Y-69467141D01*
X404273571Y-69467141D02*
X404273571Y-69324284D01*
X403273571Y-68038570D02*
X403273571Y-68895713D01*
X403273571Y-68467142D02*
X404773571Y-68467142D01*
X404773571Y-68467142D02*
X404559285Y-68609999D01*
X404559285Y-68609999D02*
X404416428Y-68752856D01*
X404416428Y-68752856D02*
X404345000Y-68895713D01*
X403416428Y-67395714D02*
X403345000Y-67324285D01*
X403345000Y-67324285D02*
X403273571Y-67395714D01*
X403273571Y-67395714D02*
X403345000Y-67467142D01*
X403345000Y-67467142D02*
X403416428Y-67395714D01*
X403416428Y-67395714D02*
X403273571Y-67395714D01*
X404773571Y-66395713D02*
X404773571Y-66252856D01*
X404773571Y-66252856D02*
X404702142Y-66109999D01*
X404702142Y-66109999D02*
X404630714Y-66038571D01*
X404630714Y-66038571D02*
X404487857Y-65967142D01*
X404487857Y-65967142D02*
X404202142Y-65895713D01*
X404202142Y-65895713D02*
X403845000Y-65895713D01*
X403845000Y-65895713D02*
X403559285Y-65967142D01*
X403559285Y-65967142D02*
X403416428Y-66038571D01*
X403416428Y-66038571D02*
X403345000Y-66109999D01*
X403345000Y-66109999D02*
X403273571Y-66252856D01*
X403273571Y-66252856D02*
X403273571Y-66395713D01*
X403273571Y-66395713D02*
X403345000Y-66538571D01*
X403345000Y-66538571D02*
X403416428Y-66609999D01*
X403416428Y-66609999D02*
X403559285Y-66681428D01*
X403559285Y-66681428D02*
X403845000Y-66752856D01*
X403845000Y-66752856D02*
X404202142Y-66752856D01*
X404202142Y-66752856D02*
X404487857Y-66681428D01*
X404487857Y-66681428D02*
X404630714Y-66609999D01*
X404630714Y-66609999D02*
X404702142Y-66538571D01*
X404702142Y-66538571D02*
X404773571Y-66395713D01*
X401557857Y-86752854D02*
X401629285Y-86824283D01*
X401629285Y-86824283D02*
X401700714Y-86967140D01*
X401700714Y-86967140D02*
X401700714Y-87109997D01*
X401700714Y-87109997D02*
X401629285Y-87252854D01*
X401629285Y-87252854D02*
X401557857Y-87324283D01*
X401557857Y-87324283D02*
X401415000Y-87395711D01*
X401415000Y-87395711D02*
X401272142Y-87395711D01*
X401272142Y-87395711D02*
X401129285Y-87324283D01*
X401129285Y-87324283D02*
X401057857Y-87252854D01*
X401057857Y-87252854D02*
X400986428Y-87109997D01*
X400986428Y-87109997D02*
X400986428Y-86967140D01*
X400986428Y-86967140D02*
X401057857Y-86824283D01*
X401057857Y-86824283D02*
X401129285Y-86752854D01*
X401700714Y-86752854D02*
X401129285Y-86752854D01*
X401129285Y-86752854D02*
X401057857Y-86681426D01*
X401057857Y-86681426D02*
X401057857Y-86609997D01*
X401057857Y-86609997D02*
X401129285Y-86467140D01*
X401129285Y-86467140D02*
X401272142Y-86395711D01*
X401272142Y-86395711D02*
X401629285Y-86395711D01*
X401629285Y-86395711D02*
X401843571Y-86538569D01*
X401843571Y-86538569D02*
X401986428Y-86752854D01*
X401986428Y-86752854D02*
X402057857Y-87038569D01*
X402057857Y-87038569D02*
X401986428Y-87324283D01*
X401986428Y-87324283D02*
X401843571Y-87538569D01*
X401843571Y-87538569D02*
X401629285Y-87681426D01*
X401629285Y-87681426D02*
X401343571Y-87752854D01*
X401343571Y-87752854D02*
X401057857Y-87681426D01*
X401057857Y-87681426D02*
X400843571Y-87538569D01*
X400843571Y-87538569D02*
X400700714Y-87324283D01*
X400700714Y-87324283D02*
X400629285Y-87038569D01*
X400629285Y-87038569D02*
X400700714Y-86752854D01*
X400700714Y-86752854D02*
X400843571Y-86538569D01*
X402343571Y-85324283D02*
X401272142Y-85324283D01*
X401272142Y-85324283D02*
X401057857Y-85395712D01*
X401057857Y-85395712D02*
X400915000Y-85538569D01*
X400915000Y-85538569D02*
X400843571Y-85752855D01*
X400843571Y-85752855D02*
X400843571Y-85895712D01*
X400843571Y-83967141D02*
X401629285Y-83967141D01*
X401629285Y-83967141D02*
X401772142Y-84038569D01*
X401772142Y-84038569D02*
X401843571Y-84181426D01*
X401843571Y-84181426D02*
X401843571Y-84467141D01*
X401843571Y-84467141D02*
X401772142Y-84609998D01*
X400915000Y-83967141D02*
X400843571Y-84109998D01*
X400843571Y-84109998D02*
X400843571Y-84467141D01*
X400843571Y-84467141D02*
X400915000Y-84609998D01*
X400915000Y-84609998D02*
X401057857Y-84681426D01*
X401057857Y-84681426D02*
X401200714Y-84681426D01*
X401200714Y-84681426D02*
X401343571Y-84609998D01*
X401343571Y-84609998D02*
X401415000Y-84467141D01*
X401415000Y-84467141D02*
X401415000Y-84109998D01*
X401415000Y-84109998D02*
X401486428Y-83967141D01*
X400915000Y-82609998D02*
X400843571Y-82752855D01*
X400843571Y-82752855D02*
X400843571Y-83038569D01*
X400843571Y-83038569D02*
X400915000Y-83181426D01*
X400915000Y-83181426D02*
X400986428Y-83252855D01*
X400986428Y-83252855D02*
X401129285Y-83324283D01*
X401129285Y-83324283D02*
X401557857Y-83324283D01*
X401557857Y-83324283D02*
X401700714Y-83252855D01*
X401700714Y-83252855D02*
X401772142Y-83181426D01*
X401772142Y-83181426D02*
X401843571Y-83038569D01*
X401843571Y-83038569D02*
X401843571Y-82752855D01*
X401843571Y-82752855D02*
X401772142Y-82609998D01*
X400843571Y-81967141D02*
X402343571Y-81967141D01*
X401415000Y-81824284D02*
X400843571Y-81395712D01*
X401843571Y-81395712D02*
X401272142Y-81967141D01*
X401843571Y-80895712D02*
X400843571Y-80538569D01*
X401843571Y-80181426D02*
X400843571Y-80538569D01*
X400843571Y-80538569D02*
X400486428Y-80681426D01*
X400486428Y-80681426D02*
X400415000Y-80752855D01*
X400415000Y-80752855D02*
X400343571Y-80895712D01*
X400843571Y-77752855D02*
X400843571Y-78467141D01*
X400843571Y-78467141D02*
X402343571Y-78467141D01*
X400843571Y-77252855D02*
X401843571Y-77252855D01*
X402343571Y-77252855D02*
X402272142Y-77324283D01*
X402272142Y-77324283D02*
X402200714Y-77252855D01*
X402200714Y-77252855D02*
X402272142Y-77181426D01*
X402272142Y-77181426D02*
X402343571Y-77252855D01*
X402343571Y-77252855D02*
X402200714Y-77252855D01*
X402343571Y-75109997D02*
X402343571Y-74967140D01*
X402343571Y-74967140D02*
X402272142Y-74824283D01*
X402272142Y-74824283D02*
X402200714Y-74752855D01*
X402200714Y-74752855D02*
X402057857Y-74681426D01*
X402057857Y-74681426D02*
X401772142Y-74609997D01*
X401772142Y-74609997D02*
X401415000Y-74609997D01*
X401415000Y-74609997D02*
X401129285Y-74681426D01*
X401129285Y-74681426D02*
X400986428Y-74752855D01*
X400986428Y-74752855D02*
X400915000Y-74824283D01*
X400915000Y-74824283D02*
X400843571Y-74967140D01*
X400843571Y-74967140D02*
X400843571Y-75109997D01*
X400843571Y-75109997D02*
X400915000Y-75252855D01*
X400915000Y-75252855D02*
X400986428Y-75324283D01*
X400986428Y-75324283D02*
X401129285Y-75395712D01*
X401129285Y-75395712D02*
X401415000Y-75467140D01*
X401415000Y-75467140D02*
X401772142Y-75467140D01*
X401772142Y-75467140D02*
X402057857Y-75395712D01*
X402057857Y-75395712D02*
X402200714Y-75324283D01*
X402200714Y-75324283D02*
X402272142Y-75252855D01*
X402272142Y-75252855D02*
X402343571Y-75109997D01*
X402343571Y-73252855D02*
X402343571Y-73967141D01*
X402343571Y-73967141D02*
X401629285Y-74038569D01*
X401629285Y-74038569D02*
X401700714Y-73967141D01*
X401700714Y-73967141D02*
X401772142Y-73824284D01*
X401772142Y-73824284D02*
X401772142Y-73467141D01*
X401772142Y-73467141D02*
X401700714Y-73324284D01*
X401700714Y-73324284D02*
X401629285Y-73252855D01*
X401629285Y-73252855D02*
X401486428Y-73181426D01*
X401486428Y-73181426D02*
X401129285Y-73181426D01*
X401129285Y-73181426D02*
X400986428Y-73252855D01*
X400986428Y-73252855D02*
X400915000Y-73324284D01*
X400915000Y-73324284D02*
X400843571Y-73467141D01*
X400843571Y-73467141D02*
X400843571Y-73824284D01*
X400843571Y-73824284D02*
X400915000Y-73967141D01*
X400915000Y-73967141D02*
X400986428Y-74038569D01*
X402415000Y-71467141D02*
X400486428Y-72752855D01*
X402200714Y-71038569D02*
X402272142Y-70967141D01*
X402272142Y-70967141D02*
X402343571Y-70824284D01*
X402343571Y-70824284D02*
X402343571Y-70467141D01*
X402343571Y-70467141D02*
X402272142Y-70324284D01*
X402272142Y-70324284D02*
X402200714Y-70252855D01*
X402200714Y-70252855D02*
X402057857Y-70181426D01*
X402057857Y-70181426D02*
X401915000Y-70181426D01*
X401915000Y-70181426D02*
X401700714Y-70252855D01*
X401700714Y-70252855D02*
X400843571Y-71109998D01*
X400843571Y-71109998D02*
X400843571Y-70181426D01*
X402343571Y-69252855D02*
X402343571Y-69109998D01*
X402343571Y-69109998D02*
X402272142Y-68967141D01*
X402272142Y-68967141D02*
X402200714Y-68895713D01*
X402200714Y-68895713D02*
X402057857Y-68824284D01*
X402057857Y-68824284D02*
X401772142Y-68752855D01*
X401772142Y-68752855D02*
X401415000Y-68752855D01*
X401415000Y-68752855D02*
X401129285Y-68824284D01*
X401129285Y-68824284D02*
X400986428Y-68895713D01*
X400986428Y-68895713D02*
X400915000Y-68967141D01*
X400915000Y-68967141D02*
X400843571Y-69109998D01*
X400843571Y-69109998D02*
X400843571Y-69252855D01*
X400843571Y-69252855D02*
X400915000Y-69395713D01*
X400915000Y-69395713D02*
X400986428Y-69467141D01*
X400986428Y-69467141D02*
X401129285Y-69538570D01*
X401129285Y-69538570D02*
X401415000Y-69609998D01*
X401415000Y-69609998D02*
X401772142Y-69609998D01*
X401772142Y-69609998D02*
X402057857Y-69538570D01*
X402057857Y-69538570D02*
X402200714Y-69467141D01*
X402200714Y-69467141D02*
X402272142Y-69395713D01*
X402272142Y-69395713D02*
X402343571Y-69252855D01*
X402200714Y-68181427D02*
X402272142Y-68109999D01*
X402272142Y-68109999D02*
X402343571Y-67967142D01*
X402343571Y-67967142D02*
X402343571Y-67609999D01*
X402343571Y-67609999D02*
X402272142Y-67467142D01*
X402272142Y-67467142D02*
X402200714Y-67395713D01*
X402200714Y-67395713D02*
X402057857Y-67324284D01*
X402057857Y-67324284D02*
X401915000Y-67324284D01*
X401915000Y-67324284D02*
X401700714Y-67395713D01*
X401700714Y-67395713D02*
X400843571Y-68252856D01*
X400843571Y-68252856D02*
X400843571Y-67324284D01*
X402343571Y-66824285D02*
X402343571Y-65895713D01*
X402343571Y-65895713D02*
X401772142Y-66395713D01*
X401772142Y-66395713D02*
X401772142Y-66181428D01*
X401772142Y-66181428D02*
X401700714Y-66038571D01*
X401700714Y-66038571D02*
X401629285Y-65967142D01*
X401629285Y-65967142D02*
X401486428Y-65895713D01*
X401486428Y-65895713D02*
X401129285Y-65895713D01*
X401129285Y-65895713D02*
X400986428Y-65967142D01*
X400986428Y-65967142D02*
X400915000Y-66038571D01*
X400915000Y-66038571D02*
X400843571Y-66181428D01*
X400843571Y-66181428D02*
X400843571Y-66609999D01*
X400843571Y-66609999D02*
X400915000Y-66752856D01*
X400915000Y-66752856D02*
X400986428Y-66824285D01*
X398556428Y-96324287D02*
X398485000Y-96252858D01*
X398485000Y-96252858D02*
X398413571Y-96324287D01*
X398413571Y-96324287D02*
X398485000Y-96395715D01*
X398485000Y-96395715D02*
X398556428Y-96324287D01*
X398556428Y-96324287D02*
X398413571Y-96324287D01*
X398556428Y-95610001D02*
X398485000Y-95538572D01*
X398485000Y-95538572D02*
X398413571Y-95610001D01*
X398413571Y-95610001D02*
X398485000Y-95681429D01*
X398485000Y-95681429D02*
X398556428Y-95610001D01*
X398556428Y-95610001D02*
X398413571Y-95610001D01*
X398556428Y-94895715D02*
X398485000Y-94824286D01*
X398485000Y-94824286D02*
X398413571Y-94895715D01*
X398413571Y-94895715D02*
X398485000Y-94967143D01*
X398485000Y-94967143D02*
X398556428Y-94895715D01*
X398556428Y-94895715D02*
X398413571Y-94895715D01*
X399199285Y-93681429D02*
X399127857Y-93467143D01*
X399127857Y-93467143D02*
X399056428Y-93395714D01*
X399056428Y-93395714D02*
X398913571Y-93324286D01*
X398913571Y-93324286D02*
X398699285Y-93324286D01*
X398699285Y-93324286D02*
X398556428Y-93395714D01*
X398556428Y-93395714D02*
X398485000Y-93467143D01*
X398485000Y-93467143D02*
X398413571Y-93610000D01*
X398413571Y-93610000D02*
X398413571Y-94181429D01*
X398413571Y-94181429D02*
X399913571Y-94181429D01*
X399913571Y-94181429D02*
X399913571Y-93681429D01*
X399913571Y-93681429D02*
X399842142Y-93538572D01*
X399842142Y-93538572D02*
X399770714Y-93467143D01*
X399770714Y-93467143D02*
X399627857Y-93395714D01*
X399627857Y-93395714D02*
X399485000Y-93395714D01*
X399485000Y-93395714D02*
X399342142Y-93467143D01*
X399342142Y-93467143D02*
X399270714Y-93538572D01*
X399270714Y-93538572D02*
X399199285Y-93681429D01*
X399199285Y-93681429D02*
X399199285Y-94181429D01*
X399413571Y-92038572D02*
X398413571Y-92038572D01*
X399413571Y-92681429D02*
X398627857Y-92681429D01*
X398627857Y-92681429D02*
X398485000Y-92610000D01*
X398485000Y-92610000D02*
X398413571Y-92467143D01*
X398413571Y-92467143D02*
X398413571Y-92252857D01*
X398413571Y-92252857D02*
X398485000Y-92110000D01*
X398485000Y-92110000D02*
X398556428Y-92038572D01*
X399413571Y-91538571D02*
X399413571Y-90967143D01*
X399913571Y-91324286D02*
X398627857Y-91324286D01*
X398627857Y-91324286D02*
X398485000Y-91252857D01*
X398485000Y-91252857D02*
X398413571Y-91110000D01*
X398413571Y-91110000D02*
X398413571Y-90967143D01*
X399413571Y-89467143D02*
X398413571Y-89181429D01*
X398413571Y-89181429D02*
X399127857Y-88895714D01*
X399127857Y-88895714D02*
X398413571Y-88610000D01*
X398413571Y-88610000D02*
X399413571Y-88324286D01*
X398413571Y-87752857D02*
X399913571Y-87752857D01*
X398413571Y-87110000D02*
X399199285Y-87110000D01*
X399199285Y-87110000D02*
X399342142Y-87181428D01*
X399342142Y-87181428D02*
X399413571Y-87324285D01*
X399413571Y-87324285D02*
X399413571Y-87538571D01*
X399413571Y-87538571D02*
X399342142Y-87681428D01*
X399342142Y-87681428D02*
X399270714Y-87752857D01*
X398413571Y-85752857D02*
X399199285Y-85752857D01*
X399199285Y-85752857D02*
X399342142Y-85824285D01*
X399342142Y-85824285D02*
X399413571Y-85967142D01*
X399413571Y-85967142D02*
X399413571Y-86252857D01*
X399413571Y-86252857D02*
X399342142Y-86395714D01*
X398485000Y-85752857D02*
X398413571Y-85895714D01*
X398413571Y-85895714D02*
X398413571Y-86252857D01*
X398413571Y-86252857D02*
X398485000Y-86395714D01*
X398485000Y-86395714D02*
X398627857Y-86467142D01*
X398627857Y-86467142D02*
X398770714Y-86467142D01*
X398770714Y-86467142D02*
X398913571Y-86395714D01*
X398913571Y-86395714D02*
X398985000Y-86252857D01*
X398985000Y-86252857D02*
X398985000Y-85895714D01*
X398985000Y-85895714D02*
X399056428Y-85752857D01*
X399413571Y-85252856D02*
X399413571Y-84681428D01*
X399913571Y-85038571D02*
X398627857Y-85038571D01*
X398627857Y-85038571D02*
X398485000Y-84967142D01*
X398485000Y-84967142D02*
X398413571Y-84824285D01*
X398413571Y-84824285D02*
X398413571Y-84681428D01*
X398413571Y-82395714D02*
X399199285Y-82395714D01*
X399199285Y-82395714D02*
X399342142Y-82467142D01*
X399342142Y-82467142D02*
X399413571Y-82609999D01*
X399413571Y-82609999D02*
X399413571Y-82895714D01*
X399413571Y-82895714D02*
X399342142Y-83038571D01*
X398485000Y-82395714D02*
X398413571Y-82538571D01*
X398413571Y-82538571D02*
X398413571Y-82895714D01*
X398413571Y-82895714D02*
X398485000Y-83038571D01*
X398485000Y-83038571D02*
X398627857Y-83109999D01*
X398627857Y-83109999D02*
X398770714Y-83109999D01*
X398770714Y-83109999D02*
X398913571Y-83038571D01*
X398913571Y-83038571D02*
X398985000Y-82895714D01*
X398985000Y-82895714D02*
X398985000Y-82538571D01*
X398985000Y-82538571D02*
X399056428Y-82395714D01*
X398413571Y-81681428D02*
X399913571Y-81681428D01*
X399342142Y-81681428D02*
X399413571Y-81538571D01*
X399413571Y-81538571D02*
X399413571Y-81252856D01*
X399413571Y-81252856D02*
X399342142Y-81109999D01*
X399342142Y-81109999D02*
X399270714Y-81038571D01*
X399270714Y-81038571D02*
X399127857Y-80967142D01*
X399127857Y-80967142D02*
X398699285Y-80967142D01*
X398699285Y-80967142D02*
X398556428Y-81038571D01*
X398556428Y-81038571D02*
X398485000Y-81109999D01*
X398485000Y-81109999D02*
X398413571Y-81252856D01*
X398413571Y-81252856D02*
X398413571Y-81538571D01*
X398413571Y-81538571D02*
X398485000Y-81681428D01*
X398413571Y-80109999D02*
X398485000Y-80252856D01*
X398485000Y-80252856D02*
X398556428Y-80324285D01*
X398556428Y-80324285D02*
X398699285Y-80395713D01*
X398699285Y-80395713D02*
X399127857Y-80395713D01*
X399127857Y-80395713D02*
X399270714Y-80324285D01*
X399270714Y-80324285D02*
X399342142Y-80252856D01*
X399342142Y-80252856D02*
X399413571Y-80109999D01*
X399413571Y-80109999D02*
X399413571Y-79895713D01*
X399413571Y-79895713D02*
X399342142Y-79752856D01*
X399342142Y-79752856D02*
X399270714Y-79681428D01*
X399270714Y-79681428D02*
X399127857Y-79609999D01*
X399127857Y-79609999D02*
X398699285Y-79609999D01*
X398699285Y-79609999D02*
X398556428Y-79681428D01*
X398556428Y-79681428D02*
X398485000Y-79752856D01*
X398485000Y-79752856D02*
X398413571Y-79895713D01*
X398413571Y-79895713D02*
X398413571Y-80109999D01*
X399413571Y-78324285D02*
X398413571Y-78324285D01*
X399413571Y-78967142D02*
X398627857Y-78967142D01*
X398627857Y-78967142D02*
X398485000Y-78895713D01*
X398485000Y-78895713D02*
X398413571Y-78752856D01*
X398413571Y-78752856D02*
X398413571Y-78538570D01*
X398413571Y-78538570D02*
X398485000Y-78395713D01*
X398485000Y-78395713D02*
X398556428Y-78324285D01*
X399413571Y-77824284D02*
X399413571Y-77252856D01*
X399913571Y-77609999D02*
X398627857Y-77609999D01*
X398627857Y-77609999D02*
X398485000Y-77538570D01*
X398485000Y-77538570D02*
X398413571Y-77395713D01*
X398413571Y-77395713D02*
X398413571Y-77252856D01*
X399413571Y-75609999D02*
X397913571Y-75609999D01*
X399342142Y-75609999D02*
X399413571Y-75467142D01*
X399413571Y-75467142D02*
X399413571Y-75181427D01*
X399413571Y-75181427D02*
X399342142Y-75038570D01*
X399342142Y-75038570D02*
X399270714Y-74967142D01*
X399270714Y-74967142D02*
X399127857Y-74895713D01*
X399127857Y-74895713D02*
X398699285Y-74895713D01*
X398699285Y-74895713D02*
X398556428Y-74967142D01*
X398556428Y-74967142D02*
X398485000Y-75038570D01*
X398485000Y-75038570D02*
X398413571Y-75181427D01*
X398413571Y-75181427D02*
X398413571Y-75467142D01*
X398413571Y-75467142D02*
X398485000Y-75609999D01*
X398413571Y-74252856D02*
X399413571Y-74252856D01*
X399127857Y-74252856D02*
X399270714Y-74181427D01*
X399270714Y-74181427D02*
X399342142Y-74109999D01*
X399342142Y-74109999D02*
X399413571Y-73967141D01*
X399413571Y-73967141D02*
X399413571Y-73824284D01*
X398413571Y-72681428D02*
X399199285Y-72681428D01*
X399199285Y-72681428D02*
X399342142Y-72752856D01*
X399342142Y-72752856D02*
X399413571Y-72895713D01*
X399413571Y-72895713D02*
X399413571Y-73181428D01*
X399413571Y-73181428D02*
X399342142Y-73324285D01*
X398485000Y-72681428D02*
X398413571Y-72824285D01*
X398413571Y-72824285D02*
X398413571Y-73181428D01*
X398413571Y-73181428D02*
X398485000Y-73324285D01*
X398485000Y-73324285D02*
X398627857Y-73395713D01*
X398627857Y-73395713D02*
X398770714Y-73395713D01*
X398770714Y-73395713D02*
X398913571Y-73324285D01*
X398913571Y-73324285D02*
X398985000Y-73181428D01*
X398985000Y-73181428D02*
X398985000Y-72824285D01*
X398985000Y-72824285D02*
X399056428Y-72681428D01*
X398485000Y-71324285D02*
X398413571Y-71467142D01*
X398413571Y-71467142D02*
X398413571Y-71752856D01*
X398413571Y-71752856D02*
X398485000Y-71895713D01*
X398485000Y-71895713D02*
X398556428Y-71967142D01*
X398556428Y-71967142D02*
X398699285Y-72038570D01*
X398699285Y-72038570D02*
X399127857Y-72038570D01*
X399127857Y-72038570D02*
X399270714Y-71967142D01*
X399270714Y-71967142D02*
X399342142Y-71895713D01*
X399342142Y-71895713D02*
X399413571Y-71752856D01*
X399413571Y-71752856D02*
X399413571Y-71467142D01*
X399413571Y-71467142D02*
X399342142Y-71324285D01*
X399413571Y-70895713D02*
X399413571Y-70324285D01*
X399913571Y-70681428D02*
X398627857Y-70681428D01*
X398627857Y-70681428D02*
X398485000Y-70609999D01*
X398485000Y-70609999D02*
X398413571Y-70467142D01*
X398413571Y-70467142D02*
X398413571Y-70324285D01*
X398413571Y-69824285D02*
X399413571Y-69824285D01*
X399913571Y-69824285D02*
X399842142Y-69895713D01*
X399842142Y-69895713D02*
X399770714Y-69824285D01*
X399770714Y-69824285D02*
X399842142Y-69752856D01*
X399842142Y-69752856D02*
X399913571Y-69824285D01*
X399913571Y-69824285D02*
X399770714Y-69824285D01*
X398485000Y-68467142D02*
X398413571Y-68609999D01*
X398413571Y-68609999D02*
X398413571Y-68895713D01*
X398413571Y-68895713D02*
X398485000Y-69038570D01*
X398485000Y-69038570D02*
X398556428Y-69109999D01*
X398556428Y-69109999D02*
X398699285Y-69181427D01*
X398699285Y-69181427D02*
X399127857Y-69181427D01*
X399127857Y-69181427D02*
X399270714Y-69109999D01*
X399270714Y-69109999D02*
X399342142Y-69038570D01*
X399342142Y-69038570D02*
X399413571Y-68895713D01*
X399413571Y-68895713D02*
X399413571Y-68609999D01*
X399413571Y-68609999D02*
X399342142Y-68467142D01*
X398485000Y-67252856D02*
X398413571Y-67395713D01*
X398413571Y-67395713D02*
X398413571Y-67681428D01*
X398413571Y-67681428D02*
X398485000Y-67824285D01*
X398485000Y-67824285D02*
X398627857Y-67895713D01*
X398627857Y-67895713D02*
X399199285Y-67895713D01*
X399199285Y-67895713D02*
X399342142Y-67824285D01*
X399342142Y-67824285D02*
X399413571Y-67681428D01*
X399413571Y-67681428D02*
X399413571Y-67395713D01*
X399413571Y-67395713D02*
X399342142Y-67252856D01*
X399342142Y-67252856D02*
X399199285Y-67181428D01*
X399199285Y-67181428D02*
X399056428Y-67181428D01*
X399056428Y-67181428D02*
X398913571Y-67895713D01*
X398556428Y-66324285D02*
X398485000Y-66252856D01*
X398485000Y-66252856D02*
X398413571Y-66324285D01*
X398413571Y-66324285D02*
X398485000Y-66395714D01*
X398485000Y-66395714D02*
X398556428Y-66324285D01*
X398556428Y-66324285D02*
X398413571Y-66324285D01*
X399842142Y-66609999D02*
X399913571Y-66467142D01*
X399913571Y-66467142D02*
X399913571Y-66109999D01*
X399913571Y-66109999D02*
X399842142Y-65967142D01*
X399842142Y-65967142D02*
X399699285Y-65895714D01*
X399699285Y-65895714D02*
X399556428Y-65895714D01*
X399556428Y-65895714D02*
X399413571Y-65967142D01*
X399413571Y-65967142D02*
X399342142Y-66038571D01*
X399342142Y-66038571D02*
X399270714Y-66181428D01*
X399270714Y-66181428D02*
X399199285Y-66252856D01*
X399199285Y-66252856D02*
X399056428Y-66324285D01*
X399056428Y-66324285D02*
X398985000Y-66324285D01*
D11*
%TO.C,*%
%TO.C,REF\u002A\u002A*%
X207283333Y-342072619D02*
X207616666Y-341596428D01*
X207854761Y-342072619D02*
X207854761Y-341072619D01*
X207854761Y-341072619D02*
X207473809Y-341072619D01*
X207473809Y-341072619D02*
X207378571Y-341120238D01*
X207378571Y-341120238D02*
X207330952Y-341167857D01*
X207330952Y-341167857D02*
X207283333Y-341263095D01*
X207283333Y-341263095D02*
X207283333Y-341405952D01*
X207283333Y-341405952D02*
X207330952Y-341501190D01*
X207330952Y-341501190D02*
X207378571Y-341548809D01*
X207378571Y-341548809D02*
X207473809Y-341596428D01*
X207473809Y-341596428D02*
X207854761Y-341596428D01*
X206854761Y-341548809D02*
X206521428Y-341548809D01*
X206378571Y-342072619D02*
X206854761Y-342072619D01*
X206854761Y-342072619D02*
X206854761Y-341072619D01*
X206854761Y-341072619D02*
X206378571Y-341072619D01*
X205616666Y-341548809D02*
X205949999Y-341548809D01*
X205949999Y-342072619D02*
X205949999Y-341072619D01*
X205949999Y-341072619D02*
X205473809Y-341072619D01*
X204949999Y-341072619D02*
X204949999Y-341310714D01*
X205188094Y-341215476D02*
X204949999Y-341310714D01*
X204949999Y-341310714D02*
X204711904Y-341215476D01*
X205092856Y-341501190D02*
X204949999Y-341310714D01*
X204949999Y-341310714D02*
X204807142Y-341501190D01*
X204188094Y-341072619D02*
X204188094Y-341310714D01*
X204426189Y-341215476D02*
X204188094Y-341310714D01*
X204188094Y-341310714D02*
X203949999Y-341215476D01*
X204330951Y-341501190D02*
X204188094Y-341310714D01*
X204188094Y-341310714D02*
X204045237Y-341501190D01*
%TO.C,*%
%TO.C,R2*%
X359273696Y-332628751D02*
X359172681Y-332056331D01*
X359677757Y-332224690D02*
X358970651Y-331517583D01*
X358970651Y-331517583D02*
X358701277Y-331786957D01*
X358701277Y-331786957D02*
X358667605Y-331887972D01*
X358667605Y-331887972D02*
X358667605Y-331955316D01*
X358667605Y-331955316D02*
X358701277Y-332056331D01*
X358701277Y-332056331D02*
X358802292Y-332157346D01*
X358802292Y-332157346D02*
X358903307Y-332191018D01*
X358903307Y-332191018D02*
X358970651Y-332191018D01*
X358970651Y-332191018D02*
X359071666Y-332157346D01*
X359071666Y-332157346D02*
X359341040Y-331887972D01*
X358364559Y-332258362D02*
X358297216Y-332258362D01*
X358297216Y-332258362D02*
X358196200Y-332292033D01*
X358196200Y-332292033D02*
X358027842Y-332460392D01*
X358027842Y-332460392D02*
X357994170Y-332561407D01*
X357994170Y-332561407D02*
X357994170Y-332628751D01*
X357994170Y-332628751D02*
X358027842Y-332729766D01*
X358027842Y-332729766D02*
X358095185Y-332797110D01*
X358095185Y-332797110D02*
X358229872Y-332864453D01*
X358229872Y-332864453D02*
X359037994Y-332864453D01*
X359037994Y-332864453D02*
X358600261Y-333302186D01*
%TO.C,*%
%TO.C,REF\u002A\u002A*%
X367853333Y-69882619D02*
X368186666Y-69406428D01*
X368424761Y-69882619D02*
X368424761Y-68882619D01*
X368424761Y-68882619D02*
X368043809Y-68882619D01*
X368043809Y-68882619D02*
X367948571Y-68930238D01*
X367948571Y-68930238D02*
X367900952Y-68977857D01*
X367900952Y-68977857D02*
X367853333Y-69073095D01*
X367853333Y-69073095D02*
X367853333Y-69215952D01*
X367853333Y-69215952D02*
X367900952Y-69311190D01*
X367900952Y-69311190D02*
X367948571Y-69358809D01*
X367948571Y-69358809D02*
X368043809Y-69406428D01*
X368043809Y-69406428D02*
X368424761Y-69406428D01*
X367424761Y-69358809D02*
X367091428Y-69358809D01*
X366948571Y-69882619D02*
X367424761Y-69882619D01*
X367424761Y-69882619D02*
X367424761Y-68882619D01*
X367424761Y-68882619D02*
X366948571Y-68882619D01*
X366186666Y-69358809D02*
X366519999Y-69358809D01*
X366519999Y-69882619D02*
X366519999Y-68882619D01*
X366519999Y-68882619D02*
X366043809Y-68882619D01*
X365519999Y-68882619D02*
X365519999Y-69120714D01*
X365758094Y-69025476D02*
X365519999Y-69120714D01*
X365519999Y-69120714D02*
X365281904Y-69025476D01*
X365662856Y-69311190D02*
X365519999Y-69120714D01*
X365519999Y-69120714D02*
X365377142Y-69311190D01*
X364758094Y-68882619D02*
X364758094Y-69120714D01*
X364996189Y-69025476D02*
X364758094Y-69120714D01*
X364758094Y-69120714D02*
X364519999Y-69025476D01*
X364900951Y-69311190D02*
X364758094Y-69120714D01*
X364758094Y-69120714D02*
X364615237Y-69311190D01*
%TO.C,*%
%TO.C,REF\u002A\u002A*%
X303753333Y-155692619D02*
X304086666Y-155216428D01*
X304324761Y-155692619D02*
X304324761Y-154692619D01*
X304324761Y-154692619D02*
X303943809Y-154692619D01*
X303943809Y-154692619D02*
X303848571Y-154740238D01*
X303848571Y-154740238D02*
X303800952Y-154787857D01*
X303800952Y-154787857D02*
X303753333Y-154883095D01*
X303753333Y-154883095D02*
X303753333Y-155025952D01*
X303753333Y-155025952D02*
X303800952Y-155121190D01*
X303800952Y-155121190D02*
X303848571Y-155168809D01*
X303848571Y-155168809D02*
X303943809Y-155216428D01*
X303943809Y-155216428D02*
X304324761Y-155216428D01*
X303324761Y-155168809D02*
X302991428Y-155168809D01*
X302848571Y-155692619D02*
X303324761Y-155692619D01*
X303324761Y-155692619D02*
X303324761Y-154692619D01*
X303324761Y-154692619D02*
X302848571Y-154692619D01*
X302086666Y-155168809D02*
X302419999Y-155168809D01*
X302419999Y-155692619D02*
X302419999Y-154692619D01*
X302419999Y-154692619D02*
X301943809Y-154692619D01*
X301419999Y-154692619D02*
X301419999Y-154930714D01*
X301658094Y-154835476D02*
X301419999Y-154930714D01*
X301419999Y-154930714D02*
X301181904Y-154835476D01*
X301562856Y-155121190D02*
X301419999Y-154930714D01*
X301419999Y-154930714D02*
X301277142Y-155121190D01*
X300658094Y-154692619D02*
X300658094Y-154930714D01*
X300896189Y-154835476D02*
X300658094Y-154930714D01*
X300658094Y-154930714D02*
X300419999Y-154835476D01*
X300800951Y-155121190D02*
X300658094Y-154930714D01*
X300658094Y-154930714D02*
X300515237Y-155121190D01*
%TO.C,R1*%
X211146561Y-335370797D02*
X211718981Y-335269782D01*
X211550622Y-335774858D02*
X212257729Y-335067752D01*
X212257729Y-335067752D02*
X211988355Y-334798378D01*
X211988355Y-334798378D02*
X211887340Y-334764706D01*
X211887340Y-334764706D02*
X211819996Y-334764706D01*
X211819996Y-334764706D02*
X211718981Y-334798378D01*
X211718981Y-334798378D02*
X211617966Y-334899393D01*
X211617966Y-334899393D02*
X211584294Y-335000408D01*
X211584294Y-335000408D02*
X211584294Y-335067752D01*
X211584294Y-335067752D02*
X211617966Y-335168767D01*
X211617966Y-335168767D02*
X211887340Y-335438141D01*
X210473126Y-334697362D02*
X210877187Y-335101423D01*
X210675157Y-334899393D02*
X211382263Y-334192286D01*
X211382263Y-334192286D02*
X211348592Y-334360645D01*
X211348592Y-334360645D02*
X211348592Y-334495332D01*
X211348592Y-334495332D02*
X211382263Y-334596347D01*
%TO.C,R3*%
X213938804Y-88448889D02*
X213837789Y-87876469D01*
X214342865Y-88044828D02*
X213635759Y-87337721D01*
X213635759Y-87337721D02*
X213366385Y-87607095D01*
X213366385Y-87607095D02*
X213332713Y-87708110D01*
X213332713Y-87708110D02*
X213332713Y-87775454D01*
X213332713Y-87775454D02*
X213366385Y-87876469D01*
X213366385Y-87876469D02*
X213467400Y-87977484D01*
X213467400Y-87977484D02*
X213568415Y-88011156D01*
X213568415Y-88011156D02*
X213635759Y-88011156D01*
X213635759Y-88011156D02*
X213736774Y-87977484D01*
X213736774Y-87977484D02*
X214006148Y-87708110D01*
X212995995Y-87977484D02*
X212558263Y-88415217D01*
X212558263Y-88415217D02*
X213063339Y-88448889D01*
X213063339Y-88448889D02*
X212962324Y-88549904D01*
X212962324Y-88549904D02*
X212928652Y-88650919D01*
X212928652Y-88650919D02*
X212928652Y-88718263D01*
X212928652Y-88718263D02*
X212962324Y-88819278D01*
X212962324Y-88819278D02*
X213130682Y-88987637D01*
X213130682Y-88987637D02*
X213231698Y-89021309D01*
X213231698Y-89021309D02*
X213299041Y-89021309D01*
X213299041Y-89021309D02*
X213400056Y-88987637D01*
X213400056Y-88987637D02*
X213602087Y-88785606D01*
X213602087Y-88785606D02*
X213635759Y-88684591D01*
X213635759Y-88684591D02*
X213635759Y-88617248D01*
%TO.C,REF\u002A\u002A*%
X271243333Y-155642619D02*
X271576666Y-155166428D01*
X271814761Y-155642619D02*
X271814761Y-154642619D01*
X271814761Y-154642619D02*
X271433809Y-154642619D01*
X271433809Y-154642619D02*
X271338571Y-154690238D01*
X271338571Y-154690238D02*
X271290952Y-154737857D01*
X271290952Y-154737857D02*
X271243333Y-154833095D01*
X271243333Y-154833095D02*
X271243333Y-154975952D01*
X271243333Y-154975952D02*
X271290952Y-155071190D01*
X271290952Y-155071190D02*
X271338571Y-155118809D01*
X271338571Y-155118809D02*
X271433809Y-155166428D01*
X271433809Y-155166428D02*
X271814761Y-155166428D01*
X270814761Y-155118809D02*
X270481428Y-155118809D01*
X270338571Y-155642619D02*
X270814761Y-155642619D01*
X270814761Y-155642619D02*
X270814761Y-154642619D01*
X270814761Y-154642619D02*
X270338571Y-154642619D01*
X269576666Y-155118809D02*
X269909999Y-155118809D01*
X269909999Y-155642619D02*
X269909999Y-154642619D01*
X269909999Y-154642619D02*
X269433809Y-154642619D01*
X268909999Y-154642619D02*
X268909999Y-154880714D01*
X269148094Y-154785476D02*
X268909999Y-154880714D01*
X268909999Y-154880714D02*
X268671904Y-154785476D01*
X269052856Y-155071190D02*
X268909999Y-154880714D01*
X268909999Y-154880714D02*
X268767142Y-155071190D01*
X268148094Y-154642619D02*
X268148094Y-154880714D01*
X268386189Y-154785476D02*
X268148094Y-154880714D01*
X268148094Y-154880714D02*
X267909999Y-154785476D01*
X268290951Y-155071190D02*
X268148094Y-154880714D01*
X268148094Y-154880714D02*
X268005237Y-155071190D01*
%TO.C,*%
%TO.C,REF\u002A\u002A*%
X207313333Y-69912619D02*
X207646666Y-69436428D01*
X207884761Y-69912619D02*
X207884761Y-68912619D01*
X207884761Y-68912619D02*
X207503809Y-68912619D01*
X207503809Y-68912619D02*
X207408571Y-68960238D01*
X207408571Y-68960238D02*
X207360952Y-69007857D01*
X207360952Y-69007857D02*
X207313333Y-69103095D01*
X207313333Y-69103095D02*
X207313333Y-69245952D01*
X207313333Y-69245952D02*
X207360952Y-69341190D01*
X207360952Y-69341190D02*
X207408571Y-69388809D01*
X207408571Y-69388809D02*
X207503809Y-69436428D01*
X207503809Y-69436428D02*
X207884761Y-69436428D01*
X206884761Y-69388809D02*
X206551428Y-69388809D01*
X206408571Y-69912619D02*
X206884761Y-69912619D01*
X206884761Y-69912619D02*
X206884761Y-68912619D01*
X206884761Y-68912619D02*
X206408571Y-68912619D01*
X205646666Y-69388809D02*
X205979999Y-69388809D01*
X205979999Y-69912619D02*
X205979999Y-68912619D01*
X205979999Y-68912619D02*
X205503809Y-68912619D01*
X204979999Y-68912619D02*
X204979999Y-69150714D01*
X205218094Y-69055476D02*
X204979999Y-69150714D01*
X204979999Y-69150714D02*
X204741904Y-69055476D01*
X205122856Y-69341190D02*
X204979999Y-69150714D01*
X204979999Y-69150714D02*
X204837142Y-69341190D01*
X204218094Y-68912619D02*
X204218094Y-69150714D01*
X204456189Y-69055476D02*
X204218094Y-69150714D01*
X204218094Y-69150714D02*
X203979999Y-69055476D01*
X204360951Y-69341190D02*
X204218094Y-69150714D01*
X204218094Y-69150714D02*
X204075237Y-69341190D01*
%TO.C,*%
%TO.C,J2*%
X250944654Y-355232019D02*
X250944654Y-355946304D01*
X250944654Y-355946304D02*
X250992273Y-356089161D01*
X250992273Y-356089161D02*
X251087511Y-356184400D01*
X251087511Y-356184400D02*
X251230368Y-356232019D01*
X251230368Y-356232019D02*
X251325606Y-356232019D01*
X250516082Y-355327257D02*
X250468463Y-355279638D01*
X250468463Y-355279638D02*
X250373225Y-355232019D01*
X250373225Y-355232019D02*
X250135130Y-355232019D01*
X250135130Y-355232019D02*
X250039892Y-355279638D01*
X250039892Y-355279638D02*
X249992273Y-355327257D01*
X249992273Y-355327257D02*
X249944654Y-355422495D01*
X249944654Y-355422495D02*
X249944654Y-355517733D01*
X249944654Y-355517733D02*
X249992273Y-355660590D01*
X249992273Y-355660590D02*
X250563701Y-356232019D01*
X250563701Y-356232019D02*
X249944654Y-356232019D01*
%TO.C,*%
%TO.C,REF\u002A\u002A*%
X367643333Y-342102619D02*
X367976666Y-341626428D01*
X368214761Y-342102619D02*
X368214761Y-341102619D01*
X368214761Y-341102619D02*
X367833809Y-341102619D01*
X367833809Y-341102619D02*
X367738571Y-341150238D01*
X367738571Y-341150238D02*
X367690952Y-341197857D01*
X367690952Y-341197857D02*
X367643333Y-341293095D01*
X367643333Y-341293095D02*
X367643333Y-341435952D01*
X367643333Y-341435952D02*
X367690952Y-341531190D01*
X367690952Y-341531190D02*
X367738571Y-341578809D01*
X367738571Y-341578809D02*
X367833809Y-341626428D01*
X367833809Y-341626428D02*
X368214761Y-341626428D01*
X367214761Y-341578809D02*
X366881428Y-341578809D01*
X366738571Y-342102619D02*
X367214761Y-342102619D01*
X367214761Y-342102619D02*
X367214761Y-341102619D01*
X367214761Y-341102619D02*
X366738571Y-341102619D01*
X365976666Y-341578809D02*
X366309999Y-341578809D01*
X366309999Y-342102619D02*
X366309999Y-341102619D01*
X366309999Y-341102619D02*
X365833809Y-341102619D01*
X365309999Y-341102619D02*
X365309999Y-341340714D01*
X365548094Y-341245476D02*
X365309999Y-341340714D01*
X365309999Y-341340714D02*
X365071904Y-341245476D01*
X365452856Y-341531190D02*
X365309999Y-341340714D01*
X365309999Y-341340714D02*
X365167142Y-341531190D01*
X364548094Y-341102619D02*
X364548094Y-341340714D01*
X364786189Y-341245476D02*
X364548094Y-341340714D01*
X364548094Y-341340714D02*
X364309999Y-341245476D01*
X364690951Y-341531190D02*
X364548094Y-341340714D01*
X364548094Y-341340714D02*
X364405237Y-341531190D01*
%TO.C,R4*%
X360757455Y-86178245D02*
X361329875Y-86077230D01*
X361161516Y-86582306D02*
X361868623Y-85875200D01*
X361868623Y-85875200D02*
X361599249Y-85605826D01*
X361599249Y-85605826D02*
X361498234Y-85572154D01*
X361498234Y-85572154D02*
X361430890Y-85572154D01*
X361430890Y-85572154D02*
X361329875Y-85605826D01*
X361329875Y-85605826D02*
X361228860Y-85706841D01*
X361228860Y-85706841D02*
X361195188Y-85807856D01*
X361195188Y-85807856D02*
X361195188Y-85875200D01*
X361195188Y-85875200D02*
X361228860Y-85976215D01*
X361228860Y-85976215D02*
X361498234Y-86245589D01*
X360622768Y-85100749D02*
X360151364Y-85572154D01*
X361060501Y-84999734D02*
X360723783Y-85673169D01*
X360723783Y-85673169D02*
X360286051Y-85235436D01*
D12*
%TO.C,REF\u002A\u002A*%
X209455200Y-347460000D02*
X209455200Y-345460000D01*
X206950000Y-342954800D02*
X204950000Y-342954800D01*
X204950000Y-349965200D02*
X206950000Y-349965200D01*
X202444800Y-345460000D02*
X202444800Y-347460000D01*
%TO.C,R2*%
X360675733Y-333945372D02*
X360354616Y-334266489D01*
X359636286Y-332905925D02*
X359315169Y-333227042D01*
%TO.C,REF\u002A\u002A*%
X370025200Y-75270000D02*
X370025200Y-73270000D01*
X367520000Y-70764800D02*
X365520000Y-70764800D01*
X365520000Y-77775200D02*
X367520000Y-77775200D01*
X363014800Y-73270000D02*
X363014800Y-75270000D01*
X305925200Y-161080000D02*
X305925200Y-159080000D01*
X303420000Y-156574800D02*
X301420000Y-156574800D01*
X301420000Y-163585200D02*
X303420000Y-163585200D01*
X298914800Y-159080000D02*
X298914800Y-161080000D01*
%TO.C,R1*%
X212881723Y-333078818D02*
X213202840Y-333399935D01*
X211842276Y-334118265D02*
X212163393Y-334439382D01*
%TO.C,R3*%
X211646825Y-86713728D02*
X211967942Y-86392611D01*
X212686272Y-87753175D02*
X213007389Y-87432058D01*
%TO.C,REF\u002A\u002A*%
X273415200Y-161030000D02*
X273415200Y-159030000D01*
X270910000Y-156524800D02*
X268910000Y-156524800D01*
X268910000Y-163535200D02*
X270910000Y-163535200D01*
X266404800Y-159030000D02*
X266404800Y-161030000D01*
D13*
%TO.C,J1*%
X323876479Y-69630000D02*
X323876479Y-67530000D01*
X323876479Y-67530000D02*
X322016479Y-67530000D01*
X323356479Y-69630000D02*
X323876479Y-69630000D01*
X322016479Y-70880000D02*
X322016479Y-69995000D01*
X322016479Y-70880000D02*
X321191479Y-70880000D01*
X322016479Y-66280000D02*
X322016479Y-67530000D01*
X322016479Y-66280000D02*
X321191479Y-66280000D01*
X249566479Y-70880000D02*
X250391479Y-70880000D01*
X249566479Y-70880000D02*
X249566479Y-69995000D01*
X249566479Y-66280000D02*
X250391479Y-66280000D01*
X249566479Y-66280000D02*
X249566479Y-67530000D01*
X248226479Y-69630000D02*
X247706479Y-69630000D01*
X247706479Y-69630000D02*
X247706479Y-67530000D01*
X247706479Y-67530000D02*
X249566479Y-67530000D01*
X320691479Y-65770000D02*
G75*
G03*
X320691479Y-65770000I-100000J0D01*
G01*
D12*
%TO.C,REF\u002A\u002A*%
X209485200Y-75300000D02*
X209485200Y-73300000D01*
X206980000Y-70794800D02*
X204980000Y-70794800D01*
X204980000Y-77805200D02*
X206980000Y-77805200D01*
X202474800Y-73300000D02*
X202474800Y-75300000D01*
D13*
%TO.C,J2*%
X248436321Y-351019400D02*
X248436321Y-353119400D01*
X248436321Y-353119400D02*
X250296321Y-353119400D01*
X248956321Y-351019400D02*
X248436321Y-351019400D01*
X250296321Y-349769400D02*
X250296321Y-350654400D01*
X250296321Y-349769400D02*
X251121321Y-349769400D01*
X250296321Y-354369400D02*
X250296321Y-353119400D01*
X250296321Y-354369400D02*
X251121321Y-354369400D01*
X322746321Y-349769400D02*
X321921321Y-349769400D01*
X322746321Y-349769400D02*
X322746321Y-350654400D01*
X322746321Y-354369400D02*
X321921321Y-354369400D01*
X322746321Y-354369400D02*
X322746321Y-353119400D01*
X324086321Y-351019400D02*
X324606321Y-351019400D01*
X324606321Y-351019400D02*
X324606321Y-353119400D01*
X324606321Y-353119400D02*
X322746321Y-353119400D01*
X251821321Y-354879400D02*
G75*
G03*
X251821321Y-354879400I-100000J0D01*
G01*
D12*
%TO.C,REF\u002A\u002A*%
X369815200Y-347490000D02*
X369815200Y-345490000D01*
X367310000Y-342984800D02*
X365310000Y-342984800D01*
X365310000Y-349995200D02*
X367310000Y-349995200D01*
X362804800Y-345490000D02*
X362804800Y-347490000D01*
%TO.C,R4*%
X359440835Y-87580282D02*
X359119718Y-87259165D01*
X360480282Y-86540835D02*
X360159165Y-86219718D01*
%TD*%
M02*
