%TF.GenerationSoftware,KiCad,Pcbnew,7.0.2*%
%TF.CreationDate,2023-05-22T19:30:06+02:00*%
%TF.ProjectId,Board2 - Housing and Samtech,426f6172-6432-4202-9d20-486f7573696e,rev?*%
%TF.SameCoordinates,Original*%
%TF.FileFunction,Soldermask,Bot*%
%TF.FilePolarity,Negative*%
%FSLAX46Y46*%
G04 Gerber Fmt 4.6, Leading zero omitted, Abs format (unit mm)*
G04 Created by KiCad (PCBNEW 7.0.2) date 2023-05-22 19:30:06*
%MOMM*%
%LPD*%
G01*
G04 APERTURE LIST*
G04 Aperture macros list*
%AMRoundRect*
0 Rectangle with rounded corners*
0 $1 Rounding radius*
0 $2 $3 $4 $5 $6 $7 $8 $9 X,Y pos of 4 corners*
0 Add a 4 corners polygon primitive as box body*
4,1,4,$2,$3,$4,$5,$6,$7,$8,$9,$2,$3,0*
0 Add four circle primitives for the rounded corners*
1,1,$1+$1,$2,$3*
1,1,$1+$1,$4,$5*
1,1,$1+$1,$6,$7*
1,1,$1+$1,$8,$9*
0 Add four rect primitives between the rounded corners*
20,1,$1+$1,$2,$3,$4,$5,0*
20,1,$1+$1,$4,$5,$6,$7,0*
20,1,$1+$1,$6,$7,$8,$9,0*
20,1,$1+$1,$8,$9,$2,$3,0*%
G04 Aperture macros list end*
%ADD10C,3.200000*%
%ADD11C,2.500000*%
%ADD12C,1.371600*%
%ADD13C,2.740000*%
%ADD14C,5.000000*%
%ADD15RoundRect,0.250000X-0.070711X0.565685X-0.565685X0.070711X0.070711X-0.565685X0.565685X-0.070711X0*%
%ADD16RoundRect,0.250000X-0.565685X-0.070711X-0.070711X-0.565685X0.565685X0.070711X0.070711X0.565685X0*%
%ADD17RoundRect,0.250000X0.070711X-0.565685X0.565685X-0.070711X-0.070711X0.565685X-0.565685X0.070711X0*%
%ADD18C,1.130000*%
%ADD19R,0.500000X1.500000*%
%ADD20R,3.280000X0.510000*%
%ADD21R,13.150000X0.510000*%
%ADD22RoundRect,0.250000X0.565685X0.070711X0.070711X0.565685X-0.565685X-0.070711X-0.070711X-0.565685X0*%
G04 APERTURE END LIST*
D10*
%TO.C,REF\u002A\u002A4*%
X235356400Y-134137400D03*
%TD*%
%TO.C,REF\u002A\u002A13*%
X286156400Y-159537400D03*
%TD*%
%TO.C,REF\u002A\u002A*%
X209956400Y-134137400D03*
%TD*%
%TO.C,REF\u002A\u002A28*%
X311556400Y-210337400D03*
%TD*%
%TO.C,REF\u002A\u002A24*%
X209956400Y-210337400D03*
%TD*%
%TO.C,REF\u002A\u002A6*%
X286156400Y-134137400D03*
%TD*%
%TO.C,REF\u002A\u002A31*%
X209956400Y-235737400D03*
%TD*%
%TO.C,REF\u002A\u002A32*%
X235356400Y-235737400D03*
%TD*%
%TO.C,REF\u002A\u002A48*%
X286156400Y-286537400D03*
%TD*%
%TO.C,REF\u002A\u002A37*%
X362356400Y-235737400D03*
%TD*%
%TO.C,REF\u002A\u002A47*%
X260756400Y-286537400D03*
%TD*%
%TO.C,REF\u002A\u002A5*%
X260756400Y-134137400D03*
%TD*%
%TO.C,REF\u002A\u002A30*%
X362356400Y-210337400D03*
%TD*%
%TO.C,REF\u002A\u002A33*%
X260756400Y-235737400D03*
%TD*%
%TO.C,REF\u002A\u002A51*%
X362356400Y-286537400D03*
%TD*%
%TO.C,REF\u002A\u002A29*%
X336956400Y-210337400D03*
%TD*%
%TO.C,REF\u002A\u002A16*%
X362356400Y-159537400D03*
%TD*%
%TO.C,REF\u002A\u002A43*%
X336956400Y-261137400D03*
%TD*%
%TO.C,REF\u002A\u002A17*%
X209956400Y-184937400D03*
%TD*%
%TO.C,REF\u002A\u002A35*%
X311556400Y-235737400D03*
%TD*%
%TO.C,REF\u002A\u002A9*%
X362356400Y-134137400D03*
%TD*%
%TO.C,REF\u002A\u002A44*%
X362356400Y-261137400D03*
%TD*%
%TO.C,REF\u002A\u002A45*%
X209956400Y-286537400D03*
%TD*%
%TO.C,REF\u002A\u002A38*%
X209956400Y-261137400D03*
%TD*%
%TO.C,REF\u002A\u002A27*%
X286156400Y-210337400D03*
%TD*%
%TO.C,REF\u002A\u002A14*%
X311556400Y-159537400D03*
%TD*%
%TO.C,REF\u002A\u002A49*%
X311556400Y-286537400D03*
%TD*%
%TO.C,REF\u002A\u002A11*%
X235356400Y-159537400D03*
%TD*%
%TO.C,REF\u002A\u002A15*%
X336956400Y-159537400D03*
%TD*%
%TO.C,REF\u002A\u002A18*%
X235356400Y-184937400D03*
%TD*%
%TO.C,REF\u002A\u002A46*%
X235356400Y-286537400D03*
%TD*%
%TO.C,REF\u002A\u002A8*%
X336956400Y-134137400D03*
%TD*%
%TO.C,REF\u002A\u002A50*%
X336956400Y-286537400D03*
%TD*%
%TO.C,REF\u002A\u002A25*%
X235356400Y-210337400D03*
%TD*%
%TO.C,REF\u002A\u002A22*%
X336956400Y-184937400D03*
%TD*%
%TO.C,REF\u002A\u002A21*%
X311556400Y-184937400D03*
%TD*%
%TO.C,REF\u002A\u002A42*%
X311556400Y-261137400D03*
%TD*%
%TO.C,REF\u002A\u002A41*%
X286156400Y-261137400D03*
%TD*%
%TO.C,REF\u002A\u002A23*%
X362356400Y-184937400D03*
%TD*%
%TO.C,REF\u002A\u002A20*%
X286156400Y-184937400D03*
%TD*%
%TO.C,REF\u002A\u002A26*%
X260756400Y-210337400D03*
%TD*%
%TO.C,REF\u002A\u002A39*%
X235356400Y-261137400D03*
%TD*%
%TO.C,REF\u002A\u002A7*%
X311556400Y-134137400D03*
%TD*%
%TO.C,REF\u002A\u002A12*%
X260756400Y-159537400D03*
%TD*%
%TO.C,REF\u002A\u002A10*%
X209956400Y-159537400D03*
%TD*%
%TO.C,REF\u002A\u002A19*%
X260756400Y-184937400D03*
%TD*%
%TO.C,REF\u002A\u002A36*%
X336956400Y-235737400D03*
%TD*%
%TO.C,REF\u002A\u002A40*%
X260756400Y-261137400D03*
%TD*%
%TO.C,REF\u002A\u002A34*%
X286156400Y-235737400D03*
%TD*%
D11*
%TO.C,*%
X244733879Y-330344550D03*
%TD*%
D12*
%TO.C,REF\u002A\u002A*%
X205950000Y-346460000D03*
D13*
X208490000Y-349000000D03*
X208490000Y-343920000D03*
X203410000Y-349000000D03*
X203410000Y-343920000D03*
%TD*%
D14*
%TO.C,REF\u002A\u002A1*%
X401156400Y-100337400D03*
%TD*%
D11*
%TO.C,*%
X286186679Y-90314550D03*
%TD*%
%TO.C,*%
X348365879Y-330344550D03*
%TD*%
D14*
%TO.C,*%
X401197879Y-265371350D03*
%TD*%
D11*
%TO.C,*%
X223956679Y-90314550D03*
%TD*%
%TO.C,*%
X286186679Y-330344550D03*
%TD*%
D15*
%TO.C,R2*%
X360702558Y-332879100D03*
X359288344Y-334293314D03*
%TD*%
D11*
%TO.C,*%
X244683079Y-90314550D03*
%TD*%
D12*
%TO.C,REF\u002A\u002A*%
X366520000Y-74270000D03*
D13*
X369060000Y-76810000D03*
X369060000Y-71730000D03*
X363980000Y-76810000D03*
X363980000Y-71730000D03*
%TD*%
D11*
%TO.C,*%
X224007479Y-330344550D03*
%TD*%
D14*
%TO.C,REF\u002A\u002A2*%
X171156400Y-320337400D03*
%TD*%
%TO.C,REF\u002A\u002A3*%
X401156400Y-320337400D03*
%TD*%
D11*
%TO.C,*%
X265409479Y-330344550D03*
%TD*%
%TO.C,*%
X265409479Y-90314550D03*
%TD*%
%TO.C,*%
X327639479Y-330344550D03*
%TD*%
%TO.C,*%
X327639479Y-90314550D03*
%TD*%
D12*
%TO.C,REF\u002A\u002A*%
X302420000Y-160080000D03*
D13*
X304960000Y-162620000D03*
X304960000Y-157540000D03*
X299880000Y-162620000D03*
X299880000Y-157540000D03*
%TD*%
D16*
%TO.C,R1*%
X211815451Y-333051993D03*
X213229665Y-334466207D03*
%TD*%
D17*
%TO.C,R3*%
X211620000Y-87780000D03*
X213034214Y-86365786D03*
%TD*%
D12*
%TO.C,REF\u002A\u002A*%
X269910000Y-160030000D03*
D13*
X272450000Y-162570000D03*
X272450000Y-157490000D03*
X267370000Y-162570000D03*
X267370000Y-157490000D03*
%TD*%
D11*
%TO.C,*%
X348365879Y-90314550D03*
%TD*%
D18*
%TO.C,J1*%
X322441479Y-69080000D03*
X249141479Y-69080000D03*
D19*
X320591479Y-67155000D03*
X320591479Y-70005000D03*
X319791479Y-67155000D03*
X319791479Y-70005000D03*
X318991479Y-67155000D03*
X318991479Y-70005000D03*
X318191479Y-67155000D03*
X318191479Y-70005000D03*
X317391479Y-67155000D03*
X317391479Y-70005000D03*
X316591479Y-67155000D03*
X316591479Y-70005000D03*
X315791479Y-67155000D03*
X315791479Y-70005000D03*
X314991479Y-67155000D03*
X314991479Y-70005000D03*
X314191479Y-67155000D03*
X314191479Y-70005000D03*
X313391479Y-67155000D03*
X313391479Y-70005000D03*
X312591479Y-67155000D03*
X312591479Y-70005000D03*
X311791479Y-67155000D03*
X311791479Y-70005000D03*
X310991479Y-67155000D03*
X310991479Y-70005000D03*
X310191479Y-67155000D03*
X310191479Y-70005000D03*
X309391479Y-67155000D03*
X309391479Y-70005000D03*
X308591479Y-67155000D03*
X308591479Y-70005000D03*
X307791479Y-67155000D03*
X307791479Y-70005000D03*
X306991479Y-67155000D03*
X306991479Y-70005000D03*
X306191479Y-67155000D03*
X306191479Y-70005000D03*
X305391479Y-67155000D03*
X305391479Y-70005000D03*
X304591479Y-67155000D03*
X304591479Y-70005000D03*
X303791479Y-67155000D03*
X303791479Y-70005000D03*
X302991479Y-67155000D03*
X302991479Y-70005000D03*
X302191479Y-67155000D03*
X302191479Y-70005000D03*
X301391479Y-67155000D03*
X301391479Y-70005000D03*
X300591479Y-67155000D03*
X300591479Y-70005000D03*
X295791479Y-67155000D03*
X295791479Y-70005000D03*
X294991479Y-67155000D03*
X294991479Y-70005000D03*
X294191479Y-67155000D03*
X294191479Y-70005000D03*
X293391479Y-67155000D03*
X293391479Y-70005000D03*
X292591479Y-67155000D03*
X292591479Y-70005000D03*
X291791479Y-67155000D03*
X291791479Y-70005000D03*
X290991479Y-67155000D03*
X290991479Y-70005000D03*
X290191479Y-67155000D03*
X290191479Y-70005000D03*
X289391479Y-67155000D03*
X289391479Y-70005000D03*
X288591479Y-67155000D03*
X288591479Y-70005000D03*
X287791479Y-67155000D03*
X287791479Y-70005000D03*
X286991479Y-67155000D03*
X286991479Y-70005000D03*
X286191479Y-67155000D03*
X286191479Y-70005000D03*
X285391479Y-67155000D03*
X285391479Y-70005000D03*
X284591479Y-67155000D03*
X284591479Y-70005000D03*
X283791479Y-67155000D03*
X283791479Y-70005000D03*
X282991479Y-67155000D03*
X282991479Y-70005000D03*
X282191479Y-67155000D03*
X282191479Y-70005000D03*
X281391479Y-67155000D03*
X281391479Y-70005000D03*
X280591479Y-67155000D03*
X280591479Y-70005000D03*
X279791479Y-67155000D03*
X279791479Y-70005000D03*
X278991479Y-67155000D03*
X278991479Y-70005000D03*
X278191479Y-67155000D03*
X278191479Y-70005000D03*
X277391479Y-67155000D03*
X277391479Y-70005000D03*
X276591479Y-67155000D03*
X276591479Y-70005000D03*
X275791479Y-67155000D03*
X275791479Y-70005000D03*
X270991479Y-67155000D03*
X270991479Y-70005000D03*
X270191479Y-67155000D03*
X270191479Y-70005000D03*
X269391479Y-67155000D03*
X269391479Y-70005000D03*
X268591479Y-67155000D03*
X268591479Y-70005000D03*
X267791479Y-67155000D03*
X267791479Y-70005000D03*
X266991479Y-67155000D03*
X266991479Y-70005000D03*
X266191479Y-67155000D03*
X266191479Y-70005000D03*
X265391479Y-67155000D03*
X265391479Y-70005000D03*
X264591479Y-67155000D03*
X264591479Y-70005000D03*
X263791479Y-67155000D03*
X263791479Y-70005000D03*
X262991479Y-67155000D03*
X262991479Y-70005000D03*
X262191479Y-67155000D03*
X262191479Y-70005000D03*
X261391479Y-67155000D03*
X261391479Y-70005000D03*
X260591479Y-67155000D03*
X260591479Y-70005000D03*
X259791479Y-67155000D03*
X259791479Y-70005000D03*
X258991479Y-67155000D03*
X258991479Y-70005000D03*
X258191479Y-67155000D03*
X258191479Y-70005000D03*
X257391479Y-67155000D03*
X257391479Y-70005000D03*
X256591479Y-67155000D03*
X256591479Y-70005000D03*
X255791479Y-67155000D03*
X255791479Y-70005000D03*
X254991479Y-67155000D03*
X254991479Y-70005000D03*
X254191479Y-67155000D03*
X254191479Y-70005000D03*
X253391479Y-67155000D03*
X253391479Y-70005000D03*
X252591479Y-67155000D03*
X252591479Y-70005000D03*
X251791479Y-67155000D03*
X251791479Y-70005000D03*
X250991479Y-67155000D03*
X250991479Y-70005000D03*
D20*
X319656479Y-68580000D03*
D21*
X310591479Y-68580000D03*
D20*
X301526479Y-68580000D03*
X294856479Y-68580000D03*
D21*
X285791479Y-68580000D03*
D20*
X276726479Y-68580000D03*
X270056479Y-68580000D03*
D21*
X260991479Y-68580000D03*
D20*
X251926479Y-68580000D03*
%TD*%
D12*
%TO.C,REF\u002A\u002A*%
X205980000Y-74300000D03*
D13*
X208520000Y-76840000D03*
X208520000Y-71760000D03*
X203440000Y-76840000D03*
X203440000Y-71760000D03*
%TD*%
D14*
%TO.C,*%
X171175479Y-155338550D03*
%TD*%
D18*
%TO.C,J2*%
X249871321Y-351569400D03*
X323171321Y-351569400D03*
D19*
X251721321Y-353494400D03*
X251721321Y-350644400D03*
X252521321Y-353494400D03*
X252521321Y-350644400D03*
X253321321Y-353494400D03*
X253321321Y-350644400D03*
X254121321Y-353494400D03*
X254121321Y-350644400D03*
X254921321Y-353494400D03*
X254921321Y-350644400D03*
X255721321Y-353494400D03*
X255721321Y-350644400D03*
X256521321Y-353494400D03*
X256521321Y-350644400D03*
X257321321Y-353494400D03*
X257321321Y-350644400D03*
X258121321Y-353494400D03*
X258121321Y-350644400D03*
X258921321Y-353494400D03*
X258921321Y-350644400D03*
X259721321Y-353494400D03*
X259721321Y-350644400D03*
X260521321Y-353494400D03*
X260521321Y-350644400D03*
X261321321Y-353494400D03*
X261321321Y-350644400D03*
X262121321Y-353494400D03*
X262121321Y-350644400D03*
X262921321Y-353494400D03*
X262921321Y-350644400D03*
X263721321Y-353494400D03*
X263721321Y-350644400D03*
X264521321Y-353494400D03*
X264521321Y-350644400D03*
X265321321Y-353494400D03*
X265321321Y-350644400D03*
X266121321Y-353494400D03*
X266121321Y-350644400D03*
X266921321Y-353494400D03*
X266921321Y-350644400D03*
X267721321Y-353494400D03*
X267721321Y-350644400D03*
X268521321Y-353494400D03*
X268521321Y-350644400D03*
X269321321Y-353494400D03*
X269321321Y-350644400D03*
X270121321Y-353494400D03*
X270121321Y-350644400D03*
X270921321Y-353494400D03*
X270921321Y-350644400D03*
X271721321Y-353494400D03*
X271721321Y-350644400D03*
X276521321Y-353494400D03*
X276521321Y-350644400D03*
X277321321Y-353494400D03*
X277321321Y-350644400D03*
X278121321Y-353494400D03*
X278121321Y-350644400D03*
X278921321Y-353494400D03*
X278921321Y-350644400D03*
X279721321Y-353494400D03*
X279721321Y-350644400D03*
X280521321Y-353494400D03*
X280521321Y-350644400D03*
X281321321Y-353494400D03*
X281321321Y-350644400D03*
X282121321Y-353494400D03*
X282121321Y-350644400D03*
X282921321Y-353494400D03*
X282921321Y-350644400D03*
X283721321Y-353494400D03*
X283721321Y-350644400D03*
X284521321Y-353494400D03*
X284521321Y-350644400D03*
X285321321Y-353494400D03*
X285321321Y-350644400D03*
X286121321Y-353494400D03*
X286121321Y-350644400D03*
X286921321Y-353494400D03*
X286921321Y-350644400D03*
X287721321Y-353494400D03*
X287721321Y-350644400D03*
X288521321Y-353494400D03*
X288521321Y-350644400D03*
X289321321Y-353494400D03*
X289321321Y-350644400D03*
X290121321Y-353494400D03*
X290121321Y-350644400D03*
X290921321Y-353494400D03*
X290921321Y-350644400D03*
X291721321Y-353494400D03*
X291721321Y-350644400D03*
X292521321Y-353494400D03*
X292521321Y-350644400D03*
X293321321Y-353494400D03*
X293321321Y-350644400D03*
X294121321Y-353494400D03*
X294121321Y-350644400D03*
X294921321Y-353494400D03*
X294921321Y-350644400D03*
X295721321Y-353494400D03*
X295721321Y-350644400D03*
X296521321Y-353494400D03*
X296521321Y-350644400D03*
X301321321Y-353494400D03*
X301321321Y-350644400D03*
X302121321Y-353494400D03*
X302121321Y-350644400D03*
X302921321Y-353494400D03*
X302921321Y-350644400D03*
X303721321Y-353494400D03*
X303721321Y-350644400D03*
X304521321Y-353494400D03*
X304521321Y-350644400D03*
X305321321Y-353494400D03*
X305321321Y-350644400D03*
X306121321Y-353494400D03*
X306121321Y-350644400D03*
X306921321Y-353494400D03*
X306921321Y-350644400D03*
X307721321Y-353494400D03*
X307721321Y-350644400D03*
X308521321Y-353494400D03*
X308521321Y-350644400D03*
X309321321Y-353494400D03*
X309321321Y-350644400D03*
X310121321Y-353494400D03*
X310121321Y-350644400D03*
X310921321Y-353494400D03*
X310921321Y-350644400D03*
X311721321Y-353494400D03*
X311721321Y-350644400D03*
X312521321Y-353494400D03*
X312521321Y-350644400D03*
X313321321Y-353494400D03*
X313321321Y-350644400D03*
X314121321Y-353494400D03*
X314121321Y-350644400D03*
X314921321Y-353494400D03*
X314921321Y-350644400D03*
X315721321Y-353494400D03*
X315721321Y-350644400D03*
X316521321Y-353494400D03*
X316521321Y-350644400D03*
X317321321Y-353494400D03*
X317321321Y-350644400D03*
X318121321Y-353494400D03*
X318121321Y-350644400D03*
X318921321Y-353494400D03*
X318921321Y-350644400D03*
X319721321Y-353494400D03*
X319721321Y-350644400D03*
X320521321Y-353494400D03*
X320521321Y-350644400D03*
X321321321Y-353494400D03*
X321321321Y-350644400D03*
D20*
X252656321Y-352069400D03*
D21*
X261721321Y-352069400D03*
D20*
X270786321Y-352069400D03*
X277456321Y-352069400D03*
D21*
X286521321Y-352069400D03*
D20*
X295586321Y-352069400D03*
X302256321Y-352069400D03*
D21*
X311321321Y-352069400D03*
D20*
X320386321Y-352069400D03*
%TD*%
D14*
%TO.C,*%
X401197879Y-155389350D03*
%TD*%
D11*
%TO.C,*%
X306913079Y-330344550D03*
%TD*%
D14*
%TO.C,*%
X171175479Y-265371350D03*
%TD*%
D11*
%TO.C,*%
X306913079Y-90314550D03*
%TD*%
D12*
%TO.C,REF\u002A\u002A*%
X366310000Y-346490000D03*
D13*
X368850000Y-349030000D03*
X368850000Y-343950000D03*
X363770000Y-349030000D03*
X363770000Y-343950000D03*
%TD*%
D14*
%TO.C,REF\u002A\u002A*%
X171156400Y-100337400D03*
%TD*%
D22*
%TO.C,R4*%
X360507107Y-87607107D03*
X359092893Y-86192893D03*
%TD*%
M02*
