M48
; DRILL file {KiCad 7.0.2} date Mon May 22 19:30:01 2023
; FORMAT={-:-/ absolute / inch / decimal}
; #@! TF.CreationDate,2023-05-22T19:30:01+02:00
; #@! TF.GenerationSoftware,Kicad,Pcbnew,7.0.2
; #@! TF.FileFunction,NonPlated,1,4,NPTH
FMAT,2
INCH
; #@! TA.AperFunction,NonPlated,NPTH,ComponentDrill
T1C0.0445
; #@! TA.AperFunction,NonPlated,NPTH,ComponentDrill
T2C0.0984
; #@! TA.AperFunction,NonPlated,NPTH,ComponentDrill
T3C0.1260
; #@! TA.AperFunction,NonPlated,NPTH,ComponentDrill
T4C0.1969
%
G90
G05
T1
X9.8087Y-2.7197
X9.8375Y-13.8413
X12.6945Y-2.7197
X12.7233Y-13.8413
T2
X8.8172Y-3.5557
X8.8192Y-13.0057
X9.6332Y-3.5557
X9.6352Y-13.0057
X10.4492Y-3.5557
X10.4492Y-13.0057
X11.2672Y-3.5557
X11.2672Y-13.0057
X12.0832Y-3.5557
X12.0832Y-13.0057
X12.8992Y-3.5557
X12.8992Y-13.0057
X13.7152Y-3.5557
X13.7152Y-13.0057
T3
X8.266Y-5.281
X8.266Y-6.281
X8.266Y-7.281
X8.266Y-8.281
X8.266Y-9.281
X8.266Y-10.281
X8.266Y-11.281
X9.266Y-5.281
X9.266Y-6.281
X9.266Y-7.281
X9.266Y-8.281
X9.266Y-9.281
X9.266Y-10.281
X9.266Y-11.281
X10.266Y-5.281
X10.266Y-6.281
X10.266Y-7.281
X10.266Y-8.281
X10.266Y-9.281
X10.266Y-10.281
X10.266Y-11.281
X11.266Y-5.281
X11.266Y-6.281
X11.266Y-7.281
X11.266Y-8.281
X11.266Y-9.281
X11.266Y-10.281
X11.266Y-11.281
X12.266Y-5.281
X12.266Y-6.281
X12.266Y-7.281
X12.266Y-8.281
X12.266Y-9.281
X12.266Y-10.281
X12.266Y-11.281
X13.266Y-5.281
X13.266Y-6.281
X13.266Y-7.281
X13.266Y-8.281
X13.266Y-9.281
X13.266Y-10.281
X13.266Y-11.281
X14.266Y-5.281
X14.266Y-6.281
X14.266Y-7.281
X14.266Y-8.281
X14.266Y-9.281
X14.266Y-10.281
X14.266Y-11.281
T4
X6.7384Y-3.9503
X6.7384Y-12.6117
X6.7392Y-6.1157
X6.7392Y-10.4477
X15.7936Y-3.9503
X15.7936Y-12.6117
X15.7952Y-6.1177
X15.7952Y-10.4477
T0
M30
