%TF.GenerationSoftware,KiCad,Pcbnew,7.0.2*%
%TF.CreationDate,2023-05-22T19:30:06+02:00*%
%TF.ProjectId,Board2 - Housing and Samtech,426f6172-6432-4202-9d20-486f7573696e,rev?*%
%TF.SameCoordinates,Original*%
%TF.FileFunction,Paste,Top*%
%TF.FilePolarity,Positive*%
%FSLAX46Y46*%
G04 Gerber Fmt 4.6, Leading zero omitted, Abs format (unit mm)*
G04 Created by KiCad (PCBNEW 7.0.2) date 2023-05-22 19:30:06*
%MOMM*%
%LPD*%
G01*
G04 APERTURE LIST*
%ADD10C,1.500000*%
G04 APERTURE END LIST*
D10*
%TO.C,U42*%
X324256400Y-146837400D03*
%TD*%
%TO.C,U63*%
X375056400Y-273837400D03*
%TD*%
%TO.C,U35*%
X298856400Y-172237400D03*
%TD*%
%TO.C,U46*%
X324256400Y-248437400D03*
%TD*%
%TO.C,U10*%
X222656400Y-146837400D03*
%TD*%
%TO.C,U57*%
X375056400Y-121437400D03*
%TD*%
%TO.C,U43*%
X324256400Y-172237400D03*
%TD*%
%TO.C,U49*%
X349656400Y-121437400D03*
%TD*%
%TO.C,U11*%
X222656400Y-172237400D03*
%TD*%
%TO.C,U9*%
X222656400Y-121437400D03*
%TD*%
%TO.C,U53*%
X349656400Y-223037400D03*
%TD*%
%TO.C,U32*%
X273456400Y-299237400D03*
%TD*%
%TO.C,U36*%
X298856400Y-197637400D03*
%TD*%
%TO.C,U12*%
X222656400Y-197637400D03*
%TD*%
%TO.C,U2*%
X197256400Y-146837400D03*
%TD*%
%TO.C,U50*%
X349656400Y-146837400D03*
%TD*%
%TO.C,U19*%
X248056400Y-172237400D03*
%TD*%
%TO.C,U58*%
X375056400Y-146837400D03*
%TD*%
%TO.C,U15*%
X222656400Y-273837400D03*
%TD*%
%TO.C,U16*%
X222656400Y-299237400D03*
%TD*%
%TO.C,U28*%
X273456400Y-197637400D03*
%TD*%
%TO.C,U20*%
X248056400Y-197637400D03*
%TD*%
%TO.C,U18*%
X248056400Y-146837400D03*
%TD*%
%TO.C,U64*%
X375056400Y-299237400D03*
%TD*%
%TO.C,U27*%
X273456400Y-172237400D03*
%TD*%
%TO.C,U8*%
X197256400Y-299237400D03*
%TD*%
%TO.C,U51*%
X349656400Y-172237400D03*
%TD*%
%TO.C,U45*%
X324256400Y-223037400D03*
%TD*%
%TO.C,U34*%
X298856400Y-146837400D03*
%TD*%
%TO.C,U14*%
X222656400Y-248437400D03*
%TD*%
%TO.C,U47*%
X324256400Y-273837400D03*
%TD*%
%TO.C,U3*%
X197256400Y-172237400D03*
%TD*%
%TO.C,U37*%
X298856400Y-223037400D03*
%TD*%
%TO.C,U40*%
X298856400Y-299237400D03*
%TD*%
%TO.C,U52*%
X349656400Y-197637400D03*
%TD*%
%TO.C,U62*%
X375056400Y-248437400D03*
%TD*%
%TO.C,U60*%
X375056400Y-197637400D03*
%TD*%
%TO.C,U17*%
X248056400Y-121437400D03*
%TD*%
%TO.C,U54*%
X349656400Y-248437400D03*
%TD*%
%TO.C,U5*%
X197256400Y-223037400D03*
%TD*%
%TO.C,U22*%
X248056400Y-248437400D03*
%TD*%
%TO.C,U21*%
X248056400Y-223037400D03*
%TD*%
%TO.C,U41*%
X324256400Y-121437400D03*
%TD*%
%TO.C,U13*%
X222656400Y-223037400D03*
%TD*%
%TO.C,U59*%
X375056400Y-172237400D03*
%TD*%
%TO.C,U4*%
X197256400Y-197637400D03*
%TD*%
%TO.C,U29*%
X273456400Y-223037400D03*
%TD*%
%TO.C,U26*%
X273456400Y-146837400D03*
%TD*%
%TO.C,U33*%
X298856400Y-121437400D03*
%TD*%
%TO.C,U23*%
X248056400Y-273837400D03*
%TD*%
%TO.C,U7*%
X197256400Y-273837400D03*
%TD*%
%TO.C,U39*%
X298856400Y-273837400D03*
%TD*%
%TO.C,U48*%
X324256400Y-299237400D03*
%TD*%
%TO.C,U61*%
X375056400Y-223037400D03*
%TD*%
%TO.C,U24*%
X248056400Y-299237400D03*
%TD*%
%TO.C,U55*%
X349656400Y-273837400D03*
%TD*%
%TO.C,U6*%
X197256400Y-248437400D03*
%TD*%
%TO.C,U44*%
X324256400Y-197637400D03*
%TD*%
%TO.C,U31*%
X273456400Y-273837400D03*
%TD*%
%TO.C,U38*%
X298856400Y-248437400D03*
%TD*%
%TO.C,U30*%
X273456400Y-248437400D03*
%TD*%
%TO.C,U56*%
X349656400Y-299237400D03*
%TD*%
%TO.C,U1*%
X197256400Y-121437400D03*
%TD*%
%TO.C,U25*%
X273456400Y-121437400D03*
%TD*%
M02*
